<svg width="148" height="183" viewBox="0 0 148 183" fill="none" xmlns="http://www.w3.org/2000/svg">
<path d="M121.936 129.9C135.436 96.7 119.936 68.4999 123.336 56.1999C125.236 49.0999 127.136 40.1 124.436 33.3C113.336 5 87.8356 10.4999 87.8356 10.4999C66.0356 -10.8001 30.6356 7.09992 30.6356 7.09992C20.4356 10.6999 19.2357 22.4 19.2357 22.4C15.7357 20.8 11.5356 20.0999 9.13562 20.5999C6.53562 21.1999 4.83564 22 4.03564 22.8C0.635642 25.9 0.335618 29.9 0.135618 32.3C-2.36438 65.3 30.0356 112.4 69.5356 134.9C80.5356 140.9 90.5356 148.9 94.5356 160.9C94.5356 161 94.5356 161 94.6356 161.1C94.7356 161.2 94.7356 161.2 94.8356 161.3C94.9356 161.6 95.0356 161.7 95.0356 161.7C104.236 173.7 91.7357 182.3 91.7357 182.3C118.636 183.9 118.736 153.7 118.736 153.7C134.336 168.3 147.136 144.7 147.136 144.7C116.636 153.7 121.936 129.9 121.936 129.9Z" fill="url(#paint0_linear_3_1698)"/>
<path d="M60.3356 0V2C71.0356 2 79.8356 5.30002 86.5356 11.9L87.3356 12.6L88.3356 12.4C88.3356 12.4 90.2356 12 93.0356 12C100.836 12 115.136 14.9 122.636 33.9C125.136 40.2 123.336 48.7 121.436 55.5C120.136 60.2 121.236 66.6 122.736 74.7C125.236 88.7999 128.636 108 120.136 129.1L120.036 129.3V129.5C119.936 129.8 118.236 138.1 122.736 143.7C125.436 147 129.636 148.7 135.136 148.7C137.336 148.7 139.836 148.4 142.636 147.9C139.736 151.6 134.936 156.5 129.236 156.5C126.236 156.5 123.136 155.1 120.136 152.3L116.836 149.2V153.8C116.836 154.8 116.436 178.1 96.8356 180.3C98.3356 178.4 99.8356 175.8 100.336 172.7C100.936 168.7 99.8356 164.7 96.8356 160.8L96.7357 160.6L96.5356 160.2L96.4357 160.1C92.8357 149.6 84.3356 140.8 70.6356 133.3C51.9356 122.6 33.8356 105.6 20.8356 86.5C7.63563 67.1 1.03565 48 2.23565 32.5V32.3C2.43565 30 2.63567 26.7 5.43567 24.3C6.03567 23.8 7.43562 23.1 9.63562 22.6C10.0356 22.5 10.5356 22.5 11.0356 22.5C13.2356 22.5 16.1357 23.2 18.4357 24.3L20.9357 25.5L21.2357 22.7C21.2357 22.3 22.4356 12.3 31.3356 9.09998H31.4357L31.5356 9C31.6356 8.9 45.2356 2.19995 60.3356 2.19995V0ZM60.3356 0C44.5356 0 30.6356 7 30.6356 7C20.4356 10.6 19.2357 22.3 19.2357 22.3C16.5357 21 13.4356 20.3 11.0356 20.3C10.3356 20.3 9.73562 20.4 9.13562 20.5C6.53562 21.1 4.83564 21.9 4.03564 22.7C0.635642 25.8 0.335618 29.8 0.135618 32.2C-2.36438 65.2 30.0356 112.3 69.5356 134.8C80.5356 140.8 90.5356 148.8 94.5356 160.8C94.5356 160.9 94.5356 160.9 94.6356 161C94.7356 161.1 94.7356 161.1 94.8356 161.2C94.9356 161.5 95.0356 161.6 95.0356 161.6C104.236 173.6 91.7357 182.2 91.7357 182.2C92.4357 182.2 93.0357 182.3 93.7357 182.3C118.636 182.3 118.836 153.6 118.836 153.6C122.536 157 126.036 158.3 129.236 158.3C139.736 158.3 147.236 144.5 147.236 144.5C142.336 145.9 138.436 146.5 135.236 146.5C118.336 146.5 122.036 129.7 122.036 129.7C135.536 96.5 120.036 68.3 123.436 56C125.336 48.9 127.236 39.9 124.536 33.1C116.536 12.7 101.036 9.90002 93.0356 9.90002C89.9356 9.90002 87.9357 10.3 87.9357 10.3C79.7357 2.50005 69.7356 0 60.3356 0Z" fill="url(#paint1_linear_3_1698)"/>
<defs>
<linearGradient id="paint0_linear_3_1698" x1="80.3398" y1="-3.98826" x2="75.6255" y2="61.1547" gradientUnits="userSpaceOnUse">
<stop stop-color="#040B26"/>
<stop offset="0.7133" stop-color="#01030C"/>
<stop offset="1"/>
</linearGradient>
<linearGradient id="paint1_linear_3_1698" x1="0.00621778" y1="91.1909" x2="147.154" y2="91.1909" gradientUnits="userSpaceOnUse">
<stop offset="0.0108696" stop-color="#314173"/>
<stop offset="0.2174" stop-color="#314173" stop-opacity="0"/>
</linearGradient>
</defs>
</svg>
