<svg width="148" height="183" viewBox="0 0 148 183" fill="none" xmlns="http://www.w3.org/2000/svg">
<path d="M122.036 129.836C135.536 96.6363 120.036 68.4363 123.436 56.1363C125.336 49.0363 127.236 40.0363 124.536 33.2363C113.436 4.93628 87.9356 10.4363 87.9356 10.4363C66.1356 -10.8637 30.7356 7.03632 30.7356 7.03632C20.5356 10.6363 19.3356 22.3363 19.3356 22.3363C15.8356 20.7362 11.6356 20.0363 9.23559 20.5363C6.63559 21.1363 4.9356 21.9363 4.13559 22.7363C0.735595 25.8363 0.435593 29.8363 0.235593 32.2363C-2.26441 65.2363 30.1356 112.336 69.6356 134.836C80.6356 140.836 90.6356 148.836 94.6356 160.836C94.6356 160.936 94.6356 160.936 94.7356 161.036C94.8356 161.136 94.8356 161.136 94.9356 161.236C95.0356 161.536 95.1356 161.636 95.1356 161.636C104.336 173.636 91.8356 182.236 91.8356 182.236C118.736 183.836 118.836 153.636 118.836 153.636C134.436 168.236 147.236 144.636 147.236 144.636C116.636 153.636 122.036 129.836 122.036 129.836Z" fill="url(#paint0_linear_3_2053)"/>
<path opacity="0.5" d="M122.036 129.836C129.136 112.336 128.236 96.2364 126.236 83.0364C116.636 77.8364 107.436 72.0363 98.9356 65.3363C86.9356 75.3363 71.5356 82.1363 57.3356 84.2363C45.2356 85.4363 32.4356 87.3363 19.7356 88.2363C32.4356 106.636 50.1356 123.636 69.6356 134.736C80.6356 140.736 90.6356 148.736 94.6356 160.736C94.6356 160.836 94.6356 160.836 94.7356 160.936C94.8356 161.036 94.8356 161.036 94.9356 161.136C95.0356 161.436 95.1356 161.536 95.1356 161.536C104.336 173.536 91.8356 182.136 91.8356 182.136C118.736 183.736 118.836 153.536 118.836 153.536C134.436 168.136 147.236 144.536 147.236 144.536C116.636 153.636 122.036 129.836 122.036 129.836Z" fill="#1F0421"/>
<path d="M60.3356 0.036377V2.03638C71.0356 2.03638 79.8356 5.3364 86.5356 11.9364L87.3356 12.6364L88.3356 12.4364C88.3356 12.4364 90.2356 12.0364 93.0356 12.0364C100.836 12.0364 115.136 14.9364 122.636 33.9364C125.136 40.2364 123.336 48.7364 121.436 55.5364C120.136 60.2364 121.236 66.6363 122.736 74.7363C125.236 88.8363 128.636 108.036 120.136 129.136L120.036 129.336V129.536C119.936 129.836 118.236 138.136 122.736 143.736C125.436 147.036 129.636 148.736 135.136 148.736C137.336 148.736 139.836 148.436 142.636 147.936C139.736 151.636 134.936 156.536 129.236 156.536C126.236 156.536 123.136 155.136 120.136 152.336L116.836 149.236V153.836C116.836 154.836 116.436 178.136 96.8356 180.336C98.3356 178.436 99.8356 175.836 100.336 172.736C100.936 168.736 99.8356 164.736 96.8356 160.836L96.7356 160.636L96.5356 160.236L96.4356 160.136C92.8356 149.636 84.3356 140.836 70.6356 133.336C51.9356 122.636 33.8356 105.636 20.8356 86.5364C7.63562 67.1364 1.03562 48.0364 2.23562 32.5364V32.3363C2.43562 30.0363 2.63561 26.7363 5.43561 24.3363C6.03561 23.8363 7.43562 23.1364 9.63562 22.6364C10.0356 22.5364 10.5356 22.5364 11.0356 22.5364C13.2356 22.5364 16.1356 23.2363 18.4356 24.3363L20.9356 25.5364L21.2356 22.7363C21.2356 22.3363 22.4356 12.3364 31.3356 9.13635H31.4356L31.5356 9.03638C31.6356 8.93638 45.2356 2.23633 60.3356 2.23633V0.036377ZM60.3356 0.036377C44.5356 0.036377 30.6356 7.03638 30.6356 7.03638C20.4356 10.6364 19.2356 22.3363 19.2356 22.3363C16.5356 21.0363 13.4356 20.3363 11.0356 20.3363C10.3356 20.3363 9.73562 20.4364 9.13562 20.5364C6.53562 21.1364 4.83561 21.9363 4.03561 22.7363C0.635612 25.8363 0.335618 29.8363 0.135618 32.2363C-2.36438 65.2363 30.0356 112.336 69.5356 134.836C80.5356 140.836 90.5356 148.836 94.5356 160.836C94.5356 160.936 94.5356 160.936 94.6356 161.036C94.7356 161.136 94.7356 161.136 94.8356 161.236C94.9356 161.536 95.0356 161.636 95.0356 161.636C104.236 173.636 91.7356 182.236 91.7356 182.236C92.4356 182.236 93.0356 182.336 93.7356 182.336C118.636 182.336 118.836 153.636 118.836 153.636C122.536 157.036 126.036 158.336 129.236 158.336C139.736 158.336 147.236 144.536 147.236 144.536C142.336 145.936 138.436 146.536 135.236 146.536C118.336 146.536 122.036 129.736 122.036 129.736C135.536 96.5363 120.036 68.3364 123.436 56.0364C125.336 48.9364 127.236 39.9364 124.536 33.1364C116.536 12.7364 101.036 9.9364 93.0356 9.9364C89.9356 9.9364 87.9356 10.3363 87.9356 10.3363C79.8356 2.5363 69.7356 0.036377 60.3356 0.036377Z" fill="url(#paint1_linear_3_2053)"/>
<defs>
<linearGradient id="paint0_linear_3_2053" x1="80.3726" y1="-4.00146" x2="75.6583" y2="61.1413" gradientUnits="userSpaceOnUse">
<stop stop-color="#583749"/>
<stop offset="1" stop-color="#412C45"/>
</linearGradient>
<linearGradient id="paint1_linear_3_2053" x1="0.0390178" y1="91.1774" x2="147.187" y2="91.1774" gradientUnits="userSpaceOnUse">
<stop offset="0.0479876" stop-color="#89596A"/>
<stop offset="0.2268" stop-color="#865769" stop-opacity="0.8107"/>
<stop offset="0.9923" stop-color="#845668" stop-opacity="0"/>
</linearGradient>
</defs>
</svg>
