<svg width="148" height="183" viewBox="0 0 148 183" fill="none" xmlns="http://www.w3.org/2000/svg">
<path d="M121.942 129.936C135.442 96.7364 119.942 68.5364 123.342 56.2364C125.242 49.1364 127.142 40.1364 124.442 33.3364C113.342 5.03637 87.8422 10.5363 87.8422 10.5363C66.0422 -10.7637 30.6422 7.1363 30.6422 7.1363C20.4422 10.7363 19.2422 22.4363 19.2422 22.4363C15.7422 20.8363 11.5422 20.1363 9.14221 20.6363C6.54221 21.2363 4.84223 22.0364 4.04223 22.8364C0.642234 25.9364 0.342209 29.9364 0.142209 32.3364C-2.35779 65.3364 30.0422 112.436 69.5422 134.936C80.5422 140.936 90.5422 148.936 94.5422 160.936C94.5422 161.036 94.5422 161.036 94.6422 161.136C94.7422 161.236 94.7422 161.236 94.8422 161.336C94.9422 161.636 95.0422 161.736 95.0422 161.736C104.242 173.736 91.7422 182.336 91.7422 182.336C118.642 183.936 118.742 153.736 118.742 153.736C134.342 168.336 147.142 144.736 147.142 144.736C116.642 153.736 121.942 129.936 121.942 129.936Z" fill="url(#paint0_linear_3_1876)"/>
<path opacity="0.4" d="M121.942 129.936C130.542 108.836 127.442 89.8364 124.842 75.5364C114.742 91.5364 104.842 109.036 86.3423 114.636C72.2423 118.536 58.3423 118.636 44.6423 116.736C52.4423 123.736 60.7424 129.936 69.5424 134.936C80.5424 140.936 90.5424 148.936 94.5424 160.936C94.5424 161.036 94.5423 161.036 94.6423 161.136C94.7423 161.236 94.7423 161.236 94.8423 161.336C94.9423 161.636 95.0424 161.736 95.0424 161.736C104.242 173.736 91.7423 182.336 91.7423 182.336C118.642 183.936 118.742 153.736 118.742 153.736C134.342 168.336 147.142 144.736 147.142 144.736C116.642 153.736 121.942 129.936 121.942 129.936Z" fill="#5E2F18"/>
<path d="M86.3423 114.536C104.842 109.036 114.742 91.5363 124.842 75.4363C123.342 67.2364 122.142 60.6363 123.342 56.1363C125.242 49.0363 127.142 40.0364 124.442 33.2364C113.342 4.9364 87.8423 10.4363 87.8423 10.4363C66.0423 -10.8637 30.6423 7.03632 30.6423 7.03632C20.4423 10.6363 19.2423 22.3364 19.2423 22.3364C15.7423 20.7364 11.5423 20.0363 9.14226 20.5363C6.54226 21.1363 4.84229 21.9364 4.04229 22.7364C0.642288 25.8364 0.342263 29.8364 0.142263 32.2364C-1.85774 57.9364 17.4423 92.1363 44.6423 116.636C58.3423 118.636 72.2423 118.436 86.3423 114.536Z" fill="url(#paint1_linear_3_1876)"/>
<path d="M60.3422 0.036377V2.03638C71.0422 2.03638 79.8422 5.3364 86.5422 11.9364L87.3422 12.6364L88.3422 12.4364C88.3422 12.4364 90.2422 12.0364 93.0422 12.0364C100.842 12.0364 115.142 14.9364 122.642 33.9364C125.142 40.2364 123.342 48.7364 121.442 55.5364C120.142 60.2364 121.242 66.6365 122.742 74.7365C125.242 88.8364 128.642 108.036 120.142 129.136L120.042 129.336V129.536C119.942 129.836 118.242 138.136 122.742 143.736C125.442 147.036 129.642 148.736 135.142 148.736C137.342 148.736 139.842 148.436 142.642 147.936C139.742 151.636 134.942 156.536 129.242 156.536C126.242 156.536 123.142 155.136 120.142 152.336L116.842 149.236V153.836C116.842 154.836 116.442 178.136 96.8422 180.336C98.3422 178.436 99.8422 175.836 100.342 172.736C100.942 168.736 99.8422 164.736 96.8422 160.836L96.7422 160.636L96.5422 160.236L96.4422 160.136C92.8422 149.636 84.3422 140.836 70.6422 133.336C51.9422 122.636 33.8422 105.636 20.8422 86.5364C7.64222 67.1364 1.04222 48.0364 2.24222 32.5364V32.3364C2.44222 30.0364 2.64223 26.7364 5.44223 24.3364C6.04223 23.8364 7.44221 23.1364 9.64221 22.6364C10.0422 22.5364 10.5422 22.5364 11.0422 22.5364C13.2422 22.5364 16.1422 23.2364 18.4422 24.3364L20.9422 25.5364L21.2422 22.7365C21.2422 22.3365 22.4422 12.3364 31.3422 9.13635H31.4422L31.5422 9.03638C31.6422 8.93638 45.2422 2.23645 60.3422 2.23645V0.036377ZM60.3422 0.036377C44.5422 0.036377 30.6422 7.03638 30.6422 7.03638C20.4422 10.6364 19.2422 22.3364 19.2422 22.3364C16.5422 21.0364 13.4422 20.3364 11.0422 20.3364C10.3422 20.3364 9.74221 20.4364 9.14221 20.5364C6.54221 21.1364 4.84223 21.9365 4.04223 22.7365C0.642234 25.8365 0.342209 29.8365 0.142209 32.2365C-2.35779 65.2365 30.0422 112.336 69.5422 134.836C80.5422 140.836 90.5422 148.836 94.5422 160.836C94.5422 160.936 94.5422 160.936 94.6422 161.036C94.7422 161.136 94.7422 161.136 94.8422 161.236C94.9422 161.536 95.0422 161.636 95.0422 161.636C104.242 173.636 91.7422 182.236 91.7422 182.236C92.4422 182.236 93.0422 182.336 93.7422 182.336C118.642 182.336 118.842 153.636 118.842 153.636C122.542 157.036 126.042 158.336 129.242 158.336C139.742 158.336 147.242 144.536 147.242 144.536C142.342 145.936 138.442 146.536 135.242 146.536C118.342 146.536 122.042 129.736 122.042 129.736C135.542 96.5365 120.042 68.3364 123.442 56.0364C125.342 48.9364 127.242 39.9364 124.542 33.1364C116.542 12.7364 101.042 9.9364 93.0422 9.9364C89.9422 9.9364 87.9422 10.3364 87.9422 10.3364C79.7422 2.53643 69.6422 0.036377 60.3422 0.036377Z" fill="url(#paint2_linear_3_1876)"/>
<defs>
<linearGradient id="paint0_linear_3_1876" x1="80.288" y1="-3.95209" x2="75.5738" y2="61.1907" gradientUnits="userSpaceOnUse">
<stop stop-color="#CB8F34"/>
<stop offset="0.8116" stop-color="#BA772B"/>
</linearGradient>
<linearGradient id="paint1_linear_3_1876" x1="66.592" y1="-3.10566" x2="63.4985" y2="39.6404" gradientUnits="userSpaceOnUse">
<stop stop-color="#CB8F34"/>
<stop offset="0.8116" stop-color="#BA772B"/>
</linearGradient>
<linearGradient id="paint2_linear_3_1876" x1="-0.0454904" y1="91.2269" x2="147.102" y2="91.2269" gradientUnits="userSpaceOnUse">
<stop offset="0.0479876" stop-color="#F6B953"/>
<stop offset="0.2268" stop-color="#F3B651" stop-opacity="0.8107"/>
<stop offset="0.9923" stop-color="#F1B450" stop-opacity="0"/>
</linearGradient>
</defs>
</svg>
