<svg width="175" height="177" viewBox="0 0 175 177" fill="none" xmlns="http://www.w3.org/2000/svg">
<path d="M163.6 58.2C158.1 48.4 151.9 39.3 145.4 30.1C151.4 29.6 157 23.4 153.2 18.2C144.5 27.2 120.2 13.5 110.2 9.7C88.0001 9.53674e-07 61.3 2.8 41.8 17.3C41.8 17.3 40.7001 11 44.1001 2.4C44.2001 2.1 45.1001 0.2 44.9001 0C43.6001 0.9 42.4 2 41.3 3.1C40.9 3.2 29.1 12.4 20.8 32.1C19.9 34.3 19.2 36.7 19.3 39.2C19.3 40.2 18.9001 40.3 18.0001 40.4C11.6001 41.1 3.00005 44.6 0.300049 50.5C2.90005 49.6 13.5001 49.8 11.4001 54.3C6.90005 60.4 3.90005 67.3 2.30005 74.7C0.900049 86.6 7.00005 97.8 10.4001 108.9C15.0001 125.7 20.8001 142.4 32.0001 156.2C50.1001 179.8 89.8 182.8 108.8 163.8C118.3 155.9 124.6 145.8 129.8 134.8C132.8 129.6 131.6 122.6 136.8 118.6C143.1 112.2 148.1 105.6 151.2 97.2C151.2 97.3 151.2 97.3 151.1 97.4C155.6 87.7 156.6 78 154.9 68.7C158 72.6 170.8 74.4 174.8 69.4C173.5 69.2 168.7 66.9 163.6 58.2Z" fill="url(#paint0_linear_3_2964)"/>
<g opacity="0.6">
<path d="M173.6 69.6C173.6 69.6 173.6 69.6 174.7 69.5C173.6 70.9 169.3 72.8 166.3 72.8C152 72.4 150.5 62 151.3 59.7C152.6 62.1 154.8 63.4 156.7 64.9C161.7 68.7 167.4 70.2 173.6 69.6Z" fill="url(#paint1_linear_3_2964)"/>
<path d="M110.2 9.70001C101.7 6.10001 92.7999 4.30001 83.5999 3.90001C79.9999 3.70001 76.3999 4.30001 72.7999 4.80001C65.4999 5.70001 58.6999 8.10001 52.1999 11.1C48.8999 12.6 45.1999 15.2 41.8999 17.4C42.0999 19.7 43.2999 24.9 45.1999 28.1C61.2999 11.2 82.6999 5.10001 110.2 9.70001Z" fill="url(#paint2_linear_3_2964)"/>
<path opacity="0.9" d="M151 97.5C151 97.5 150.7 93.7 150.4 92.3C147.5 77.3 138.6 69.2 134.2 66.2C138.5 77.1 138.1 83.9 138.3 91.1C138.6 100.6 135.5 109 129.6 116.4C123.6 123.9 116.1 129.1 106.4 130.3C101.9 130.9 97.3 130.3 92.8 129.9C82.3 128.9 72.8 124.9 63.4 120.4C50.6 114.3 41.1 104.9 33.9 92.7C28.8 84.1 25.5 74.9 24.1 65.1C23.3 59.6 23.7 54 25.3 48.5C25.8 47 25.5 45.7 24.8 44.3C23.8 42.1 24.1 39.6 24.5 37.4C25.2 32.6 26.5 27.9 28.2 23.6C31 16.2 35.3 8.70001 41.1 3.10001C40.7 3.20001 28.9 12.4 20.6 32.1C19.7 34.3 19 36.7 19.1 39.2C19.1 40.2 18.7 40.3 17.8 40.4C12.9 41.1 8.20001 42.6 4.10001 45.6C2.60001 46.7 0 50.1 0 50.5C2.9 49.8 5.7 49.9 8.5 50.8C9.4 51.1 9.99999 51.5 10.8 52C11.8 52.6 11.9 53.3 11.1 54.4C6.60001 60.5 3.6 67.4 2 74.8C1.5 77.2 1.7 79.6 2 82C3.1 91.5 7.20001 100.1 10.1 109C12.2 115.6 13.7 122.3 16.3 128.8C20.2 138.7 25.1 147.9 31.7 156.3C40.1 166.9 51.2 172.4 64 175.5C77 177.9 87.4 175.5 90.9 174.3C97.4 172 103.2 168.4 108.5 164C118 156.1 124.3 146 129.5 135C130.8 132.2 131.8 129.4 132.1 126.3C132.4 123.3 134.4 120.9 136.5 118.8C141.9 113.5 145.7 108.2 149.2 101.6C149.8 100.5 150.5 98.8 150.9 97.4C151.1 97.4 151 97.5 151 97.5Z" fill="url(#paint3_linear_3_2964)"/>
</g>
<path d="M82.6999 6.00001C91.8999 6.00001 101.2 7.90001 109.5 11.5C111.2 12.2 113.5 13.2 116 14.3C124.4 18 135.8 23.1 144.7 23.1C147.8 23.1 150.4 22.5 152.4 21.2C152.5 21.9 152.4 22.7 152 23.5C150.9 25.8 148.1 27.7 145.2 28L141.7 28.3L143.7 31.1C149.4 39.1 156 48.6 161.8 59C165.3 64.9 168.6 68 170.9 69.6C169.6 70.1 167.9 70.4 166 70.4C161.5 70.4 157.5 68.8 156.3 67.4L151.4 61.2L152.8 69C154.4 78.3 153.2 87.5 149.2 96.3L149.1 96.5C146.5 103.6 142.3 110 135.3 117.1C131.6 120 130.7 124.1 129.9 127.7C129.4 129.9 128.9 132 127.9 133.8V133.9V134C122 146.6 115.5 155.6 107.5 162.3L107.4 162.4L107.3 162.5C99.7999 170 88.1999 174.3 75.3999 174.3C58.5999 174.3 42.5999 166.9 33.4999 155.1C22.1999 141.1 16.3999 123.7 12.2999 108.5C11.3999 105.7 10.3999 102.9 9.3999 100.2C6.3999 92.1 3.2999 83.7 4.2999 75.3C5.8999 68 8.79991 61.4 12.9999 55.7L13.0999 55.5L13.1999 55.3C13.8999 53.9 13.7999 52.5 13.0999 51.3C11.4999 48.8 7.29991 48.3 4.59991 48.2C7.99991 45.1 13.5999 43 18.2999 42.5C19.0999 42.4 21.3999 42.1 21.2999 39.2C21.1999 37.3 21.6999 35.3 22.6999 32.9C28.3999 19.5 35.4999 11.3 39.3999 7.4V7.7L40.7999 6.4C39.1999 12.9 39.8999 17.3 39.8999 17.5L40.4999 20.7L43.0999 18.8C54.1999 10.6 68.2999 6.00001 82.6999 6.00001ZM44.9999 0.100006C43.6999 1.00001 42.4999 2.1 41.3999 3.2C40.9999 3.3 29.1999 12.5 20.8999 32.2C19.9999 34.4 19.2999 36.8 19.3999 39.3C19.3999 40.3 18.9999 40.4 18.0999 40.5C11.6999 41.2 3.0999 44.7 0.399902 50.6C1.1999 50.4 2.49991 50.2 4.09991 50.2C7.99991 50.2 12.9999 51.2 11.4999 54.4C6.99991 60.5 3.9999 67.4 2.3999 74.8C0.999902 86.7 7.09991 97.9 10.4999 109C15.0999 125.8 20.8999 142.5 32.0999 156.3C42.2999 169.6 59.2999 176.3 75.5999 176.3C88.2999 176.3 100.6 172.2 108.9 163.9C118.4 156 124.7 145.9 129.9 134.9C132.9 129.7 131.7 122.7 136.9 118.7C143.2 112.3 148.2 105.7 151.3 97.3C151.3 97.3 151.3 97.4 151.2 97.4C151.2 97.3 151.2 97.3 151.3 97.2C155.7 87.5 156.7 77.9 155.1 68.7C156.9 70.9 161.7 72.5 166.4 72.5C169.9 72.5 173.3 71.6 175 69.4C173.7 69 169 66.8 163.9 58.1C158.4 48.3 152.2 39.2 145.7 30C151.7 29.5 157.3 23.3 153.5 18.1C151.4 20.2 148.4 21.1 145 21.1C134 21.1 118.1 12.5 110.5 9.60001C101.8 5.80001 92.2999 3.90001 82.8999 3.90001C68.3999 3.90001 53.8999 8.4 42.0999 17.2C42.0999 17.2 40.9999 10.9 44.3999 2.3C44.2999 2.1 45.0999 0.200006 44.9999 0.100006Z" fill="url(#paint4_linear_3_2964)"/>
<defs>
<linearGradient id="paint0_linear_3_2964" x1="118.576" y1="9.72161" x2="42.2902" y2="133.15" gradientUnits="userSpaceOnUse">
<stop stop-color="#CB8F34"/>
<stop offset="0.8116" stop-color="#BA772B"/>
</linearGradient>
<linearGradient id="paint1_linear_3_2964" x1="177.279" y1="9.75539" x2="144.948" y2="133.955" gradientUnits="userSpaceOnUse">
<stop stop-color="#AD7420"/>
<stop offset="0.8885" stop-color="#AA701E"/>
</linearGradient>
<linearGradient id="paint2_linear_3_2964" x1="83.3631" y1="-14.6925" x2="51.0317" y2="109.508" gradientUnits="userSpaceOnUse">
<stop stop-color="#AD7420"/>
<stop offset="0.8885" stop-color="#AA701E"/>
</linearGradient>
<linearGradient id="paint3_linear_3_2964" x1="0.2618" y1="89.8665" x2="151.081" y2="89.8665" gradientUnits="userSpaceOnUse">
<stop stop-color="#AD7420"/>
<stop offset="0.8885" stop-color="#AA701E"/>
</linearGradient>
<linearGradient id="paint4_linear_3_2964" x1="10.4261" y1="121.102" x2="162.087" y2="33.54" gradientUnits="userSpaceOnUse">
<stop offset="0.0479876" stop-color="#F6B953"/>
<stop offset="0.2268" stop-color="#F3B651" stop-opacity="0.8107"/>
<stop offset="0.9923" stop-color="#F1B450" stop-opacity="0"/>
</linearGradient>
</defs>
</svg>
