<svg width="557" height="79" viewBox="0 0 557 79" fill="none" xmlns="http://www.w3.org/2000/svg">
<path d="M411.177 67.7645L409.555 69.8706C409.38 70.1023 409.541 70.4322 409.836 70.4322H480.721C481.016 70.4322 481.177 70.0953 481.002 69.8706L479.38 67.7645C479.317 67.6803 479.212 67.6241 479.099 67.6241H411.451C411.345 67.6241 411.24 67.6732 411.177 67.7645Z" fill="#00A7FD"/>
<path d="M25.378 9.63263C27.1752 3.52063 31.3243 1.63263 35.1995 1.63263H519.685C523.567 1.63263 528.313 2.23263 530.138 9.63263L549.093 81.6326H7.12494L25.378 9.63263Z" fill="url(#paint0_linear_785_14377)" fill-opacity="0.1"/>
<path d="M25.378 9.63263C27.1752 3.52063 31.3243 1.63263 35.1995 1.63263H519.685C523.567 1.63263 528.313 2.23263 530.138 9.63263L549.093 81.6326H7.12494L25.378 9.63263Z" fill="url(#paint1_linear_785_14377)" fill-opacity="0.1" stroke="#00A7FD" stroke-opacity="0.2" stroke-width="3.26531" stroke-miterlimit="10"/>
<path d="M26.1224 10.6122H54.8339C56.7916 10.6122 58.7067 9.55739 60.3654 7.56944L65.3061 1.63263L32.8002 1.98424L29.6393 4.06686L27.0337 8.15095L26.1224 10.6122Z" fill="#00A7FD" fill-opacity="0.5"/>
<path d="M529.796 10.6122H501.084C499.127 10.6122 497.212 9.55739 495.553 7.56944L490.612 1.63263L523.118 1.98424L526.279 4.06686L528.885 8.15095L529.796 10.6122Z" fill="#00A7FD" fill-opacity="0.5"/>
<path d="M4.66155 71.8368H0L3.69975 58.9684C4.42286 56.4621 6.71151 54.735 9.31608 54.735H9.57584L4.66155 71.8368Z" fill="#00A7FD" fill-opacity="0.5"/>
<path d="M551.481 71.8368H556.142L552.443 58.9684C551.72 56.4621 549.431 54.735 546.826 54.735H546.567L551.481 71.8368Z" fill="#00A7FD" fill-opacity="0.5"/>
<g opacity="0.5">
<path d="M226.046 28.6508C227.415 28.8403 229.788 29.0579 231.269 28.7631C231.571 27.4503 232.147 24.1998 231.185 21.3074C228.314 19.5523 224.86 18.6326 221.293 18.6326C220.009 18.6326 218.766 18.8081 217.573 19.1311C220.24 20.8721 224.116 24.0454 226.046 28.6508Z" fill="#00A7FD" fill-opacity="0.5"/>
<path d="M238.661 33.8601C238.38 29.5074 236.618 26.0042 233.978 23.4629C234.294 26.8818 233.389 29.8725 233.332 30.048L233.164 30.5956L232.623 30.7922C231.718 31.1291 230.531 31.2344 229.359 31.2344C227.316 31.2344 225.329 30.9045 224.999 30.8483L224.339 30.736L224.108 30.1042C222.163 24.8108 217.003 21.4269 214.813 20.1843C209.316 22.9433 205.482 29.1073 205.482 36.2751C205.482 41.414 209.372 46.1739 214.314 49.7122L216.371 41.9546L222.079 45.4859L222.156 46.0264C222.374 47.6131 222.998 52.1833 223.195 54.3948C224.501 54.8651 225.771 55.2372 226.965 55.4829L228.109 52.2536L226.74 51.5024L224.662 42.2635L218.421 37.602L217.768 31.6908C233.508 35.3554 236.569 31.6908 236.569 31.6908C236.569 31.6908 237.566 36.5419 236.183 43.2042C235.298 47.4797 233.41 51.1373 233.41 51.1373L232.329 52.2465L232.918 55.0687C233.262 54.8511 233.571 54.5773 233.831 54.2473C238.352 48.4274 239.082 40.354 238.661 33.8601ZM211.611 42.2705C209.449 42.2705 207.687 39.1745 207.687 35.3624C207.687 31.5504 209.442 28.4544 211.611 28.4544C213.781 28.4544 215.536 31.5504 215.536 35.3624C215.529 39.1745 213.774 42.2705 211.611 42.2705Z" fill="#00A7FD" fill-opacity="0.5"/>
<path d="M217.817 45.5913L216.364 51.0813C217.796 51.9658 219.277 52.7451 220.752 53.412C220.562 51.7412 220.246 49.263 219.923 46.8971L217.817 45.5913Z" fill="#00A7FD" fill-opacity="0.5"/>
</g>
<path d="M91.3491 18.7065C91.3491 18.7065 84.5954 20.8828 81.5907 32.5156C81.5907 32.5156 84.2585 34.4041 88.232 34.5937C88.232 34.5937 92.2126 28.5421 93.9045 23.2417C93.9045 23.2487 93.2376 21.0724 91.3491 18.7065Z" fill="#00A7FD" fill-opacity="0.5"/>
<path d="M111.694 14.4659C111.68 14.4659 111.673 14.4589 111.659 14.4589C112.27 18.5729 111.715 22.9255 111.715 22.9255C109.433 23.2274 107.903 22.9255 107.903 22.9255C104.042 19.8015 100.728 15.4207 100.012 14.4519C99.6048 14.5291 99.1976 14.6204 98.7834 14.7187L98.0463 17.1407C98.0463 17.1407 101.683 22.4973 107.615 26.2181C107.615 26.2181 108.542 26.3585 110.072 26.3585C110.837 26.3585 111.757 26.3234 112.789 26.2181C112.789 26.2181 114.614 22.4411 113.99 17.0775L112.726 14.7257C112.726 14.7187 112.361 14.6064 111.694 14.4659Z" fill="#00A7FD" fill-opacity="0.5"/>
<path d="M111.765 35.2316C112.895 35.4141 117.177 36.053 119.775 35.8143C120.674 34.4242 121.383 26.3227 118.574 19.0285C117.669 18.4107 116.665 17.9193 115.591 17.5402C116.054 22.9389 114.264 26.7158 114.187 26.8843L113.808 27.6636L110.332 27.8953C110.262 29.0958 110.929 32.1005 111.765 35.2316Z" fill="#00A7FD" fill-opacity="0.5"/>
<path d="M122.106 34.2564C125.778 33.9335 128.214 32.2135 128.214 32.2135C126.255 24.6455 122.717 21.0791 120.477 19.5135C122.499 25.6073 122.366 31.364 122.106 34.2564Z" fill="#00A7FD" fill-opacity="0.5"/>
<path d="M93.8137 27.7558L99.2966 35.5274C100.567 35.7099 107.138 36.3488 110.424 35.2115C110.649 33.9268 111.295 30.6904 110.649 27.8962C109.996 27.8541 107.412 27.7488 107.391 27.7418L107.075 27.6926L106.801 27.5241C100.673 23.677 96.9308 18.2432 96.7763 18.0115L96.4955 17.6043C95.4354 17.9764 94.4596 18.4678 93.5961 19.0926C95.0774 21.3602 95.625 23.1645 95.625 23.1645C95.1335 24.6739 94.5017 26.2394 93.8137 27.7558Z" fill="#00A7FD" fill-opacity="0.5"/>
<path d="M90.97 33.3015C90.4715 34.1861 90.0082 34.9724 89.6221 35.6183C89.7274 37.5348 89.8959 39.5216 90.1626 41.5084C90.963 42.077 91.6931 42.758 92.4864 43.3688C91.6439 39.2689 91.1946 35.6112 90.97 33.3015Z" fill="#00A7FD" fill-opacity="0.5"/>
<path d="M115.78 44.3727C111.104 41.8243 105.347 43.783 101.184 46.7035C104.077 49.3291 104.933 53.9696 105.221 58.1818C106.906 58.6241 112.157 58.9541 114.488 57.55C115.183 53.6045 116.187 49.5467 118.735 46.6403C118.749 46.5841 117.17 45.0186 115.78 44.3727Z" fill="#00A7FD" fill-opacity="0.5"/>
<path d="M114.256 41.8736C115.92 42.3931 117.949 43.5023 119.023 44.7379C119.915 43.0179 120.694 39.957 120.603 37.3103C119.999 37.3665 119.402 37.4016 118.792 37.4016C115.899 37.4016 112.55 36.8259 112.55 36.8259L112.319 36.18C111.483 32.4101 111.448 29.3562 111.525 27.8608C111.041 27.8889 110.557 27.903 110.072 27.903C110.058 27.903 110.044 27.903 110.037 27.903C110.746 31.5957 109.805 36.1941 109.763 36.4047L109.672 36.854L109.237 36.9874C107.973 37.3735 106.365 37.4999 104.786 37.4999C101.795 37.4999 98.9168 37.0435 98.7343 37.0155L98.4113 36.9663L93.0548 29.3772C92.8091 29.8757 92.5633 30.3601 92.3176 30.8375C92.3668 31.6238 92.7318 36.6293 93.9323 42.6599C94.8941 42.6879 97.7163 43.2285 100.293 45.3557C104.582 42.3229 109.019 40.4063 114.256 41.8736Z" fill="#00A7FD" fill-opacity="0.5"/>
<path d="M92.8022 51.3097L93.7851 56.3363C97.9552 57.0594 100.728 57.2911 103.649 57.4245C103.382 55.8449 103.164 54.2653 102.708 52.6857C97.2672 52.2294 92.8022 51.3097 92.8022 51.3097Z" fill="#00A7FD" fill-opacity="0.5"/>
<path d="M118.28 51.3081C117.795 51.5889 117.501 51.7364 116.925 51.947C116.195 53.7653 115.907 55.6818 115.781 56.6647C117.304 56.2926 117.142 56.0118 117.142 56.0118C117.142 56.0118 118.28 53.2949 118.28 51.3081Z" fill="#00A7FD" fill-opacity="0.5"/>
<path opacity="0.5" d="M363.644 38.5597L345.938 20.4751C345.011 19.3518 343.516 19.3518 342.589 20.4751L324.884 38.5597C324.027 39.5987 324.631 41.3748 325.846 41.3748H328.436C329.187 41.3748 329.791 42.112 329.791 43.0246C329.791 43.0246 331.266 48.0091 332.382 50.9086C332.81 52.0108 334.186 52.3899 335.127 51.6738L342.997 47.623C344.394 46.7735 346.149 46.7735 347.546 47.616L355.142 51.6948C356.083 52.4039 357.452 52.0248 357.88 50.9226C359.003 48.0232 360.477 43.0317 360.477 43.0317C360.477 42.119 361.088 41.3819 361.832 41.3819H362.682C363.896 41.3819 364.5 39.5987 363.644 38.5597ZM347.792 39.1002L347.328 44.0777L344.267 40.1252L340.083 42.8632L341.27 38.005L336.524 36.4465L341.059 34.3404L339.318 29.6508L343.79 31.8832L346.366 27.6008L347.405 32.487L352.362 31.8341L349.189 35.6953L352.79 39.1634L347.792 39.1002Z" fill="#00A7FD" fill-opacity="0.5"/>
<defs>
<linearGradient id="paint0_linear_785_14377" x1="257.108" y1="3.7283" x2="257.108" y2="86.7478" gradientUnits="userSpaceOnUse">
<stop stop-color="#144B94"/>
<stop offset="0.78125" stop-color="#1E88CA"/>
<stop offset="1" stop-color="#197CD2"/>
</linearGradient>
<linearGradient id="paint1_linear_785_14377" x1="257.108" y1="3.7283" x2="257.108" y2="86.7478" gradientUnits="userSpaceOnUse">
<stop stop-color="#144B94"/>
<stop offset="0.78125" stop-color="#1E88CA"/>
<stop offset="1" stop-color="#197CD2"/>
</linearGradient>
</defs>
</svg>
