<svg width="36" height="32" viewBox="0 0 36 32" fill="none" xmlns="http://www.w3.org/2000/svg">
<path d="M4.36703 2.61378L-0.733154 10.37L7.29153 14.9898L11.4522 5.36872L4.36703 2.61378Z" fill="url(#paint0_linear_785_13940)"/>
<path d="M30.7527 2.59192L35.867 10.3199L27.8777 14.9397L23.6604 5.34686L30.7527 2.59192Z" fill="url(#paint1_linear_785_13940)"/>
<path opacity="0.68" d="M30.751 2.59318L30.0587 2.86161L30.8922 13.2032L35.8653 10.3211L30.751 2.59318Z" fill="url(#paint2_linear_785_13940)"/>
<path d="M7.29163 14.9903L17.5909 14.9691L27.8831 14.9479L25.7922 10.1444L23.6942 5.33389L17.5767 5.35508L11.4523 5.36921L9.37547 10.1798L7.29163 14.9903Z" fill="url(#paint3_linear_785_13940)"/>
<path d="M7.29199 14.989L27.8834 14.9466L17.5842 32.7477L7.29199 14.989Z" fill="url(#paint4_linear_785_13940)"/>
<path d="M7.29199 14.989L27.8834 14.9466L17.5842 32.7477L7.29199 14.989Z" fill="url(#paint5_radial_785_13940)"/>
<path d="M-0.731689 10.3697L17.5852 32.7483L7.29299 14.9895L-0.731689 10.3697Z" fill="url(#paint6_linear_785_13940)"/>
<path d="M35.8658 10.3209L17.5842 32.7489L27.8765 14.9407L35.8658 10.3209Z" fill="url(#paint7_linear_785_13940)"/>
<path d="M24.1881 -0.00709915L30.793 2.61363L23.6936 5.33325L11.4518 5.36857L4.36658 2.61363L10.9785 -0.00709915H24.1881Z" fill="url(#paint8_linear_785_13940)"/>
<path opacity="0.5" d="M10.9785 -0.00709915L4.36658 2.61363L8.49192 4.21714L12.8151 -0.00709915H10.9785Z" fill="white"/>
<path opacity="0.5" d="M30.7935 2.61363L24.1886 -0.00709915H22.7758L23.5104 5.33325H23.6941L30.7935 2.61363Z" fill="white"/>
<path d="M11.4517 5.3705L17.5903 14.9704L7.29102 14.9916L11.4517 5.3705Z" fill="url(#paint9_linear_785_13940)"/>
<path opacity="0.29" d="M17.5838 32.7495L13.296 14.9836L7.29163 14.9907L17.5838 32.7495Z" fill="url(#paint10_linear_785_13940)"/>
<path opacity="0.52" d="M17.5837 32.7481L27.883 14.947L20.9886 14.9611L17.5837 32.7481Z" fill="url(#paint11_linear_785_13940)"/>
<path d="M23.659 5.34748L27.8903 14.9474L17.584 32.7486L7.29177 14.9898L11.4525 5.36867L23.659 5.34748ZM23.659 5.07198L11.4594 5.09317C11.3464 5.09317 11.2475 5.15675 11.2052 5.26271L7.04446 14.8838C7.00914 14.9615 7.01622 15.0533 7.0586 15.1311L17.3509 32.8898C17.4003 32.9746 17.4921 33.0311 17.591 33.0311C17.6899 33.0311 17.7817 32.9817 17.8312 32.8898L28.1376 15.0887C28.18 15.011 28.187 14.9191 28.1516 14.8414L23.9203 5.24152C23.8638 5.13556 23.7649 5.07198 23.659 5.07198Z" fill="url(#paint12_linear_785_13940)"/>
<path d="M28.1878 15.4837C28.209 15.2788 28.3502 15.1234 28.5127 15.1234L30.1233 15.074L28.5268 14.7914C28.3644 14.7631 28.2442 14.5865 28.2372 14.3817L28.2019 12.3614L27.9758 14.3605C27.9546 14.5654 27.8134 14.7208 27.6509 14.7208L26.0403 14.7702L27.6368 15.0528C27.7992 15.081 27.9193 15.2576 27.9264 15.4625L27.9618 17.4828L28.1878 15.4837Z" fill="white"/>
<path d="M11.6577 6.23747C11.6931 5.87721 11.9333 5.60172 12.2229 5.58759L15.0485 5.43925L12.237 5.00835C11.9474 4.96596 11.7284 4.66928 11.7214 4.30195L11.6013 0.755848L11.2551 4.28076C11.2198 4.64102 10.9796 4.91652 10.69 4.93064L7.86438 5.07899L10.6758 5.50989C10.9655 5.55227 11.1845 5.84896 11.1916 6.21628L11.3116 9.76239L11.6577 6.23747Z" fill="white"/>
<path d="M24.1323 0.269962L30.0308 2.60813L23.6379 5.05932L11.5019 5.09464L5.12313 2.61519L11.0215 0.277027H24.1323M24.1888 -0.00553131H10.9792L4.37439 2.61519L11.4595 5.37014L23.7015 5.33482L30.8007 2.61519L24.1888 -0.00553131Z" fill="url(#paint13_linear_785_13940)"/>
<defs>
<linearGradient id="paint0_linear_785_13940" x1="7.43275" y1="6.75128" x2="2.40159" y2="13.1912" gradientUnits="userSpaceOnUse">
<stop stop-color="#7CC4F4"/>
<stop offset="0.5422" stop-color="#73B0F4"/>
<stop offset="1" stop-color="#699BF4"/>
</linearGradient>
<linearGradient id="paint1_linear_785_13940" x1="23.6707" y1="8.7886" x2="35.8613" y2="8.74228" gradientUnits="userSpaceOnUse">
<stop stop-color="#3872D6"/>
<stop offset="0.3699" stop-color="#3268DD"/>
<stop offset="0.9881" stop-color="#224FEF"/>
<stop offset="1" stop-color="#224EEF"/>
</linearGradient>
<linearGradient id="paint2_linear_785_13940" x1="38.7842" y1="11.0823" x2="26.3217" y2="6.09731" gradientUnits="userSpaceOnUse">
<stop offset="0.2035" stop-color="#00DCFD"/>
<stop offset="0.7287" stop-color="#007BFA"/>
</linearGradient>
<linearGradient id="paint3_linear_785_13940" x1="7.2912" y1="10.1636" x2="27.8858" y2="10.1636" gradientUnits="userSpaceOnUse">
<stop offset="0.2035" stop-color="#00DCFD"/>
<stop offset="0.7211" stop-color="#007BFA"/>
</linearGradient>
<linearGradient id="paint4_linear_785_13940" x1="17.5841" y1="14.8913" x2="18.6856" y2="32.9743" gradientUnits="userSpaceOnUse">
<stop offset="0.00537634" stop-color="#0D61D1"/>
<stop offset="0.2905" stop-color="#166DE2"/>
<stop offset="0.7032" stop-color="#207AF4"/>
<stop offset="1" stop-color="#237FFA"/>
</linearGradient>
<radialGradient id="paint5_radial_785_13940" cx="0" cy="0" r="1" gradientUnits="userSpaceOnUse" gradientTransform="translate(17.7219 10.8033) scale(16.8938 21.1748)">
<stop stop-color="#52F7FA"/>
<stop offset="1" stop-color="#456FFF"/>
</radialGradient>
<linearGradient id="paint6_linear_785_13940" x1="2.57432" y1="12.3777" x2="13.4356" y2="25.0317" gradientUnits="userSpaceOnUse">
<stop offset="0.00537634" stop-color="#01519D"/>
<stop offset="0.2543" stop-color="#0158AB"/>
<stop offset="0.6881" stop-color="#0061BD"/>
<stop offset="1" stop-color="#0064C3"/>
</linearGradient>
<linearGradient id="paint7_linear_785_13940" x1="32.6714" y1="12.5759" x2="22.5978" y2="23.996" gradientUnits="userSpaceOnUse">
<stop stop-color="#124AD1"/>
<stop offset="0.1997" stop-color="#1046C9"/>
<stop offset="0.5076" stop-color="#0B3DB4"/>
<stop offset="0.8835" stop-color="#032D90"/>
<stop offset="1" stop-color="#002784"/>
</linearGradient>
<linearGradient id="paint8_linear_785_13940" x1="10.8232" y1="1.91423" x2="59.0804" y2="7.20271" gradientUnits="userSpaceOnUse">
<stop offset="0.2035" stop-color="#00DCFD"/>
<stop offset="0.7211" stop-color="#007BFA"/>
</linearGradient>
<linearGradient id="paint9_linear_785_13940" x1="16.1182" y1="16.2385" x2="8.73851" y2="9.61359" gradientUnits="userSpaceOnUse">
<stop stop-color="white"/>
<stop offset="0.2675" stop-color="#FCFCFF"/>
<stop offset="0.4918" stop-color="#F1F4FF"/>
<stop offset="0.7004" stop-color="#E0E7FF"/>
<stop offset="0.8985" stop-color="#C8D4FF"/>
<stop offset="1" stop-color="#B8C8FF"/>
</linearGradient>
<linearGradient id="paint10_linear_785_13940" x1="13.1508" y1="34.0471" x2="11.5027" y2="10.5615" gradientUnits="userSpaceOnUse">
<stop offset="0.00537634" stop-color="#0D61D1"/>
<stop offset="0.2905" stop-color="#166DE2"/>
<stop offset="0.7032" stop-color="#207AF4"/>
<stop offset="1" stop-color="#237FFA"/>
</linearGradient>
<linearGradient id="paint11_linear_785_13940" x1="23.3999" y1="33.3396" x2="21.73" y2="9.5435" gradientUnits="userSpaceOnUse">
<stop stop-color="#0E67DE"/>
<stop offset="0.2503" stop-color="#1C73E8"/>
<stop offset="0.6864" stop-color="#2E83F5"/>
<stop offset="1" stop-color="#3489FA"/>
</linearGradient>
<linearGradient id="paint12_linear_785_13940" x1="7.01444" y1="19.048" x2="28.1628" y2="19.048" gradientUnits="userSpaceOnUse">
<stop stop-color="white" stop-opacity="0"/>
<stop offset="0.8625" stop-color="white" stop-opacity="0.69"/>
<stop offset="1" stop-color="white" stop-opacity="0.8"/>
</linearGradient>
<linearGradient id="paint13_linear_785_13940" x1="17.5822" y1="-0.00482492" x2="17.5822" y2="5.36985" gradientUnits="userSpaceOnUse">
<stop stop-color="white" stop-opacity="0.1"/>
<stop offset="0.8625" stop-color="white" stop-opacity="0.7037"/>
<stop offset="1" stop-color="white" stop-opacity="0.8"/>
</linearGradient>
</defs>
</svg>
