<svg width="34" height="37" viewBox="0 0 34 37" fill="none" xmlns="http://www.w3.org/2000/svg">
<g opacity="0.5">
<path d="M20.5638 10.0181C21.9328 10.2077 24.3057 10.4253 25.787 10.1304C26.0888 8.81763 26.6645 5.56718 25.7027 2.67478C22.8314 0.919674 19.3773 0 15.811 0C14.5262 0 13.2836 0.175512 12.0901 0.498451C14.7579 2.23951 18.6332 5.41274 20.5638 10.0181Z" fill="#00A7FD" fill-opacity="0.5"/>
<path d="M33.1785 15.2275C32.8977 10.8748 31.1356 7.37161 28.4959 4.83023C28.8118 8.24916 27.9062 11.2399 27.85 11.4154L27.6815 11.963L27.141 12.1595C26.2353 12.4965 25.0489 12.6018 23.8765 12.6018C21.8335 12.6018 19.8468 12.2719 19.5168 12.2157L18.8569 12.1034L18.6252 11.4715C16.6805 6.17814 11.5206 2.79431 9.33019 1.5517C3.83321 4.31072 6.10352e-05 10.4746 6.10352e-05 17.6425C6.10352e-05 22.7814 3.88938 27.5412 8.83175 31.0795L10.8887 23.322L16.5963 26.8532L16.6735 27.3938C16.8912 28.9804 17.516 33.5507 17.7126 35.7621C19.0184 36.2325 20.289 36.6046 21.4825 36.8503L22.6268 33.6209L21.2579 32.8697L19.1798 23.6309L12.9387 18.9693L12.2858 13.0581C28.0255 16.7228 31.0864 13.0581 31.0864 13.0581C31.0864 13.0581 32.0833 17.9092 30.7003 24.5716C29.8157 28.847 27.9272 32.5047 27.9272 32.5047L26.8461 33.6139L27.4358 36.4361C27.7798 36.2185 28.0887 35.9447 28.3485 35.6147C32.8696 29.7948 33.5997 21.7213 33.1785 15.2275ZM6.12888 23.6379C3.9666 23.6379 2.20448 20.5419 2.20448 16.7298C2.20448 12.9177 3.95958 9.82174 6.12888 9.82174C8.29819 9.82174 10.0533 12.9177 10.0533 16.7298C10.0463 20.5419 8.29117 23.6379 6.12888 23.6379Z" fill="#00A7FD" fill-opacity="0.5"/>
<path d="M12.3348 26.9587L10.8815 32.4486C12.3137 33.3332 13.795 34.1125 15.2693 34.7794C15.0797 33.1086 14.7638 30.6303 14.4409 28.2645L12.3348 26.9587Z" fill="#00A7FD" fill-opacity="0.5"/>
</g>
</svg>
