<svg width="30" height="26" viewBox="0 0 30 26" fill="none" xmlns="http://www.w3.org/2000/svg">
<path d="M25.3509 19.6836C25.3542 17.727 25.3476 15.6747 25.3509 13.7511C28.0235 13.3452 28.8847 9.65639 26.608 8.13201C26.1989 7.84165 25.7832 7.55129 25.3509 7.25104C25.3542 6.38986 27.1228 4.64441 27.1228 3.77994C27.1228 1.2657 24.4667 0.232954 21.959 0.229654C20.5633 0.117471 18.8938 0.668491 18.1844 1.302C18.1811 1.2987 18.1745 1.2954 18.1712 1.2921L24.5161 19.4758C25.0474 19.6077 25.3509 19.6836 25.3509 19.6836Z" fill="url(#paint0_linear_785_13761)"/>
<path d="M19.5371 1.95204C16.9733 -0.215743 13.7035 -0.647981 11.4235 1.00838L5.77807 4.92821C4.34938 5.92137 2.8283 6.98051 1.40291 7.96377C-0.966143 9.49805 -0.170958 13.441 2.56104 13.8699C3.29353 13.9986 21.2 18.3837 25.3046 19.3867L19.5371 1.95204Z" fill="url(#paint1_linear_785_13761)"/>
<path d="M2.32999 13.8243C2.32999 15.9954 2.33659 18.6614 2.32999 20.8358C2.32999 23.7459 4.44168 25.8576 7.34855 25.8576C8.51658 25.851 10.9615 25.8609 12.1098 25.8576C13.1095 25.8576 15.1222 24.9569 16.122 24.9569C17.6199 24.9536 19.4611 24.9602 20.9459 24.9569C23.7735 24.9536 25.9083 22.8188 25.9083 19.9944C25.9083 19.6512 25.9281 19.1266 25.9281 18.7769L2.32999 13.8243Z" fill="url(#paint2_linear_785_13761)"/>
<path d="M3.8511 14.9981C3.8511 16.9151 3.8577 18.9707 3.8544 20.835C3.8544 23.7452 5.9661 25.8568 8.87297 25.8568C10.041 25.8503 12.4859 25.8601 13.6342 25.8568C14.6339 25.8568 16.6433 25.8568 17.6431 25.8568C19.1411 25.8535 20.9822 25.8601 22.467 25.8568C25.2947 25.8535 27.4295 23.7188 27.4295 20.8944C27.4361 19.0334 27.4295 17.0438 27.4295 15.1301L16.3398 7.56101L3.8511 14.9981Z" fill="url(#paint3_linear_785_13761)"/>
<path d="M28.6863 8.29376C28.2771 8.0034 27.8614 7.71304 27.4291 7.41279C27.4324 6.55161 27.4291 5.61125 27.4291 4.74677C27.4291 2.23254 25.7431 0.543184 23.2387 0.543184C21.843 0.431 20.388 0.889633 19.5367 1.95208C17.4877 0.269324 14.9966 -0.39718 12.7133 1.26578L7.06781 5.18561C5.63912 6.17876 4.11804 7.23791 2.69265 8.22117C0.323598 9.75544 1.12208 13.4872 3.85078 13.9128C3.85078 14.2659 3.85078 14.6321 3.85078 14.9984L16.3428 7.55797L27.4324 15.1271C27.4324 14.7212 27.4324 14.3121 27.4324 13.9128C30.1017 13.507 30.9629 9.81814 28.6863 8.29376Z" fill="url(#paint4_linear_785_13761)"/>
<path d="M12.3147 9.95641L16.3402 7.55766L16.1752 7.44547C14.9412 8.26375 13.3739 8.79828 12.3147 9.95641Z" fill="url(#paint5_linear_785_13761)"/>
<path d="M15.5305 0.607317C16.7678 0.607317 18.0876 1.15504 19.3447 2.18779L19.5823 2.38246L19.7737 2.14489C20.4435 1.31011 21.5554 0.831684 22.8323 0.831684C22.961 0.831684 23.0897 0.838283 23.2183 0.848181H23.2315H23.2447C25.5709 0.848181 27.1349 2.41545 27.1349 4.75151C27.1349 5.09136 27.1349 5.44111 27.1349 5.79086C27.1349 6.33858 27.1349 6.8929 27.1349 7.41753V7.5759L27.2669 7.66499C27.6991 7.96195 28.1082 8.24901 28.5273 8.54596C29.6491 9.29825 29.8339 10.5356 29.6326 11.4429C29.428 12.3602 28.7318 13.4128 27.3922 13.614L27.1349 13.6536V13.911C27.1349 14.1222 27.1349 14.3366 27.1349 14.5544L16.6325 7.38783L16.4774 7.13047L16.3587 7.20306L16.1277 7.04468L15.7878 7.54291L4.15044 14.4686C4.15044 14.2838 4.15044 14.0991 4.15044 13.9143V13.6569L3.89638 13.6173C2.54028 13.4062 1.85068 12.3536 1.65601 11.4396C1.45804 10.5125 1.6692 9.24546 2.86363 8.47337C4.19004 7.55611 5.60553 6.57285 6.94513 5.63909L7.23879 5.43451C7.23879 5.43451 11.8416 2.24058 12.7358 1.62027L12.7391 1.62357L12.8909 1.51468C13.7124 0.910872 14.6033 0.607317 15.5305 0.607317ZM15.5305 0.30706C14.5868 0.30706 13.6333 0.597418 12.7127 1.26722L7.06722 5.18705C5.63853 6.18021 4.11745 7.23935 2.69206 8.22261C0.323003 9.75689 1.12149 13.4886 3.85019 13.9143C3.85019 14.2673 3.85019 14.6336 3.85019 14.9998L16.3422 7.55941L27.4318 15.1285C27.4318 14.7227 27.4318 14.3135 27.4318 13.9143C30.1044 13.5084 30.9656 9.81958 28.6889 8.2952C28.2798 8.00484 27.8641 7.71448 27.4318 7.41423C27.4351 6.55305 27.4318 5.61269 27.4318 4.74821C27.4318 2.23398 25.7458 0.544626 23.2414 0.544626C23.1062 0.534728 22.9676 0.528129 22.8323 0.528129C21.5686 0.528129 20.3082 0.993361 19.5394 1.95352C18.312 0.947168 16.9295 0.30706 15.5305 0.30706Z" fill="url(#paint6_linear_785_13761)"/>
<path d="M2.32999 13.8243V16.1405L3.84446 16.2527L3.82467 13.9134L2.32999 13.8243Z" fill="url(#paint7_linear_785_13761)"/>
<path d="M17.7884 7.18816C16.8679 6.54806 15.6536 6.51506 14.7034 7.11227L3.84798 13.9126H3.82158L3.84138 16.2519H3.84798L14.7364 9.63971C15.6701 9.07219 16.8481 9.10189 17.7521 9.7123L27.423 16.2486V13.9093L17.7884 7.18816Z" fill="url(#paint8_linear_785_13761)"/>
<path d="M27.4296 13.9126L17.7884 7.18816C16.8679 6.54806 15.6536 6.51506 14.7034 7.11227L3.82158 13.9093" stroke="url(#paint9_linear_785_13761)" stroke-width="0.301843" stroke-miterlimit="10"/>
<path d="M2.32654 16.2916L3.85092 16.4005L14.736 9.83112C15.6698 9.2636 16.8477 9.29329 17.7518 9.9037L27.4227 16.4401" stroke="url(#paint10_linear_785_13761)" stroke-width="0.301843" stroke-miterlimit="10"/>
<path d="M20.7843 25.8579H11.8888V17.9292C11.8888 16.8601 12.7533 15.9957 13.8223 15.9957H18.8508C19.9198 15.9957 20.7843 16.8601 20.7843 17.9292V25.8579Z" fill="#11487A"/>
<path d="M18.8507 16.2949C19.7514 16.2949 20.4839 17.0274 20.4839 17.9281V25.5566H12.1923V17.9281C12.1923 17.0274 12.9247 16.2949 13.8255 16.2949H18.8507ZM18.8507 15.9946H13.8222C12.7532 15.9946 11.8887 16.8591 11.8887 17.9281V25.8569H20.7842V17.9281C20.7842 16.8591 19.9197 15.9946 18.8507 15.9946Z" fill="url(#paint11_linear_785_13761)"/>
<path d="M19.0454 25.8568H13.6804V18.875C13.6804 18.3669 14.0929 17.9511 14.6043 17.9511H18.1249C18.633 17.9511 19.0487 18.3636 19.0487 18.875V25.8568H19.0454Z" fill="url(#paint12_linear_785_13761)"/>
<path d="M18.1204 18.2549C18.4635 18.2549 18.7407 18.5321 18.7407 18.8752V25.5567H13.9795V18.8752C13.9795 18.5321 14.2566 18.2549 14.5998 18.2549H18.1204ZM18.1204 17.9514H14.5998C14.0916 17.9514 13.6759 18.3638 13.6759 18.8752V25.857H19.0409V18.8752C19.0442 18.3638 18.6318 17.9514 18.1204 17.9514Z" fill="url(#paint13_linear_785_13761)"/>
<path d="M6.13696 18.741C6.69822 18.741 7.15321 18.286 7.15321 17.7247C7.15321 17.1635 6.69822 16.7085 6.13696 16.7085C5.5757 16.7085 5.12071 17.1635 5.12071 17.7247C5.12071 18.286 5.5757 18.741 6.13696 18.741Z" fill="url(#paint14_linear_785_13761)"/>
<path d="M3.99669 11.9826C4.55795 11.9826 5.01294 11.5276 5.01294 10.9664C5.01294 10.4051 4.55795 9.95012 3.99669 9.95012C3.43543 9.95012 2.98044 10.4051 2.98044 10.9664C2.98044 11.5276 3.43543 11.9826 3.99669 11.9826Z" fill="url(#paint15_linear_785_13761)"/>
<path d="M27.4293 11.9826C27.9905 11.9826 28.4455 11.5276 28.4455 10.9664C28.4455 10.4051 27.9905 9.95012 27.4293 9.95012C26.868 9.95012 26.413 10.4051 26.413 10.9664C26.413 11.5276 26.868 11.9826 27.4293 11.9826Z" fill="url(#paint16_linear_785_13761)"/>
<path d="M25.3045 18.741C25.8658 18.741 26.3208 18.286 26.3208 17.7247C26.3208 17.1635 25.8658 16.7085 25.3045 16.7085C24.7433 16.7085 24.2883 17.1635 24.2883 17.7247C24.2883 18.286 24.7433 18.741 25.3045 18.741Z" fill="url(#paint17_linear_785_13761)"/>
<path d="M8.52656 25.8565H7.62579V22.2072C7.62579 21.6265 7.85016 21.0755 8.2593 20.663L9.09078 19.8184C9.33164 19.5742 9.46362 19.2475 9.46362 18.9044V15.2089H10.3644V18.9044C10.3644 19.4851 10.14 20.0361 9.73089 20.4486L8.89941 21.2932C8.65854 21.5374 8.52656 21.8641 8.52656 22.2072V25.8565Z" fill="url(#paint18_linear_785_13761)"/>
<g opacity="0.49">
<path d="M16.8115 25.8568H15.9108L15.9207 23.2502C15.9207 22.6695 16.145 22.1185 16.5542 21.706L17.3857 20.8614C17.6265 20.6172 17.7585 20.2906 17.7585 19.9474L17.7651 18.2547C17.7651 18.2547 18.5141 18.1558 18.6593 18.5649V19.9474C18.6593 20.5281 18.4349 21.0791 18.0258 21.4916L17.1943 22.3363C16.9534 22.5804 16.8214 22.9071 16.8214 23.2502L16.8115 25.8568Z" fill="#FFFC88"/>
</g>
<path d="M16.713 12.4245C16.713 11.6491 16.0828 11.0189 15.3074 11.0189C14.532 11.0189 13.9018 11.6491 13.9018 12.4245C13.9018 13.0415 14.3044 13.5595 14.8554 13.7509V15.9946H15.7562V13.7509C16.3105 13.5595 16.713 13.0415 16.713 12.4245ZM15.3074 12.926C15.0303 12.926 14.8026 12.7017 14.8026 12.4212C14.8026 12.1441 15.027 11.9164 15.3074 11.9164C15.5846 11.9164 15.8123 12.1408 15.8123 12.4212C15.809 12.7017 15.5846 12.926 15.3074 12.926Z" fill="url(#paint19_linear_785_13761)"/>
<path d="M18.818 15.9947H17.9139V14.6188C17.9139 14.335 18.0393 14.0678 18.2571 13.883L18.9467 13.3023C19.1677 13.1175 19.2931 12.8437 19.2931 12.5566V10.7485L20.1972 11.3589V12.9756C20.1972 13.2627 20.0718 13.5366 19.8507 13.7213L19.1611 14.302C18.9434 14.4835 18.818 14.7541 18.818 15.0378V15.9947Z" fill="url(#paint20_linear_785_13761)"/>
<path d="M23.3166 25.7887C22.9438 25.8579 22.4159 25.8579 22.4159 25.8579V19.5427H23.3166V25.7887Z" fill="url(#paint21_linear_785_13761)"/>
<g opacity="0.49">
<path d="M15.2695 25.8548L14.3654 25.8581V18.2429H15.2695V25.8548Z" fill="#FFFC88"/>
</g>
<defs>
<linearGradient id="paint0_linear_785_13761" x1="26.7024" y1="1.55313" x2="23.6834" y2="7.01287" gradientUnits="userSpaceOnUse">
<stop offset="0.2035" stop-color="#0085B4"/>
<stop offset="0.7211" stop-color="#1D52B1"/>
</linearGradient>
<linearGradient id="paint1_linear_785_13761" x1="-0.000802821" y1="9.69298" x2="25.3055" y2="9.69298" gradientUnits="userSpaceOnUse">
<stop offset="0.2035" stop-color="#0085B4"/>
<stop offset="0.7211" stop-color="#1D52B1"/>
</linearGradient>
<linearGradient id="paint2_linear_785_13761" x1="4.36678" y1="19.8409" x2="2.87193" y2="19.8409" gradientUnits="userSpaceOnUse">
<stop stop-color="#9AB0CD"/>
<stop offset="1" stop-color="#6192BC"/>
</linearGradient>
<linearGradient id="paint3_linear_785_13761" x1="3.85035" y1="16.7078" x2="27.4323" y2="16.7078" gradientUnits="userSpaceOnUse">
<stop stop-color="#E0F1FF"/>
<stop offset="1" stop-color="#9AD0EE"/>
</linearGradient>
<linearGradient id="paint4_linear_785_13761" x1="11.094" y1="0.924707" x2="20.1828" y2="19.4892" gradientUnits="userSpaceOnUse">
<stop offset="0.2035" stop-color="#00DCFD"/>
<stop offset="0.7211" stop-color="#007BFA"/>
</linearGradient>
<linearGradient id="paint5_linear_785_13761" x1="14.1558" y1="8.4053" x2="14.422" y2="8.9489" gradientUnits="userSpaceOnUse">
<stop offset="0.2035" stop-color="#00DCFD"/>
<stop offset="0.7211" stop-color="#007BFA"/>
</linearGradient>
<linearGradient id="paint6_linear_785_13761" x1="15.6428" y1="0.305443" x2="15.6428" y2="15.1283" gradientUnits="userSpaceOnUse">
<stop offset="0.0671" stop-color="#D4F7FF" stop-opacity="0.9"/>
<stop offset="0.0798" stop-color="#D1F5FD" stop-opacity="0.8877"/>
<stop offset="0.401" stop-color="#92BDD6" stop-opacity="0.5779"/>
<stop offset="0.6723" stop-color="#6494B9" stop-opacity="0.3162"/>
<stop offset="0.8802" stop-color="#487AA7" stop-opacity="0.1155"/>
<stop offset="1" stop-color="#3D71A0" stop-opacity="0"/>
</linearGradient>
<linearGradient id="paint7_linear_785_13761" x1="2.33081" y1="15.0376" x2="3.84318" y2="15.0376" gradientUnits="userSpaceOnUse">
<stop offset="0.2284" stop-color="#11487A"/>
<stop offset="0.762" stop-color="#306594"/>
</linearGradient>
<linearGradient id="paint8_linear_785_13761" x1="3.82392" y1="11.4688" x2="27.4304" y2="11.4688" gradientUnits="userSpaceOnUse">
<stop offset="0.2284" stop-color="#11487A"/>
<stop offset="0.762" stop-color="#306594"/>
</linearGradient>
<linearGradient id="paint9_linear_785_13761" x1="15.6304" y1="6.53545" x2="15.6304" y2="14.0394" gradientUnits="userSpaceOnUse">
<stop offset="0.0671" stop-color="#AADEFF"/>
<stop offset="0.2324" stop-color="#92C6EA" stop-opacity="0.8228"/>
<stop offset="0.5788" stop-color="#6498C2" stop-opacity="0.4515"/>
<stop offset="0.846" stop-color="#487CA9" stop-opacity="0.1651"/>
<stop offset="1" stop-color="#3D71A0" stop-opacity="0"/>
</linearGradient>
<linearGradient id="paint10_linear_785_13761" x1="2.31565" y1="12.9185" x2="27.5098" y2="12.9185" gradientUnits="userSpaceOnUse">
<stop offset="0.0671" stop-color="white"/>
<stop offset="0.2414" stop-color="#D1DEE9" stop-opacity="0.8131"/>
<stop offset="0.5059" stop-color="#92AFCA" stop-opacity="0.5297"/>
<stop offset="0.7297" stop-color="#648EB3" stop-opacity="0.2898"/>
<stop offset="0.9012" stop-color="#4879A5" stop-opacity="0.1059"/>
<stop offset="1" stop-color="#3D71A0" stop-opacity="0"/>
</linearGradient>
<linearGradient id="paint11_linear_785_13761" x1="16.337" y1="15.9935" x2="16.337" y2="25.8572" gradientUnits="userSpaceOnUse">
<stop offset="0.0671" stop-color="#AADEFF"/>
<stop offset="0.2324" stop-color="#92C6EA" stop-opacity="0.8228"/>
<stop offset="0.5788" stop-color="#6498C2" stop-opacity="0.4515"/>
<stop offset="0.846" stop-color="#487CA9" stop-opacity="0.1651"/>
<stop offset="1" stop-color="#3D71A0" stop-opacity="0"/>
</linearGradient>
<linearGradient id="paint12_linear_785_13761" x1="13.6781" y1="21.9043" x2="19.0444" y2="21.9043" gradientUnits="userSpaceOnUse">
<stop stop-color="#FE9230"/>
<stop offset="0.6845" stop-color="#FFDD7A"/>
</linearGradient>
<linearGradient id="paint13_linear_785_13761" x1="16.3601" y1="17.9517" x2="16.3601" y2="25.8574" gradientUnits="userSpaceOnUse">
<stop stop-color="white"/>
<stop offset="1" stop-color="white" stop-opacity="0"/>
</linearGradient>
<linearGradient id="paint14_linear_785_13761" x1="5.12035" y1="17.7246" x2="7.1517" y2="17.7246" gradientUnits="userSpaceOnUse">
<stop stop-color="#9AB0CD"/>
<stop offset="1" stop-color="#739CC1"/>
</linearGradient>
<linearGradient id="paint15_linear_785_13761" x1="2.98011" y1="10.9659" x2="5.01145" y2="10.9659" gradientUnits="userSpaceOnUse">
<stop stop-color="#067BB3"/>
<stop offset="1" stop-color="#1167B2"/>
</linearGradient>
<linearGradient id="paint16_linear_785_13761" x1="26.4143" y1="10.9659" x2="28.4456" y2="10.9659" gradientUnits="userSpaceOnUse">
<stop stop-color="#0F6AB2"/>
<stop offset="1" stop-color="#1A58B1"/>
</linearGradient>
<linearGradient id="paint17_linear_785_13761" x1="24.2897" y1="17.7246" x2="26.3211" y2="17.7246" gradientUnits="userSpaceOnUse">
<stop stop-color="#799FC3"/>
<stop offset="1" stop-color="#6192BC"/>
</linearGradient>
<linearGradient id="paint18_linear_785_13761" x1="9.03271" y1="15.8386" x2="8.9752" y2="22.6516" gradientUnits="userSpaceOnUse">
<stop stop-color="#799FC3"/>
<stop offset="1" stop-color="#6192BC"/>
</linearGradient>
<linearGradient id="paint19_linear_785_13761" x1="15.2769" y1="15.8917" x2="15.2194" y2="22.7047" gradientUnits="userSpaceOnUse">
<stop stop-color="#799FC3"/>
<stop offset="1" stop-color="#6192BC"/>
</linearGradient>
<linearGradient id="paint20_linear_785_13761" x1="19.0393" y1="15.9235" x2="18.9817" y2="22.7365" gradientUnits="userSpaceOnUse">
<stop stop-color="#799FC3"/>
<stop offset="1" stop-color="#6192BC"/>
</linearGradient>
<linearGradient id="paint21_linear_785_13761" x1="22.9237" y1="15.9573" x2="22.8662" y2="22.7703" gradientUnits="userSpaceOnUse">
<stop stop-color="#799FC3"/>
<stop offset="1" stop-color="#6192BC"/>
</linearGradient>
</defs>
</svg>
