<svg width="217" height="313" viewBox="0 0 217 313" fill="none" xmlns="http://www.w3.org/2000/svg">
<path d="M50.6949 39H165.305C171.759 39 177 43.1006 177 48.15V212.85C177 217.899 171.759 222 165.305 222H50.6949C44.2411 222 39 217.899 39 212.85V48.15C39 43.1006 44.2411 39 50.6949 39Z" fill="url(#paint0_linear_785_13639)" fill-opacity="0.2"/>
<g opacity="0.25">
<path d="M146.279 119.355C140.581 114.802 132.265 115.732 127.712 121.431L73.8278 188.887L50.719 164.696C47.7777 161.615 43.7009 160.284 39.7648 160.695L40.1432 191.86L65.1769 218.062C67.6748 220.679 71.1244 222.149 74.7254 222.149C74.92 222.149 75.1146 222.149 75.3093 222.139C79.1157 221.966 82.6626 220.16 85.0416 217.186L148.366 137.922C152.908 132.223 151.978 123.907 146.279 119.355Z" fill="#00FFA3" fill-opacity="0.15"/>
</g>
<path d="M50.9323 39H166.068C172.106 39 177 42.8379 177 47.5739V213.426C177 218.162 172.106 222 166.068 222H50.9323C44.8936 222 40 218.162 40 213.426V47.5739C40 42.8464 44.8936 39 50.9323 39Z" stroke="#00D1FF" stroke-width="2.16273"/>
<path d="M44.0811 58.9499V54.073C44.0811 45.541 46.9359 43.3026 54.9488 43.3026H66.66" stroke="#00D1FF" stroke-width="2.16273"/>
<path d="M143.424 52.2132H71.6542C69.2427 52.2132 66.9502 51.1751 65.3498 49.3584L57.0449 39.8964H158.034L149.729 49.3584C148.128 51.1751 145.836 52.2132 143.424 52.2132Z" fill="#00D1FF"/>
<path d="M170.773 169H169V215.131H170.773V169Z" fill="#00D1FF"/>
<path d="M90.766 48.2748C90.5258 48.2748 90.3303 48.2022 90.1794 48.057C90.0286 47.9117 89.9532 47.7218 89.9532 47.4872V42.4095H94.4276V43.415H91.1095V44.7724H94.1762V45.7779H91.1095V47.2693H94.4276V48.2748H90.766ZM99.8996 48.6854L99.2209 48.0151C98.8746 48.2329 98.5087 48.3418 98.1233 48.3418H97.2351C96.7938 48.3418 96.4028 48.2497 96.0621 48.0653C95.7269 47.8754 95.4644 47.6129 95.2744 47.2777C95.0901 46.937 94.9979 46.5432 94.9979 46.0963V44.5881C94.9979 44.1412 95.0901 43.7502 95.2744 43.415C95.4644 43.0743 95.7269 42.8117 96.0621 42.6274C96.4028 42.4375 96.7938 42.3425 97.2351 42.3425H98.1233C98.5646 42.3425 98.9528 42.4375 99.288 42.6274C99.6287 42.8117 99.8913 43.0743 100.076 43.415C100.266 43.7502 100.36 44.1412 100.36 44.5881V46.0292C100.36 46.465 100.232 46.8783 99.975 47.2693L100.629 47.9145L99.8996 48.6854ZM98.1233 47.3196C98.2294 47.3196 98.3356 47.2973 98.4417 47.2526L97.6792 46.4985L98.4082 45.7276L99.1371 46.4482C99.1818 46.303 99.2042 46.1633 99.2042 46.0292V44.6383C99.2042 44.2585 99.1036 43.9513 98.9025 43.7167C98.707 43.482 98.4473 43.3647 98.1233 43.3647H97.2351C96.9111 43.3647 96.6486 43.482 96.4475 43.7167C96.252 43.9513 96.1542 44.2585 96.1542 44.6383V46.046C96.1542 46.4259 96.252 46.7331 96.4475 46.9677C96.6486 47.2023 96.9111 47.3196 97.2351 47.3196H98.1233ZM103.306 48.3418C102.893 48.3418 102.53 48.2553 102.217 48.0821C101.904 47.9033 101.661 47.6548 101.488 47.3364C101.315 47.018 101.228 46.6493 101.228 46.2303V42.4095H102.384V46.1968C102.384 46.532 102.468 46.8029 102.636 47.0096C102.809 47.2163 103.032 47.3196 103.306 47.3196H104.194C104.473 47.3196 104.7 47.2163 104.873 47.0096C105.046 46.8029 105.133 46.532 105.133 46.1968V42.4095H106.289V46.2303C106.289 46.6493 106.202 47.018 106.029 47.3364C105.856 47.6548 105.61 47.9033 105.292 48.0821C104.973 48.2553 104.608 48.3418 104.194 48.3418H103.306ZM107.376 42.4095H108.532V48.2748H107.376V42.4095ZM109.657 42.4095H112.749C113.089 42.4095 113.391 42.4766 113.654 42.6106C113.916 42.7391 114.12 42.9262 114.265 43.172C114.411 43.4122 114.483 43.6887 114.483 44.0015V44.7808C114.483 45.1048 114.408 45.3924 114.257 45.6438C114.106 45.8896 113.894 46.0823 113.62 46.222C113.352 46.356 113.039 46.4231 112.682 46.4231H110.813V48.2748H109.657V42.4095ZM112.665 45.4176C112.86 45.4176 113.02 45.3561 113.143 45.2332C113.265 45.1048 113.327 44.9372 113.327 44.7305V44.0518C113.327 43.8563 113.271 43.7027 113.159 43.591C113.053 43.4737 112.911 43.415 112.732 43.415H110.813V45.4176H112.665ZM115.936 48.2748C115.695 48.2748 115.5 48.2022 115.349 48.057C115.198 47.9117 115.123 47.7218 115.123 47.4872V42.4095H119.597V43.415H116.279V44.7724H119.346V45.7779H116.279V47.2693H119.597V48.2748H115.936ZM121.197 48.2748C120.957 48.2748 120.761 48.2022 120.61 48.057C120.46 47.9117 120.384 47.7218 120.384 47.4872V42.4095H123.183C123.63 42.4095 124.021 42.4933 124.356 42.6609C124.697 42.8285 124.959 43.0659 125.143 43.3731C125.333 43.6803 125.428 44.0351 125.428 44.4372V46.0795C125.428 46.8001 125.241 47.3475 124.867 47.7218C124.493 48.0905 123.943 48.2748 123.216 48.2748H121.197ZM123.183 47.2526C123.54 47.2526 123.811 47.1492 123.996 46.9426C124.18 46.7359 124.272 46.4314 124.272 46.0292V44.4875C124.272 44.1691 124.169 43.915 123.962 43.725C123.755 43.5295 123.484 43.4318 123.149 43.4318H121.541V47.2526H123.183Z" fill="white"/>
<defs>
<linearGradient id="paint0_linear_785_13639" x1="108" y1="39" x2="108" y2="222" gradientUnits="userSpaceOnUse">
<stop offset="0.1875" stop-color="#25C9FF"/>
<stop offset="0.822917" stop-color="#11A1EF"/>
</linearGradient>
</defs>
</svg>
