<svg width="35" height="43" viewBox="0 0 35 43" fill="none" xmlns="http://www.w3.org/2000/svg">
<mask id="mask0_785_13916" style="mask-type:luminance" maskUnits="userSpaceOnUse" x="0" y="0" width="35" height="43">
<path d="M34.7537 0H0V42.0973H34.7537V0Z" fill="white"/>
</mask>
<g mask="url(#mask0_785_13916)">
<path d="M17.1654 0.00285489C15.73 0.00285489 14.37 0.138847 13.1612 0.350391C9.61026 0.969914 8.97578 2.28451 8.97578 4.70216V7.89044H17.3619V8.94816H8.97578H5.83271C3.38484 8.94816 1.25433 10.4139 0.589479 13.1942C-0.181147 16.3824 -0.211368 18.377 0.589479 21.7164C1.17878 24.1945 2.61419 25.9624 5.04695 25.9624H7.93307V22.1395C7.93307 19.3743 10.3204 16.9264 13.1612 16.9264H21.5324C23.8745 16.9264 25.7331 15.0074 25.7331 12.6653V4.68705C25.7331 2.4205 23.814 0.713039 21.5324 0.335281C20.0969 0.0935157 18.6009 -0.0122554 17.1654 0.00285489ZM12.6324 2.57161C13.5088 2.57161 14.2039 3.2969 14.2039 4.1733C14.2039 5.0497 13.5088 5.75989 12.6324 5.75989C11.7711 5.75989 11.061 5.0497 11.061 4.1733C11.061 3.28179 11.7711 2.57161 12.6324 2.57161Z" fill="url(#paint0_linear_785_13916)"/>
<path d="M26.7742 8.94856V12.6657C26.7742 15.5518 24.3263 17.9845 21.5309 17.9845H13.1598C10.863 17.9845 8.97437 19.9489 8.97437 22.2456V30.2239C8.97437 32.4904 10.9537 33.8352 13.1598 34.485C15.8192 35.2707 18.3578 35.4067 21.5309 34.485C23.6464 33.8806 25.7317 32.6415 25.7317 30.2239V27.0356H17.3605V25.9779H25.7317H29.9172C32.35 25.9779 33.2565 24.2855 34.1178 21.7319C34.9791 19.1027 34.9488 16.5793 34.1178 13.2097C33.5134 10.7769 32.3651 8.96368 29.9172 8.96368H26.7742V8.94856ZM22.0598 29.1662C22.9362 29.1662 23.6313 29.8763 23.6313 30.7527C23.6313 31.6291 22.9362 32.3544 22.0598 32.3544C21.1985 32.3544 20.4884 31.6291 20.4884 30.7527C20.4884 29.8763 21.1985 29.1662 22.0598 29.1662Z" fill="url(#paint1_linear_785_13916)"/>
</g>
<defs>
<linearGradient id="paint0_linear_785_13916" x1="-0.968244" y1="1.12978" x2="18.358" y2="17.6014" gradientUnits="userSpaceOnUse">
<stop stop-color="#5A9FD4"/>
<stop offset="1" stop-color="#306998"/>
</linearGradient>
<linearGradient id="paint1_linear_785_13916" x1="25.7908" y1="27.689" x2="18.8552" y2="17.9714" gradientUnits="userSpaceOnUse">
<stop stop-color="#FFD43B"/>
<stop offset="1" stop-color="#FFE873"/>
</linearGradient>
</defs>
</svg>
