<svg width="27" height="25" viewBox="0 0 27 25" fill="none" xmlns="http://www.w3.org/2000/svg">
<path d="M18.2439 12.3115C18.25 12.2963 18.256 12.278 18.2621 12.2628C18.1708 12.2811 18.0795 12.2933 17.9882 12.3054C18.0795 12.2963 18.1708 12.2811 18.2621 12.2628C18.944 10.6889 18.3961 8.96896 18.3565 8.30227L8.79152 8.38141L8.35924 8.38446C8.34706 8.45448 8.32271 8.52449 8.29531 8.58842C8.0883 9.05419 7.82954 11.2552 8.41708 12.4272C8.90111 13.0452 10.8738 12.829 11.5435 12.7164C12.4537 12.4668 12.405 11.9493 13.1539 11.3739C13.2757 11.2856 13.3853 11.2856 13.4918 11.3709C15.0383 12.8473 17.5133 13.0909 18.9867 12.7438C19.1845 12.6981 18.1586 12.4972 18.2439 12.3115ZM11.1843 12.1624C11.233 12.1502 11.2817 12.1289 11.3304 12.1167C11.2817 12.1319 11.233 12.1502 11.1843 12.1624ZM12.3929 11.7209C12.3715 11.7301 12.3502 11.7392 12.3289 11.7483C12.1554 11.8275 11.9788 11.9036 11.7992 11.9675C11.9788 11.9006 12.1554 11.8275 12.3289 11.7483C12.4385 11.6996 12.5511 11.6479 12.6577 11.5931C12.5694 11.6357 12.4842 11.6814 12.3929 11.7209ZM13.7232 10.9325C13.7536 10.9112 13.7841 10.8929 13.8115 10.8838C13.781 10.896 13.7536 10.9112 13.7232 10.9325ZM15.2544 11.6692C14.8252 11.45 14.4203 11.1912 14.0611 10.9294C14.0337 10.9081 14.0063 10.8929 13.9789 10.8807C14.0063 10.8899 14.0337 10.9081 14.0611 10.9294C14.4203 11.1912 14.8252 11.45 15.2544 11.6692C15.4249 11.7575 15.6015 11.8397 15.7811 11.9127C15.6015 11.8397 15.428 11.7575 15.2544 11.6692Z" fill="url(#paint0_linear_785_13800)"/>
<path d="M12.3926 11.7206C12.4809 11.6811 12.5691 11.6354 12.6574 11.5928C12.5478 11.6476 12.4382 11.6993 12.3286 11.748C12.35 11.7389 12.3713 11.7298 12.3926 11.7206Z" fill="url(#paint1_linear_785_13800)"/>
<path d="M8.86487 8.14656C8.84052 8.20135 8.81617 8.28354 8.79181 8.38096L18.3568 8.30182C18.3477 8.17091 18.3568 8.07654 18.4025 8.03696C19.267 7.2759 19.9916 6.11605 20.0951 4.98359C20.0829 4.52391 19.8089 4.19818 19.404 3.96073C18.5425 3.45539 17.0934 3.37015 16.3476 3.33057C15.9853 3.3671 15.8392 2.5756 15.3187 1.78714C15.1086 1.4675 15.0569 0.310692 14.8377 0.0610648C14.8377 0.0610648 13.4191 -0.127676 12.8072 0.158483C12.7067 0.20719 12.6062 0.268067 12.5058 0.350262C11.7082 1.02608 11.0354 2.28945 10.5057 3.26665C10.5118 3.26665 10.5209 3.2636 10.527 3.2636C10.4053 3.3671 10.2135 3.28491 10.0065 3.33666C9.18148 3.40972 8.09164 3.50714 7.29405 3.9516C7.09617 4.06424 6.91048 4.1921 6.75522 4.35344C6.59996 4.51783 6.52081 4.74005 6.53299 4.96533C6.59996 6.1404 7.36711 7.29721 8.24385 8.03696C8.35344 8.13438 8.37475 8.25615 8.35649 8.37792L8.78877 8.37488C8.81617 8.28355 8.84052 8.20135 8.86487 8.14656ZM8.93185 7.90301C8.93185 7.90606 8.93185 7.91215 8.93185 7.91519C8.93185 7.9091 8.93185 7.90606 8.93185 7.90301ZM8.90749 8.02479C8.90749 8.03088 8.90445 8.03392 8.90141 8.04001C8.90445 8.03696 8.90749 8.03088 8.90749 8.02479Z" fill="url(#paint2_linear_785_13800)"/>
<path d="M21.6174 4.9863C21.6052 4.52662 21.3312 4.20089 20.9263 3.96344C20.0648 3.4581 18.6157 3.37286 17.8699 3.33328C17.5076 3.36982 17.3615 2.57831 16.841 1.78985C16.6309 1.47021 16.4148 1.181 16.1925 0.931377C15.5837 0.243379 14.9414 -0.124973 14.3264 0.161185C14.226 0.209893 14.1255 0.270779 14.025 0.352974C13.2274 1.02879 12.5547 2.29216 12.025 3.26936C12.0311 3.26936 12.0402 3.26631 12.0463 3.26631C11.9245 3.36981 11.7327 3.28762 11.5257 3.33937C10.7007 3.41243 9.6109 3.50985 8.81331 3.95431C8.61543 4.06695 8.42973 4.1948 8.27448 4.35614C8.11922 4.52053 8.04007 4.74276 8.05225 4.96804C8.11922 6.14311 8.88637 7.29992 9.76311 8.03967C9.93663 8.19188 9.88792 8.41107 9.80877 8.58459C9.60176 9.05036 9.343 11.2513 9.93054 12.4234C10.4146 13.0414 11.4618 12.7126 12.1285 12.5999C13.0387 12.3503 13.9185 11.9454 14.6674 11.3701C14.7891 11.2818 14.8987 11.2818 15.0053 11.367C16.1864 12.2255 17.8364 13.0292 19.3098 12.6821C19.5077 12.6365 19.6751 12.4934 19.7573 12.3077C19.7634 12.2925 19.7695 12.2742 19.7756 12.259C19.6843 12.2773 19.5929 12.2894 19.5016 12.3016C19.5929 12.2925 19.6843 12.2773 19.7756 12.259C20.5915 10.3746 19.6447 8.27408 19.9156 8.03359C20.7893 7.27862 21.5139 6.11876 21.6174 4.9863ZM14.1803 11.5923C13.9002 11.7354 13.6141 11.8602 13.3188 11.9667C13.5197 11.8937 13.7176 11.8115 13.9154 11.7202C14.0068 11.6806 14.092 11.6349 14.1803 11.5923Z" fill="url(#paint3_linear_785_13800)"/>
<path d="M14.7603 0.286088C15.1348 0.286088 15.5609 0.553982 16.0267 1.07759C16.2337 1.30895 16.4438 1.58902 16.6538 1.91171C16.8426 2.19787 16.9796 2.48403 17.1013 2.73974C17.3205 3.19638 17.494 3.55864 17.8441 3.55864C17.8533 3.55864 17.8624 3.55864 17.8715 3.55864C18.5169 3.59213 19.9903 3.67432 20.8153 4.15836C21.1928 4.38059 21.3815 4.64848 21.3968 4.98334C21.3024 5.97272 20.6844 7.08082 19.7803 7.87537C19.5946 8.03976 19.6463 8.34419 19.7407 8.90128C19.8807 9.73845 20.0938 11.0018 19.5854 12.1769C19.5793 12.1891 19.5763 12.2012 19.5672 12.2225C19.5093 12.3504 19.3997 12.4417 19.2688 12.4752C19.0527 12.527 18.8213 12.5513 18.5839 12.5513C17.2109 12.5513 15.841 11.702 15.153 11.2027C15.0617 11.1297 14.9582 11.0901 14.8547 11.0901C14.7512 11.0901 14.6477 11.1266 14.5442 11.2027C13.8592 11.7294 13.0099 12.1403 12.0936 12.393C11.9961 12.4082 11.8926 12.4295 11.7831 12.4509C11.4878 12.5087 11.1559 12.5757 10.8546 12.5757C10.5106 12.5757 10.2792 12.4904 10.13 12.3108C9.60338 11.224 9.82865 9.11438 10.0235 8.6821C10.2214 8.23764 10.0448 7.99105 9.91694 7.87842C9.17414 7.24826 8.35524 6.15234 8.28523 4.96204C8.27609 4.79765 8.33394 4.63326 8.44657 4.51454C8.56834 4.38668 8.72055 4.27099 8.9306 4.15531C9.67949 3.73521 10.7084 3.64084 11.5365 3.56777H11.5517C11.5639 3.56777 11.576 3.56473 11.5852 3.56169C11.6187 3.55256 11.6582 3.54951 11.71 3.54951C11.7313 3.54951 11.7526 3.54951 11.7739 3.54951C11.7983 3.54951 11.8196 3.54951 11.8439 3.54951C11.9474 3.54951 12.0783 3.53733 12.194 3.44296C12.2397 3.40338 12.2671 3.35164 12.2701 3.2938C12.7877 2.34095 13.43 1.15674 14.1697 0.526585C14.2458 0.462656 14.328 0.40786 14.4224 0.365241C14.532 0.313489 14.6446 0.286088 14.7603 0.286088ZM14.7603 0.0669022C14.6142 0.0669022 14.4711 0.0973468 14.328 0.16432C14.2276 0.213028 14.1271 0.273914 14.0267 0.356108C13.2291 1.03193 12.5563 2.29528 12.0266 3.27248C12.0327 3.27248 12.0418 3.26945 12.0479 3.26945C11.9931 3.31815 11.92 3.32424 11.8409 3.32424C11.7983 3.32424 11.7526 3.32119 11.7069 3.32119C11.6491 3.32119 11.5882 3.32424 11.5273 3.33946C10.7023 3.41252 9.61251 3.50994 8.81492 3.9544C8.61705 4.06704 8.43135 4.19489 8.27609 4.35623C8.12084 4.52062 8.04169 4.74285 8.05387 4.96813C8.12084 6.1432 8.88798 7.30001 9.76472 8.03976C9.93825 8.19197 9.88954 8.41116 9.81039 8.58468C9.60338 9.05045 9.34462 11.2514 9.93216 12.4235C10.1513 12.7035 10.4832 12.7888 10.8454 12.7888C11.2838 12.7888 11.7648 12.6609 12.1331 12.6C13.0434 12.3504 13.9232 11.9455 14.672 11.3702C14.7329 11.3245 14.7908 11.3032 14.8486 11.3032C14.9034 11.3032 14.9582 11.3245 15.0099 11.3671C15.9963 12.0855 17.3144 12.7644 18.5778 12.7644C18.8244 12.7644 19.071 12.737 19.3114 12.6822C19.5093 12.6366 19.6768 12.4935 19.759 12.3078C19.765 12.2926 19.7711 12.2743 19.7772 12.2591C20.5931 10.3747 19.6463 8.27417 19.9173 8.03367C20.7818 7.27261 21.5063 6.11276 21.6098 4.98031C21.5977 4.52063 21.3237 4.19489 20.9188 3.95744C20.0573 3.45209 18.6082 3.36685 17.8624 3.32728C17.8533 3.32728 17.8472 3.32728 17.838 3.32728C17.494 3.32728 17.3418 2.55405 16.8334 1.78081C16.6234 1.46116 16.4072 1.17196 16.185 0.922332C15.7253 0.404812 15.2383 0.0669022 14.7603 0.0669022Z" fill="url(#paint4_linear_785_13800)"/>
<path d="M16.7251 24.9996H8.28647V15.3098C8.28647 14.7497 8.74006 14.293 9.30324 14.293H15.7114C16.2715 14.293 16.7281 14.7466 16.7281 15.3098V24.9996H16.7251Z" fill="url(#paint5_linear_785_13800)"/>
<path d="M8.43862 24.9997H0.718437C0.322687 24.9997 0 24.677 0 24.2813V17.864C0 17.38 0.392706 16.9843 0.879784 16.9843H7.56188C8.04591 16.9843 8.44166 17.377 8.44166 17.864V24.9997H8.43862Z" fill="url(#paint6_linear_785_13800)"/>
<path d="M23.7966 24.9993H15.358V20.6126C15.358 20.2259 15.6715 19.9124 16.0581 19.9124H23.0995C23.4861 19.9124 23.7996 20.2259 23.7996 20.6126V24.9993H23.7966Z" fill="url(#paint7_linear_785_13800)"/>
<path d="M18.3996 24.9996H9.96097V15.3098C9.96097 14.7497 10.4146 14.2931 10.9777 14.2931H17.3859C17.946 14.2931 18.4026 14.7466 18.4026 15.3098V24.9996H18.3996Z" fill="url(#paint8_linear_785_13800)"/>
<path d="M17.3859 14.5457C17.806 14.5457 18.1469 14.8867 18.1469 15.3068V24.7439H10.2167V15.3068C10.2167 14.8867 10.5576 14.5457 10.9777 14.5457H17.3859ZM17.3859 14.2931H10.9777C10.4176 14.2931 9.96097 14.7466 9.96097 15.3098V24.9996H18.3996V15.3098C18.3996 14.7466 17.946 14.2931 17.3859 14.2931Z" fill="url(#paint9_linear_785_13800)"/>
<path d="M9.96096 24.9997H2.24078C1.84503 24.9997 1.52234 24.677 1.52234 24.2813V17.864C1.52234 17.38 1.91505 16.9843 2.40212 16.9843H9.08422C9.56825 16.9843 9.964 17.377 9.964 17.864V24.9997H9.96096Z" fill="url(#paint10_linear_785_13800)"/>
<path d="M9.0843 17.3072C9.39177 17.3072 9.6414 17.5568 9.6414 17.8643V24.6804H2.24391C2.02472 24.6804 1.84816 24.5038 1.84816 24.2846V17.8674C1.84816 17.5599 2.09778 17.3103 2.40525 17.3103H9.0843M9.0843 16.9845H2.39916C1.91513 16.9845 1.51938 17.3772 1.51938 17.8643V24.2816C1.51938 24.6773 1.84207 25 2.23782 25H9.96104V17.8643C9.96104 17.3772 9.56834 16.9845 9.0843 16.9845Z" fill="url(#paint11_linear_785_13800)"/>
<path d="M26.1228 24.9993H18.4026V20.6126C18.4026 20.2259 18.7161 19.9124 19.1028 19.9124H26.1441C26.5307 19.9124 26.8443 20.2259 26.8443 20.6126V24.2778C26.8412 24.6766 26.5185 24.9993 26.1228 24.9993Z" fill="url(#paint12_linear_785_13800)"/>
<path d="M26.1411 20.2347C26.3481 20.2347 26.5186 20.4052 26.5186 20.6122V24.2774C26.5186 24.4966 26.342 24.6732 26.1229 24.6732H18.7254V20.6091C18.7254 20.4021 18.8958 20.2316 19.1028 20.2316H26.1411M26.1411 19.912H19.0998C18.7132 19.912 18.3996 20.2255 18.3996 20.6122V24.9989H26.1198C26.5156 24.9989 26.8383 24.6762 26.8383 24.2805V20.6152C26.8413 20.2255 26.5277 19.912 26.1411 19.912Z" fill="url(#paint13_linear_785_13800)"/>
<g opacity="0.6">
<path opacity="0.4" d="M6.3629 25H5.53183V22.2541C5.53183 21.8157 5.73884 21.4017 6.11632 21.0912L6.88347 20.455C7.1057 20.2693 7.22747 20.0257 7.22747 19.767V16.9845H8.05854V19.767C8.05854 20.2053 7.85154 20.6193 7.47405 20.9299L6.70691 21.5661C6.48468 21.7518 6.3629 21.9953 6.3629 22.2541V25Z" fill="url(#paint14_linear_785_13800)"/>
</g>
<path opacity="0.6" d="M15.6662 19.2307C15.6662 18.4331 14.9995 17.7816 14.1806 17.7816C13.3617 17.7816 12.695 18.43 12.695 19.2307C12.695 19.8669 13.1182 20.3996 13.7027 20.5945V24.9995H14.6555V20.5945C15.2431 20.3996 15.6662 19.8639 15.6662 19.2307ZM14.1806 19.7482C13.8884 19.7482 13.6479 19.5168 13.6479 19.2307C13.6479 18.9445 13.8853 18.7131 14.1806 18.7131C14.4729 18.7131 14.7134 18.9445 14.7134 19.2307C14.7134 19.5168 14.4759 19.7482 14.1806 19.7482Z" fill="url(#paint15_linear_785_13800)"/>
<g opacity="0.6">
<path d="M23.9039 20.281H23.0728V24.9995H23.9039V20.281Z" fill="url(#paint16_linear_785_13800)"/>
</g>
<path d="M12.6433 5.11085H11.8122V12.0365H12.6433V5.11085Z" fill="url(#paint17_linear_785_13800)"/>
<path d="M18.2625 7.31876C18.2625 6.59119 17.681 6.0006 16.9656 6.0006C16.2502 6.0006 15.6688 6.59119 15.6688 7.31876C15.6688 7.89716 16.0402 8.38424 16.5485 8.5608V12.2778C16.5485 12.2778 17.1117 12.5335 17.3827 12.5792L17.3796 8.5608C17.8911 8.38119 18.2625 7.89412 18.2625 7.31876ZM16.9626 7.79061C16.7068 7.79061 16.4968 7.57752 16.4968 7.31876C16.4968 7.06 16.7038 6.84691 16.9626 6.84691C17.2183 6.84691 17.4283 7.06 17.4283 7.31876C17.4283 7.57752 17.2213 7.79061 16.9626 7.79061Z" fill="url(#paint18_linear_785_13800)"/>
<defs>
<linearGradient id="paint0_linear_785_13800" x1="11.6141" y1="13.7395" x2="16.5354" y2="6.18174" gradientUnits="userSpaceOnUse">
<stop stop-color="#BD4512"/>
<stop offset="0.1177" stop-color="#BF4912"/>
<stop offset="0.2263" stop-color="#C45412"/>
<stop offset="0.3314" stop-color="#CE6713"/>
<stop offset="0.4343" stop-color="#DA8113"/>
<stop offset="0.5347" stop-color="#EBA213"/>
<stop offset="0.6238" stop-color="#FDC714"/>
<stop offset="0.6489" stop-color="#F8BC17"/>
<stop offset="0.7442" stop-color="#E6971F"/>
<stop offset="0.8327" stop-color="#D97C25"/>
<stop offset="0.9112" stop-color="#D16C29"/>
<stop offset="0.9715" stop-color="#CE662A"/>
</linearGradient>
<linearGradient id="paint1_linear_785_13800" x1="12.4216" y1="11.7803" x2="12.5931" y2="11.5169" gradientUnits="userSpaceOnUse">
<stop stop-color="#BD4512"/>
<stop offset="0.1177" stop-color="#BF4912"/>
<stop offset="0.2263" stop-color="#C45412"/>
<stop offset="0.3314" stop-color="#CE6713"/>
<stop offset="0.4343" stop-color="#DA8113"/>
<stop offset="0.5347" stop-color="#EBA213"/>
<stop offset="0.6238" stop-color="#FDC714"/>
<stop offset="0.6489" stop-color="#F8BC17"/>
<stop offset="0.7442" stop-color="#E6971F"/>
<stop offset="0.8327" stop-color="#D97C25"/>
<stop offset="0.9112" stop-color="#D16C29"/>
<stop offset="0.9715" stop-color="#CE662A"/>
</linearGradient>
<linearGradient id="paint2_linear_785_13800" x1="10.8413" y1="9.04409" x2="16.6415" y2="0.136743" gradientUnits="userSpaceOnUse">
<stop stop-color="#BD4512"/>
<stop offset="0.1177" stop-color="#BF4912"/>
<stop offset="0.2263" stop-color="#C45412"/>
<stop offset="0.3314" stop-color="#CE6713"/>
<stop offset="0.4343" stop-color="#DA8113"/>
<stop offset="0.5347" stop-color="#EBA213"/>
<stop offset="0.6238" stop-color="#FDC714"/>
<stop offset="0.6489" stop-color="#F8BC17"/>
<stop offset="0.7442" stop-color="#E6971F"/>
<stop offset="0.8327" stop-color="#D97C25"/>
<stop offset="0.9112" stop-color="#D16C29"/>
<stop offset="0.9715" stop-color="#CE662A"/>
</linearGradient>
<linearGradient id="paint3_linear_785_13800" x1="9.31801" y1="4.18953" x2="21.5699" y2="12.147" gradientUnits="userSpaceOnUse">
<stop stop-color="#FBF600"/>
<stop offset="0.9715" stop-color="#FF7E34"/>
</linearGradient>
<linearGradient id="paint4_linear_785_13800" x1="14.8366" y1="12.7932" x2="14.8366" y2="0.0661716" gradientUnits="userSpaceOnUse">
<stop stop-color="white" stop-opacity="0.1"/>
<stop offset="0.8625" stop-color="white" stop-opacity="0.8762"/>
<stop offset="1" stop-color="white"/>
</linearGradient>
<linearGradient id="paint5_linear_785_13800" x1="7.90615" y1="16.8899" x2="18.8767" y2="24.015" gradientUnits="userSpaceOnUse">
<stop stop-color="#9AB0CD"/>
<stop offset="1" stop-color="#6192BC"/>
</linearGradient>
<linearGradient id="paint6_linear_785_13800" x1="4.17715" y1="11.3032" x2="4.26415" y2="31.4822" gradientUnits="userSpaceOnUse">
<stop offset="0.2035" stop-color="#0085B4"/>
<stop offset="0.7211" stop-color="#1D52B1"/>
</linearGradient>
<linearGradient id="paint7_linear_785_13800" x1="19.5263" y1="11.2301" x2="19.6133" y2="31.409" gradientUnits="userSpaceOnUse">
<stop offset="0.2035" stop-color="#0085B4"/>
<stop offset="0.7211" stop-color="#1D52B1"/>
</linearGradient>
<linearGradient id="paint8_linear_785_13800" x1="9.58065" y1="16.8899" x2="20.5512" y2="24.0151" gradientUnits="userSpaceOnUse">
<stop stop-color="#E0F1FF"/>
<stop offset="1" stop-color="#9AD0EE"/>
</linearGradient>
<linearGradient id="paint9_linear_785_13800" x1="14.1812" y1="14.2928" x2="14.1812" y2="24.9989" gradientUnits="userSpaceOnUse">
<stop offset="0.0671" stop-color="#D4F7FF" stop-opacity="0.9"/>
<stop offset="0.0798" stop-color="#D1F5FD" stop-opacity="0.8877"/>
<stop offset="0.401" stop-color="#92BDD6" stop-opacity="0.5779"/>
<stop offset="0.6723" stop-color="#6494B9" stop-opacity="0.3162"/>
<stop offset="0.8802" stop-color="#487AA7" stop-opacity="0.1155"/>
<stop offset="1" stop-color="#3D71A0" stop-opacity="0"/>
</linearGradient>
<linearGradient id="paint10_linear_785_13800" x1="5.69949" y1="11.3032" x2="5.78649" y2="31.4822" gradientUnits="userSpaceOnUse">
<stop offset="0.2035" stop-color="#00DCFD"/>
<stop offset="0.7211" stop-color="#007BFA"/>
</linearGradient>
<linearGradient id="paint11_linear_785_13800" x1="1.86186" y1="17.1586" x2="9.83203" y2="25.1288" gradientUnits="userSpaceOnUse">
<stop offset="0.0671" stop-color="#D4F7FF" stop-opacity="0.9"/>
<stop offset="0.0798" stop-color="#D1F5FD" stop-opacity="0.8877"/>
<stop offset="0.401" stop-color="#92BDD6" stop-opacity="0.5779"/>
<stop offset="0.6723" stop-color="#6494B9" stop-opacity="0.3162"/>
<stop offset="0.8802" stop-color="#487AA7" stop-opacity="0.1155"/>
<stop offset="1" stop-color="#3D71A0" stop-opacity="0"/>
</linearGradient>
<linearGradient id="paint12_linear_785_13800" x1="22.571" y1="11.2353" x2="22.6579" y2="31.4021" gradientUnits="userSpaceOnUse">
<stop offset="0.2035" stop-color="#00DCFD"/>
<stop offset="0.7211" stop-color="#007BFA"/>
</linearGradient>
<linearGradient id="paint13_linear_785_13800" x1="19.3422" y1="19.3817" x2="25.6891" y2="25.7287" gradientUnits="userSpaceOnUse">
<stop offset="0.0671" stop-color="#D4F7FF" stop-opacity="0.9"/>
<stop offset="0.0798" stop-color="#D1F5FD" stop-opacity="0.8877"/>
<stop offset="0.401" stop-color="#92BDD6" stop-opacity="0.5779"/>
<stop offset="0.6723" stop-color="#6494B9" stop-opacity="0.3162"/>
<stop offset="0.8802" stop-color="#487AA7" stop-opacity="0.1155"/>
<stop offset="1" stop-color="#3D71A0" stop-opacity="0"/>
</linearGradient>
<linearGradient id="paint14_linear_785_13800" x1="6.82487" y1="17.4566" x2="6.78158" y2="22.5874" gradientUnits="userSpaceOnUse">
<stop stop-color="#067BB3"/>
<stop offset="1" stop-color="#1167B2"/>
</linearGradient>
<linearGradient id="paint15_linear_785_13800" x1="14.1342" y1="24.8494" x2="14.0508" y2="34.7294" gradientUnits="userSpaceOnUse">
<stop stop-color="#799FC3"/>
<stop offset="1" stop-color="#6192BC"/>
</linearGradient>
<linearGradient id="paint16_linear_785_13800" x1="23.5331" y1="17.601" x2="23.4901" y2="22.6927" gradientUnits="userSpaceOnUse">
<stop stop-color="#067BB3"/>
<stop offset="1" stop-color="#1167B2"/>
</linearGradient>
<linearGradient id="paint17_linear_785_13800" x1="13.1465" y1="6.00637" x2="11.1034" y2="11.7271" gradientUnits="userSpaceOnUse">
<stop stop-color="#FFFF59"/>
<stop offset="1" stop-color="#FFFF39" stop-opacity="0"/>
</linearGradient>
<linearGradient id="paint18_linear_785_13800" x1="15.9519" y1="4.64192" x2="18.6541" y2="14.0561" gradientUnits="userSpaceOnUse">
<stop stop-color="#FFFF59"/>
<stop offset="1" stop-color="#FFFF39" stop-opacity="0"/>
</linearGradient>
</defs>
</svg>
