<svg width="33" height="36" viewBox="0 0 33 36" fill="none" xmlns="http://www.w3.org/2000/svg">
<g opacity="0.8">
<path d="M25.9579 32.5936C25.7079 32.4686 25.4964 32.3917 25.3138 32.2763C24.3427 31.6225 23.3812 30.9591 22.4198 30.2957C22.2371 30.1707 22.1024 30.1611 21.8909 30.2572C21.3044 30.5265 20.6891 30.738 20.1026 30.9976C19.968 31.0553 19.8142 31.2283 19.7854 31.3725C19.5642 32.4782 19.3623 33.5839 19.1604 34.6992C19.0258 35.4587 18.795 35.6607 18.0355 35.6703C16.8625 35.6703 15.6991 35.6703 14.5261 35.6703C13.8627 35.6703 13.6128 35.4587 13.4878 34.8146C13.2666 33.6608 13.0648 32.5167 12.8244 31.3629C12.7956 31.2091 12.6417 31.0264 12.4974 30.9591C11.9398 30.6899 11.363 30.4592 10.7861 30.238C10.6515 30.1899 10.4304 30.2092 10.3054 30.2861C9.35356 30.9207 8.42089 31.5744 7.47866 32.209C6.88255 32.6128 6.57492 32.584 6.06534 32.084C5.22887 31.2476 4.39242 30.4111 3.55595 29.565C3.10406 29.1131 3.07521 28.7766 3.43095 28.2574C4.07513 27.296 4.72884 26.3441 5.39225 25.3923C5.52685 25.1904 5.53651 25.0461 5.43075 24.825C5.17115 24.277 4.94043 23.7193 4.73852 23.1521C4.65199 22.9117 4.54625 22.7963 4.27704 22.7483C3.12329 22.5463 1.97908 22.3252 0.834945 22.1041C0.25807 21.9887 0.0369671 21.7291 0.0273525 21.1522C0.017738 19.9119 0.017738 18.6717 0.0273525 17.4218C0.0273525 16.8449 0.248455 16.5853 0.834945 16.4699C1.97908 16.2488 3.13291 16.0277 4.27704 15.8257C4.53664 15.7777 4.65199 15.6623 4.73852 15.4219C4.94043 14.8643 5.16152 14.3163 5.4115 13.7875C5.51726 13.5567 5.4981 13.4125 5.3635 13.2202C4.7097 12.278 4.06552 11.3357 3.43095 10.3935C3.02714 9.7974 2.34448 10.0762 3.16172 6.73034C3.70013 6.19192 6.82487 5.96117 7.47866 6.40345C8.38243 7.01878 9.29577 7.64373 10.1995 8.26868C10.4303 8.43213 10.6034 8.46097 10.8823 8.32637C11.3918 8.06677 11.9398 7.86486 12.4782 7.66296C12.6993 7.57643 12.8147 7.48028 12.8532 7.2303C13.0551 6.06694 13.2859 4.90357 13.507 3.7402C13.6128 3.17294 13.882 2.93258 14.4589 2.93258C15.6895 2.92296 16.9105 2.92296 18.1412 2.93258C18.7662 2.93258 19.0354 3.15371 19.1508 3.77866C19.3623 4.90357 19.5738 6.01886 19.7758 7.14377C19.8238 7.40336 19.9295 7.53797 20.1987 7.63411C20.7948 7.83602 21.3622 8.12446 21.9583 8.34559C22.0929 8.39366 22.314 8.38405 22.439 8.30714C23.4293 7.65334 24.4003 6.98032 25.3714 6.3073C25.9098 5.94194 29.1307 6.15347 29.5922 6.61497C29.5922 6.61497 29.6211 7.45143 29.7268 8.82632C29.823 9.6051 29.7268 9.77817 29.3807 10.2974C28.7173 11.278 28.0539 12.2587 27.3713 13.2298C27.2367 13.4221 27.2367 13.5567 27.3328 13.7586C27.5828 14.3066 27.8231 14.8643 28.025 15.4315C28.1116 15.6815 28.2269 15.7873 28.4865 15.8354C29.6403 16.0373 30.7845 16.2584 31.9286 16.4795C32.5151 16.5949 32.7362 16.8545 32.7362 17.4314C32.7458 18.6717 32.7458 19.9119 32.7362 21.1618C32.7362 21.7387 32.5055 21.9983 31.9286 22.1137C30.7845 22.3348 29.6306 22.556 28.4865 22.7675C28.2461 22.8059 28.1308 22.8925 28.0443 23.1328C27.8328 23.7289 27.5828 24.3154 27.3136 24.8827C27.2078 25.1134 27.2463 25.2577 27.3713 25.45C28.0251 26.3922 28.6692 27.3344 29.3037 28.2766C29.6883 28.8535 29.6596 29.1708 29.1789 29.6611C28.3328 30.5072 27.4963 31.3629 26.631 32.1994C26.4387 32.3532 26.1886 32.4494 25.9579 32.5936ZM11.363 19.2582C11.3534 22.0368 13.5647 24.277 16.3337 24.2962C19.1219 24.3154 21.3717 22.0848 21.3813 19.2966C21.3909 16.5084 19.1604 14.2586 16.3722 14.2586C13.6032 14.2586 11.3726 16.4795 11.363 19.2582Z" fill="url(#paint0_linear_785_13894)" fill-opacity="0.6"/>
<path d="M25.9576 29.709C25.7076 29.584 25.4962 29.507 25.3135 29.3917C24.3424 28.7379 23.381 28.0745 22.4195 27.4111C22.2368 27.2861 22.1022 27.2765 21.8907 27.3726C21.3042 27.6418 20.6889 27.8533 20.1024 28.1129C19.9678 28.1706 19.814 28.3437 19.7851 28.4879C19.564 29.5936 19.3621 30.6993 19.1602 31.8145C19.0256 32.5741 18.7948 32.776 18.0352 32.7856C16.8622 32.7856 15.6988 32.7856 14.5259 32.7856C13.8625 32.7856 13.6125 32.5741 13.4875 31.9299C13.2664 30.7762 13.0645 29.632 12.8242 28.4783C12.7953 28.3244 12.6414 28.1418 12.4972 28.0745C11.9396 27.8053 11.3628 27.5745 10.7859 27.3534C10.6513 27.3053 10.4302 27.3245 10.3052 27.4014C9.35332 28.036 8.42064 28.6898 7.47841 29.3244C6.88231 29.7282 6.57467 29.6993 6.0651 29.1994C5.22863 28.3629 4.39217 27.5264 3.5557 26.6804C3.10382 26.2285 3.07497 25.892 3.43071 25.3728C4.07489 24.4113 4.7286 23.4595 5.39201 22.5076C5.52661 22.3057 5.53626 22.1615 5.4305 21.9404C5.17091 21.3923 4.94019 20.8347 4.73828 20.2674C4.65175 20.0271 4.54601 19.9117 4.2768 19.8636C3.12305 19.6617 1.97884 19.4406 0.834701 19.2194C0.257826 19.1041 0.036723 18.8445 0.0271084 18.2676C0.0174938 17.0273 0.0174938 15.787 0.0271084 14.5371C0.0271084 13.9602 0.248211 13.7007 0.834701 13.5853C1.97884 13.3641 3.13266 13.143 4.2768 12.9411C4.53639 12.893 4.65175 12.7776 4.73828 12.5373C4.94019 11.9796 5.16127 11.4316 5.41125 10.9028C5.51701 10.6721 5.49786 10.5278 5.36325 10.3355C4.70946 9.39331 4.06527 8.45108 3.43071 7.50885C3.0269 6.91275 3.05574 6.58585 3.54608 6.09551C4.36332 5.27827 5.18049 4.46103 5.99773 3.64379C6.53615 3.10537 6.82461 3.07653 7.46879 3.5188C8.37256 4.13413 9.28602 4.75908 10.1898 5.38403C10.4205 5.54748 10.5936 5.57632 10.8724 5.44172C11.382 5.18212 11.93 4.98022 12.4684 4.77831C12.6896 4.69178 12.8049 4.59563 12.8433 4.34565C13.0452 3.18229 13.276 2.01892 13.4972 0.855555C13.6029 0.288294 13.8721 0.047929 14.449 0.047929C15.6797 0.0383144 16.9007 0.0383144 18.1313 0.047929C18.7563 0.047929 19.0255 0.269066 19.1409 0.894014C19.3524 2.01892 19.564 3.13421 19.7659 4.25912C19.814 4.51872 19.9197 4.65332 20.1889 4.74947C20.785 4.95137 21.3523 5.23981 21.9484 5.46095C22.083 5.50902 22.3042 5.4994 22.4291 5.42249C23.4194 4.76869 24.3904 4.09567 25.3615 3.42265C25.8999 3.0573 26.2461 3.08614 26.7076 3.54764C27.5537 4.39373 28.4094 5.23981 29.2459 6.09551C29.6881 6.53778 29.717 6.89352 29.3612 7.41271C28.6978 8.3934 28.0344 9.37409 27.3518 10.3452C27.2172 10.5375 27.2172 10.6721 27.3133 10.874C27.5633 11.422 27.8036 11.9796 28.0055 12.5469C28.0921 12.7969 28.2074 12.9026 28.467 12.9507C29.6208 13.1526 30.765 13.3738 31.9091 13.5949C32.4956 13.7103 32.7167 13.9699 32.7167 14.5467C32.7263 15.787 32.7263 17.0273 32.7167 18.2772C32.7167 18.8541 32.486 19.1137 31.9091 19.229C30.765 19.4502 29.6112 19.6713 28.467 19.8828C28.2267 19.9213 28.1113 20.0078 28.0248 20.2482C27.8133 20.8443 27.5633 21.4308 27.2941 21.998C27.1883 22.2288 27.2268 22.373 27.3518 22.5653C28.0056 23.5075 28.6498 24.4498 29.2843 25.392C29.6689 25.9689 29.6401 26.2862 29.1594 26.7765C28.3133 27.6226 27.4768 28.4783 26.6115 29.3148C26.4384 29.4686 26.1884 29.5647 25.9576 29.709ZM11.3627 16.3735C11.3531 19.1521 13.5644 21.3923 16.3334 21.4116C19.1216 21.4308 21.3715 19.2002 21.3811 16.412C21.3907 13.6237 19.1601 11.3739 16.3719 11.3739C13.6029 11.3739 11.3724 13.5949 11.3627 16.3735Z" fill="url(#paint1_linear_785_13894)"/>
<path d="M16.2559 0.971074C16.8712 0.971074 17.4962 0.971074 18.1116 0.971074C18.1308 0.971074 18.15 0.971074 18.1692 0.971074C18.1692 0.990303 18.1788 1.00953 18.1788 1.02876C18.3903 2.14405 18.6019 3.25935 18.7942 4.38425C18.8999 4.99959 19.2556 5.41302 19.8517 5.61492C20.1498 5.72068 20.4479 5.84567 20.7652 5.98028C21.0344 6.09565 21.3132 6.21103 21.592 6.31679C21.7555 6.37448 21.9381 6.41293 22.1304 6.41293C22.3419 6.41293 22.6592 6.37448 22.938 6.18218C23.6398 5.71107 24.3418 5.23034 25.0436 4.75922L25.8897 4.18235C25.9186 4.16312 25.9377 4.1535 25.957 4.13427C25.9762 4.1535 25.9955 4.17273 26.0147 4.19196C26.8608 5.03805 27.7069 5.88413 28.553 6.73022C28.5722 6.74944 28.5817 6.75906 28.5914 6.77829C28.5817 6.79752 28.5722 6.81675 28.553 6.83598C27.8896 7.81667 27.2261 8.78774 26.5531 9.75881C26.2262 10.2203 26.1877 10.7203 26.4281 11.2395C26.6973 11.826 26.9185 12.3548 27.0915 12.8355C27.3031 13.4124 27.7069 13.7585 28.2934 13.8546C29.5433 14.0758 30.7739 14.3161 31.7161 14.4988C31.7257 14.4988 31.7354 14.4988 31.745 14.5084V14.518C31.7546 15.7583 31.7546 16.9986 31.745 18.2389V18.2485C31.7354 18.2485 31.7257 18.2485 31.7161 18.2581C30.572 18.4792 29.4375 18.7004 28.2934 18.9023C27.7069 19.0081 27.3127 19.3349 27.1108 19.883C26.9089 20.4502 26.6684 21.0175 26.4185 21.5559C26.1685 22.0847 26.2166 22.5943 26.5627 23.0846C27.1876 23.9884 27.803 24.8922 28.4184 25.796L28.4952 25.9017C28.5241 25.9402 28.5434 25.969 28.553 25.9882C28.5338 26.0075 28.5145 26.0363 28.4856 26.0555L28.0145 26.5267C27.3319 27.2189 26.6492 27.9016 25.9474 28.5842C25.9377 28.5938 25.9282 28.6034 25.909 28.613C25.8801 28.6034 25.8608 28.5842 25.8512 28.5746C24.8898 27.9208 23.9283 27.267 22.9669 26.6036C22.6976 26.4113 22.4284 26.3248 22.1304 26.3248C21.9189 26.3248 21.7074 26.3728 21.4863 26.4786C21.1978 26.6036 20.9094 26.719 20.6209 26.8343C20.3133 26.9593 20.0055 27.0843 19.6979 27.2189C19.2748 27.4112 18.9192 27.8342 18.8327 28.2765C18.6211 29.2957 18.4384 30.334 18.2557 31.334L18.2077 31.6224C18.1981 31.6993 18.1788 31.757 18.1692 31.7955C18.1307 31.7955 18.0826 31.7955 18.0249 31.7955H16.2366C15.6694 31.7955 15.0925 31.7955 14.5252 31.7955C14.4964 31.7955 14.4676 31.7955 14.4483 31.7955C14.4483 31.7762 14.4387 31.7474 14.4291 31.7185L14.2561 30.8244C14.0926 29.9687 13.9292 29.1034 13.7561 28.2573C13.66 27.815 13.3234 27.3824 12.9004 27.1805C12.3428 26.9112 11.7371 26.6613 11.1121 26.4305C10.9583 26.3728 10.7852 26.344 10.6025 26.344C10.2948 26.344 9.99679 26.4305 9.76604 26.5844C9.13148 27.0074 8.49693 27.4401 7.86237 27.8727C7.54509 28.0842 7.23744 28.3054 6.92016 28.5169C6.8817 28.5457 6.84326 28.565 6.81441 28.5842C6.79519 28.565 6.76626 28.5361 6.7278 28.5073C5.89133 27.6708 5.05487 26.8343 4.21841 25.9979C4.19918 25.9786 4.18963 25.969 4.1704 25.9498C4.18002 25.9402 4.18954 25.9209 4.19916 25.9017L4.31453 25.7287C4.92025 24.8345 5.53561 23.9307 6.15095 23.0462C6.48746 22.5655 6.52592 22.0559 6.27594 21.5175C6.02596 20.9887 5.80488 20.4502 5.61259 19.9214C5.40107 19.3349 5.00687 18.9984 4.41077 18.8927C3.27625 18.6908 2.12244 18.4696 0.987918 18.2485C0.978303 18.2485 0.96866 18.2485 0.959046 18.2389V18.2293C0.949431 16.989 0.949431 15.7487 0.959046 14.5084C0.959046 14.5084 0.959046 14.5084 0.959046 14.4988C0.96866 14.4988 0.978303 14.4988 0.987918 14.4892C2.06475 14.2777 3.22817 14.0565 4.41077 13.845C4.99726 13.7393 5.40107 13.3931 5.61259 12.8163C5.80488 12.2778 6.01633 11.7586 6.25669 11.2683C6.50667 10.7395 6.46821 10.2203 6.1317 9.73958C5.56444 8.92234 5.00679 8.1051 4.44915 7.27825L4.19916 6.91289C4.17031 6.86482 4.14151 6.82636 4.12228 6.79752C4.14151 6.77829 4.17031 6.74944 4.19916 6.7206C5.0164 5.90336 5.83368 5.08612 6.65092 4.26888C6.699 4.22081 6.72783 4.19196 6.75667 4.16312C6.79513 4.18235 6.84323 4.21119 6.90091 4.25926L7.16053 4.43233C7.97777 4.98997 8.79494 5.54762 9.61217 6.11488C9.91984 6.3264 10.218 6.43216 10.5353 6.43216C10.7852 6.43216 11.0255 6.36486 11.2755 6.23987C11.7274 6.00912 12.2081 5.82644 12.7273 5.63415L12.7754 5.61492C13.3331 5.4034 13.66 5.0092 13.7657 4.44194C13.9196 3.53817 14.0927 2.64401 14.2657 1.74986L14.4195 0.971074C14.4195 0.96146 14.4195 0.951844 14.4291 0.94223C14.4291 0.94223 14.4291 0.94223 14.4387 0.94223C15.0444 0.971074 15.6502 0.971074 16.2559 0.971074ZM16.3616 22.3732C19.6498 22.3732 22.3227 19.7003 22.3419 16.4121C22.3515 14.8065 21.7266 13.297 20.6017 12.1625C19.4768 11.0279 17.9769 10.4126 16.3713 10.4126C13.0927 10.4126 10.4103 13.0855 10.4006 16.3737C10.391 19.6618 13.0446 22.3539 16.3231 22.3828L16.3616 22.3732ZM16.2559 0.00961481C15.6502 0.00961481 15.0444 0.00961503 14.4387 0.0192296C13.8618 0.0192296 13.5926 0.259595 13.4869 0.826856C13.2657 1.99022 13.0351 3.15359 12.8332 4.31695C12.7851 4.56693 12.6793 4.67269 12.4582 4.74961C11.9198 4.95152 11.3717 5.15342 10.8621 5.41302C10.7467 5.4707 10.6505 5.49955 10.5544 5.49955C10.4294 5.49955 10.3141 5.45147 10.1795 5.35533C9.27575 4.72077 8.3719 4.10543 7.45852 3.4901C7.16047 3.28819 6.93932 3.18243 6.7278 3.18243C6.48743 3.18243 6.276 3.32665 5.97795 3.61509C5.16071 4.43233 4.34342 5.24957 3.52618 6.06681C3.03584 6.56677 3.007 6.88405 3.41081 7.48015C4.05499 8.42238 4.69918 9.37423 5.34335 10.3068C5.47796 10.4991 5.49712 10.6434 5.39136 10.8741C5.14138 11.4029 4.91067 11.9606 4.71838 12.5086C4.63185 12.749 4.5165 12.8643 4.2569 12.9124C3.10315 13.1143 1.95906 13.3354 0.814921 13.5566C0.228431 13.672 0.00721094 13.9315 0.00721094 14.5084C-0.00240365 15.7487 -0.00240365 16.989 0.00721094 18.2389C0.00721094 18.8158 0.238046 19.085 0.814921 19.1907C1.95906 19.4119 3.11277 19.633 4.2569 19.8349C4.5165 19.883 4.63185 19.9984 4.71838 20.2387C4.92029 20.806 5.16063 21.3732 5.41061 21.9117C5.51637 22.1328 5.50683 22.2866 5.37223 22.4789C4.70882 23.4308 4.0646 24.3826 3.41081 25.3441C3.05507 25.8633 3.09354 26.2094 3.53581 26.6517C4.37228 27.4881 5.20873 28.3342 6.0452 29.1707C6.32402 29.4495 6.53555 29.5841 6.77592 29.5841C6.97783 29.5841 7.18931 29.488 7.45852 29.3053C8.40075 28.6611 9.33342 28.0073 10.2853 27.3824C10.3622 27.3343 10.4775 27.3054 10.5833 27.3054C10.6506 27.3054 10.7083 27.3151 10.7564 27.3343C11.3332 27.5458 11.9102 27.7862 12.4678 28.0554C12.612 28.1227 12.7658 28.3054 12.7947 28.4592C13.035 29.6033 13.2369 30.7571 13.458 31.9108C13.583 32.555 13.8331 32.7665 14.4965 32.7665C15.0637 32.7665 15.6405 32.7665 16.2078 32.7665C16.8039 32.7665 17.4 32.7665 18.0057 32.7665C18.7652 32.7665 18.996 32.5646 19.1306 31.7955C19.3325 30.6898 19.5345 29.5745 19.7556 28.4688C19.7845 28.3246 19.9382 28.1611 20.0729 28.0938C20.6593 27.8246 21.2747 27.6131 21.8612 27.3535C21.9573 27.3151 22.0342 27.2862 22.1111 27.2862C22.2073 27.2862 22.2939 27.3247 22.3996 27.392C23.3611 28.065 24.3226 28.7188 25.2936 29.3726C25.4763 29.4976 25.6877 29.5649 25.9377 29.6899C26.1685 29.5456 26.4185 29.4399 26.6012 29.2668C27.4569 28.4304 28.303 27.5747 29.1491 26.7286C29.6298 26.2382 29.6587 25.9209 29.2741 25.3441C28.6299 24.4018 27.9953 23.45 27.3415 22.5174C27.2069 22.3251 27.1684 22.1809 27.2838 21.9501C27.553 21.3732 27.7934 20.7868 28.0145 20.2003C28.101 19.9599 28.2261 19.883 28.4569 19.8349C29.6106 19.633 30.7547 19.4119 31.8988 19.1811C32.4757 19.0657 32.7064 18.8061 32.7064 18.2293C32.716 16.989 32.716 15.7487 32.7064 14.4988C32.7064 13.9219 32.4853 13.6623 31.8988 13.547C30.7547 13.3258 29.601 13.1047 28.4569 12.9028C28.1973 12.8547 28.0818 12.7489 27.9953 12.499C27.7934 11.9317 27.553 11.3741 27.303 10.826C27.2069 10.6241 27.2069 10.4799 27.3415 10.2972C28.0242 9.32616 28.6875 8.34547 29.351 7.36478C29.7067 6.84559 29.6682 6.48985 29.2356 6.04758C28.3895 5.19188 27.5434 4.3458 26.6973 3.49971C26.4473 3.24973 26.2262 3.12474 25.9858 3.12474C25.7936 3.12474 25.582 3.21127 25.3416 3.37472C24.3609 4.03813 23.3899 4.72077 22.4092 5.37456C22.3419 5.42263 22.2361 5.44186 22.1304 5.44186C22.0631 5.44186 21.9862 5.43224 21.9285 5.41302C21.3324 5.19188 20.7651 4.91306 20.169 4.70154C19.8998 4.60539 19.7941 4.47079 19.746 4.21119C19.5441 3.08628 19.3422 1.96138 19.121 0.846083C19.0056 0.221135 18.7365 0 18.1116 0C17.4962 0.00961459 16.8808 0.00961481 16.2559 0.00961481ZM16.3713 21.4117C16.3616 21.4117 16.3424 21.4117 16.3328 21.4117C13.5638 21.3925 11.3525 19.1427 11.3621 16.3737C11.3717 13.6047 13.6023 11.3741 16.3713 11.3741C19.1595 11.3741 21.39 13.6239 21.3804 16.4121C21.3708 19.1907 19.1306 21.4117 16.3713 21.4117Z" fill="url(#paint2_linear_785_13894)"/>
<g opacity="0.16">
<path d="M16.3702 8.41287C20.8506 8.41287 24.5041 12.0568 24.5041 16.5468C24.5041 21.0368 20.8602 24.6808 16.3702 24.6808C11.8898 24.6808 8.23632 21.0368 8.23632 16.5468C8.23632 12.0568 11.8898 8.41287 16.3702 8.41287ZM16.3702 7.30719C11.2649 7.30719 7.13062 11.4415 7.13062 16.5468C7.13062 21.6522 11.2649 25.7864 16.3702 25.7864C21.4756 25.7864 25.6098 21.6522 25.6098 16.5468C25.6194 11.4415 21.4756 7.30719 16.3702 7.30719Z" fill="white"/>
</g>
</g>
<defs>
<linearGradient id="paint0_linear_785_13894" x1="16.3818" y1="2.92537" x2="16.3818" y2="35.6703" gradientUnits="userSpaceOnUse">
<stop offset="0.1875" stop-color="#25C9FF"/>
<stop offset="0.822917" stop-color="#11A1EF"/>
</linearGradient>
<linearGradient id="paint1_linear_785_13894" x1="16.3719" y1="0.0407181" x2="16.3719" y2="32.7856" gradientUnits="userSpaceOnUse">
<stop offset="0.1875" stop-color="#25C9FF"/>
<stop offset="0.822917" stop-color="#11A1EF"/>
</linearGradient>
<linearGradient id="paint2_linear_785_13894" x1="16.3568" y1="0" x2="16.3568" y2="32.7665" gradientUnits="userSpaceOnUse">
<stop offset="0.1875" stop-color="#84E0FF"/>
<stop offset="0.822917" stop-color="#21B1FF"/>
</linearGradient>
</defs>
</svg>
