<svg width="47" height="45" viewBox="0 0 47 45" fill="none" xmlns="http://www.w3.org/2000/svg">
<path d="M9.75837 4.25458C9.75837 4.25458 3.00473 6.4309 0 18.0637C0 18.0637 2.66776 19.9522 6.64131 20.1418C6.64131 20.1418 10.6219 14.0902 12.3138 8.78976C12.3138 8.79678 11.6469 6.62046 9.75837 4.25458Z" fill="#00A7FD" fill-opacity="0.5"/>
<path d="M30.1032 0.0140411C30.0892 0.0140411 30.0822 0.00702057 30.0681 0.00702057C30.6789 4.12098 30.1243 8.47363 30.1243 8.47363C27.8427 8.77551 26.3122 8.47363 26.3122 8.47363C22.451 5.34955 19.1374 0.968816 18.4213 0C18.0141 0.0772245 17.6069 0.168489 17.1927 0.266775L16.4556 2.68882C16.4556 2.68882 20.0921 8.04539 26.0244 11.7662C26.0244 11.7662 26.9511 11.9066 28.4815 11.9066C29.2468 11.9066 30.1664 11.8715 31.1984 11.7662C31.1984 11.7662 33.0237 7.98922 32.3989 2.62563L31.1352 0.273795C31.1352 0.266775 30.7702 0.154449 30.1032 0.0140411Z" fill="#00A7FD" fill-opacity="0.5"/>
<path d="M30.1739 20.7797C31.3042 20.9622 35.5867 21.6011 38.1842 21.3624C39.0828 19.9723 39.7919 11.8708 36.9837 4.57658C36.0781 3.95879 35.0742 3.46736 34.0001 3.08826C34.4634 8.48695 32.6732 12.2639 32.596 12.4324L32.2169 13.2117L28.7418 13.4434C28.6716 14.6439 29.3385 17.6486 30.1739 20.7797Z" fill="#00A7FD" fill-opacity="0.5"/>
<path d="M40.5152 19.8045C44.1868 19.4816 46.6229 17.7616 46.6229 17.7616C44.6642 10.1936 41.1259 6.6272 38.8864 5.06165C40.9083 11.1554 40.7749 16.9121 40.5152 19.8045Z" fill="#00A7FD" fill-opacity="0.5"/>
<path d="M12.223 13.3039L17.7059 21.0755C18.9766 21.258 25.5477 21.8969 28.8333 20.7596C29.0579 19.4749 29.7038 16.2384 29.0579 13.4443C28.405 13.4022 25.8215 13.2969 25.8005 13.2899L25.4846 13.2407L25.2108 13.0722C19.0819 9.22506 15.3401 3.79126 15.1856 3.55959L14.9048 3.1524C13.8447 3.52449 12.8689 4.01591 12.0054 4.64073C13.4867 6.90832 14.0343 8.71257 14.0343 8.71257C13.5428 10.222 12.911 11.7875 12.223 13.3039Z" fill="#00A7FD" fill-opacity="0.5"/>
<path d="M9.37929 18.8496C8.88084 19.7342 8.41749 20.5205 8.03137 21.1663C8.13668 23.0829 8.30517 25.0697 8.57195 27.0565C9.37227 27.6251 10.1024 28.3061 10.8957 28.9169C10.0533 24.817 9.60394 21.1593 9.37929 18.8496Z" fill="#00A7FD" fill-opacity="0.5"/>
<path d="M34.1891 29.9208C29.5135 27.3724 23.7568 29.3311 19.5937 32.2516C22.4861 34.8772 23.3426 39.5177 23.6304 43.7299C25.3153 44.1722 30.5666 44.5022 32.8974 43.0981C33.5924 39.1526 34.5963 35.0948 37.1447 32.1884C37.1588 32.1322 35.5792 30.5667 34.1891 29.9208Z" fill="#00A7FD" fill-opacity="0.5"/>
<path d="M32.6657 27.4217C34.3295 27.9412 36.3584 29.0504 37.4326 30.286C38.3242 28.566 39.1034 25.5051 39.0122 22.8584C38.4084 22.9146 37.8117 22.9497 37.2009 22.9497C34.3085 22.9497 30.9597 22.374 30.9597 22.374L30.7281 21.7281C29.8926 17.9582 29.8575 14.9043 29.9348 13.4089C29.4504 13.437 28.966 13.4511 28.4815 13.4511C28.4675 13.4511 28.4535 13.4511 28.4464 13.4511C29.1555 17.1438 28.2148 21.7422 28.1726 21.9528L28.0814 22.4021L27.6461 22.5355C26.3824 22.9216 24.7748 23.048 23.1952 23.048C20.2045 23.048 17.3261 22.5916 17.1436 22.5635L16.8206 22.5144L11.4641 14.9253C11.2184 15.4238 10.9726 15.9082 10.7269 16.3856C10.7761 17.1719 11.1411 22.1774 12.3416 28.208C13.3034 28.236 16.1256 28.7766 18.7021 30.9038C22.9916 27.871 27.4285 25.9544 32.6657 27.4217Z" fill="#00A7FD" fill-opacity="0.5"/>
<path d="M11.2115 36.8578L12.1944 41.8844C16.3645 42.6075 19.1376 42.8392 22.0581 42.9726C21.7913 41.393 21.5737 39.8134 21.1173 38.2338C15.6765 37.7775 11.2115 36.8578 11.2115 36.8578Z" fill="#00A7FD" fill-opacity="0.5"/>
<path d="M36.6891 36.8562C36.2047 37.137 35.9098 37.2844 35.3341 37.4951C34.604 39.3133 34.3162 41.2299 34.1898 42.2128C35.7132 41.8407 35.5518 41.5599 35.5518 41.5599C35.5518 41.5599 36.6891 38.843 36.6891 36.8562Z" fill="#00A7FD" fill-opacity="0.5"/>
</svg>
