<svg width="28" height="25" viewBox="0 0 28 25" fill="none" xmlns="http://www.w3.org/2000/svg">
<path d="M17.736 4.84435C17.736 7.50528 15.5774 9.66391 12.9164 9.66391C10.2555 9.66391 8.09692 7.50528 8.09692 4.84435C8.09692 2.18341 10.5734 -0.464799 14.3884 0.0692948C17.0238 0.438074 17.736 2.18341 17.736 4.84435Z" fill="url(#paint0_linear_785_13831)"/>
<path d="M2.66987 7.74691L1.04535 7.6865C1.04535 7.69286 1.04535 7.69922 1.04535 7.7024V11.4093L2.90513 11.4601L2.66987 7.74691Z" fill="url(#paint1_linear_785_13831)"/>
<path d="M19.3856 2.97167H3.89383C2.47912 2.97167 1.56037 3.61067 1.2202 4.79331C1.0231 5.48 1.04853 6.84703 1.04535 7.68314L2.66987 7.74355L2.90513 11.4568L1.04535 11.4059V22.3803C1.04535 23.5597 1.99908 24.5135 3.17853 24.5135H19.3856C21.9988 24.5135 24.1161 22.3962 24.1161 19.7829V7.69586C24.1161 5.08897 21.9988 2.97167 19.3856 2.97167Z" fill="url(#paint2_linear_785_13831)"/>
<path d="M6.00837 6.99653C6.54915 6.99653 6.98753 6.55814 6.98753 6.01735C6.98753 5.47657 6.54915 5.03818 6.00837 5.03818C5.46759 5.03818 5.02921 5.47657 5.02921 6.01735C5.02921 6.55814 5.46759 6.99653 6.00837 6.99653Z" fill="url(#paint3_linear_785_13831)"/>
<path d="M24.1199 24.9999H0.867897C0.387852 24.9999 0 24.6121 0 24.1321V20.7717C0 20.2917 0.387852 19.9038 0.867897 19.9038H24.1199C24.5999 19.9038 24.9878 20.2917 24.9878 20.7717V24.1321C24.9878 24.6121 24.5999 24.9999 24.1199 24.9999Z" fill="url(#paint4_linear_785_13831)"/>
<path d="M14.2996 0.361587C16.7952 0.361587 18.8267 2.39305 18.8267 4.88867C18.8267 7.38428 16.7952 9.41575 14.2996 9.41575C11.804 9.41575 9.77258 7.38428 9.77258 4.88867C9.77258 2.39305 11.804 0.361587 14.2996 0.361587ZM14.2996 0.0691071C11.6387 0.0691071 9.4801 2.22773 9.4801 4.88867C9.4801 7.5496 11.6387 9.70823 14.2996 9.70823C16.9605 9.70823 19.1191 7.5496 19.1191 4.88867C19.1191 2.22773 16.9637 0.0691071 14.2996 0.0691071Z" fill="url(#paint5_linear_785_13831)"/>
<path d="M23.4112 24.9872H5.16946C3.74523 24.9872 2.59439 23.8331 2.59439 22.4121V5.54677C2.59439 4.12252 3.74841 2.97167 5.16946 2.97167H23.4112C24.8354 2.97167 25.9862 4.1257 25.9862 5.54677V22.4089C25.9894 23.8331 24.8354 24.9872 23.4112 24.9872Z" fill="url(#paint6_linear_785_13831)"/>
<path d="M25.9957 7.93425C25.9957 7.92789 25.9925 7.86113 25.9925 7.85477L2.59433 7.82933V11.6348L25.9894 11.6761L25.9957 7.93425Z" fill="url(#paint7_linear_785_13831)"/>
<path d="M23.4103 3.26736C24.666 3.26736 25.6897 4.29104 25.6897 5.54679V20.1708C25.6897 22.6632 23.6614 24.6883 21.1722 24.6883H5.04138C3.85558 24.6883 2.88913 23.7219 2.88913 22.5361V5.54679C2.88913 4.29104 3.9128 3.26736 5.16855 3.26736H23.4103ZM23.4103 2.97169H5.16855C3.74431 2.97169 2.59348 4.12572 2.59348 5.54679V22.5361C2.59348 23.8872 3.69027 24.984 5.04138 24.984H21.1722C23.8299 24.984 25.9885 22.8286 25.9885 20.1676V5.54361C25.9885 4.12572 24.8345 2.97169 23.4103 2.97169Z" fill="url(#paint8_linear_785_13831)"/>
<path d="M21.2562 11.0815H7.16327V24.6183C7.67828 24.8567 8.24734 24.987 8.84184 24.987H19.708C20.2548 24.987 20.7762 24.8726 21.2531 24.6723V11.0815H21.2562Z" fill="#11487A"/>
<path d="M5.69024 6.83431C6.23804 6.83431 6.68212 6.38595 6.68212 5.83288C6.68212 5.2798 6.23804 4.83145 5.69024 4.83145C5.14244 4.83145 4.69836 5.2798 4.69836 5.83288C4.69836 6.38595 5.14244 6.83431 5.69024 6.83431Z" fill="url(#paint9_linear_785_13831)"/>
<path d="M22.7311 6.83427C23.2789 6.83427 23.723 6.38591 23.723 5.83284C23.723 5.27977 23.2789 4.83142 22.7311 4.83142C22.1833 4.83142 21.7393 5.27977 21.7393 5.83284C21.7393 6.38591 22.1833 6.83427 22.7311 6.83427Z" fill="url(#paint10_linear_785_13831)"/>
<path opacity="0.4" d="M13.0948 22.4504H12.2141V19.3063C12.2141 18.804 12.4335 18.3335 12.8309 17.9742L13.6416 17.2462C13.8768 17.0364 14.0072 16.7566 14.0072 16.461V13.2786H14.8878V16.461C14.8878 16.9633 14.6684 17.4338 14.271 17.793L13.4604 18.521C13.2251 18.7309 13.0948 19.0106 13.0948 19.3063V22.4504Z" fill="url(#paint11_linear_785_13831)"/>
<path opacity="0.4" d="M19.5158 17.5836C19.5158 16.8079 18.8991 16.1784 18.1424 16.1784C17.3858 16.1784 16.7691 16.8079 16.7691 17.5836C16.7691 18.2004 17.1601 18.7186 17.7006 18.9093V23.1821H18.5812V18.9093C19.1248 18.7186 19.5158 18.2004 19.5158 17.5836ZM18.1424 18.0859C17.8722 18.0859 17.6497 17.8602 17.6497 17.5836C17.6497 17.307 17.869 17.0813 18.1424 17.0813C18.4127 17.0813 18.6352 17.307 18.6352 17.5836C18.6352 17.8602 18.4158 18.0859 18.1424 18.0859Z" fill="url(#paint12_linear_785_13831)"/>
<g opacity="0.4">
<path d="M9.87527 13.6661H8.99466V20.7333H9.87527V13.6661Z" fill="url(#paint13_linear_785_13831)"/>
</g>
<path d="M26.0935 24.9997H2.50139C2.01817 24.9997 1.62714 24.6086 1.62714 24.1254V20.7778C1.62714 20.2946 2.01817 19.9035 2.50139 19.9035H26.0935C26.5768 19.9035 26.9678 20.2946 26.9678 20.7778V24.1254C26.9678 24.6086 26.5768 24.9997 26.0935 24.9997Z" fill="url(#paint14_linear_785_13831)"/>
<path d="M26.0935 20.1614C26.4337 20.1614 26.7103 20.438 26.7103 20.7782V24.1258C26.7103 24.466 26.4337 24.7426 26.0935 24.7426H2.50139C2.16123 24.7426 1.88464 24.466 1.88464 24.1258V20.7782C1.88464 20.438 2.16123 20.1614 2.50139 20.1614H26.0935ZM26.0935 19.9039H2.50139C2.01817 19.9039 1.62714 20.295 1.62714 20.7782V24.1258C1.62714 24.609 2.01817 25.0001 2.50139 25.0001H26.0935C26.5768 25.0001 26.9678 24.609 26.9678 24.1258V20.7782C26.9678 20.295 26.5768 19.9039 26.0935 19.9039Z" fill="url(#paint15_linear_785_13831)"/>
<path opacity="0.5" d="M25.9894 17.1188V7.9534H2.59433V16.8168C2.98854 17.5703 3.80557 18.0885 4.74976 18.0885C6.08181 18.0885 7.15952 17.0616 7.15952 15.7963C7.15952 17.0616 8.23724 18.0885 9.56929 18.0885C10.9013 18.0885 11.979 17.0616 11.979 15.7963C11.979 17.0616 13.0568 18.0885 14.3888 18.0885C15.7209 18.0885 16.7986 17.0616 16.7986 15.7963C16.7986 17.0616 17.8763 18.0885 19.2083 18.0885C20.5404 18.0885 21.6181 17.0616 21.6181 15.7963C21.6181 17.0616 22.6958 18.0885 24.0279 18.0885C24.8353 18.0853 25.5506 17.7038 25.9894 17.1188Z" fill="#00345B"/>
<path d="M14.3003 9.70795C16.9621 9.70795 19.1199 7.55016 19.1199 4.88839C19.1199 2.22662 16.9621 0.0688286 14.3003 0.0688286C11.6386 0.0688286 9.4808 2.22662 9.4808 4.88839C9.4808 7.55016 11.6386 9.70795 14.3003 9.70795Z" fill="url(#paint16_linear_785_13831)"/>
<path d="M2.59453 7.82082H7.29325L6.39992 11.8011H1.07492L2.59453 7.82082Z" fill="url(#paint17_linear_785_13831)"/>
<path d="M7.29277 7.82088H11.9915L11.7244 11.8012H6.39944L7.29277 7.82088Z" fill="url(#paint18_linear_785_13831)"/>
<path d="M11.9921 7.82084H16.6908L17.0469 11.8011H11.7251L11.9921 7.82084Z" fill="url(#paint19_linear_785_13831)"/>
<path d="M16.6903 7.82088H21.3891L22.3714 11.8012H17.0464L16.6903 7.82088Z" fill="url(#paint20_linear_785_13831)"/>
<path d="M21.3899 7.82088H26.0918L27.6972 11.8012H22.3722L21.3899 7.82088Z" fill="url(#paint21_linear_785_13831)"/>
<path d="M1.07492 11.7618H6.39992V13.2465C6.39992 14.6453 5.20776 15.7803 3.73901 15.7803C2.27026 15.7803 1.0781 14.6453 1.0781 13.2465V11.7618H1.07492Z" fill="url(#paint22_linear_785_13831)"/>
<path d="M6.39948 11.7616H11.7245V13.2463C11.7245 14.6451 10.5323 15.78 9.06356 15.78C7.59482 15.78 6.40265 14.6451 6.40265 13.2463V11.7616H6.39948Z" fill="url(#paint23_linear_785_13831)"/>
<path d="M11.7251 11.7616H17.0501V13.2463C17.0501 14.6451 15.8579 15.78 14.3892 15.78C12.9204 15.78 11.7283 14.6451 11.7283 13.2463V11.7616H11.7251Z" fill="url(#paint24_linear_785_13831)"/>
<path d="M17.0469 11.7616H22.3719V13.2463C22.3719 14.6451 21.1798 15.78 19.711 15.78C18.2423 15.78 17.0501 14.6451 17.0501 13.2463V11.7616H17.0469Z" fill="url(#paint25_linear_785_13831)"/>
<path d="M22.3716 11.7616H27.6966V13.2463C27.6966 14.6451 26.5044 15.78 25.0357 15.78C23.567 15.78 22.3748 14.6451 22.3748 13.2463V11.7616H22.3716Z" fill="url(#paint26_linear_785_13831)"/>
<path d="M13.0115 13.7811C13.0115 14.5569 13.6283 15.1863 14.3849 15.1863C15.1415 15.1863 15.7583 14.5569 15.7583 13.7811C15.7583 13.1644 15.3672 12.6462 14.8268 12.4555L14.8331 11.7624L14.8617 7.82028H13.9811L13.9525 11.7624L13.9462 12.4555C13.4025 12.6462 13.0115 13.1644 13.0115 13.7811ZM14.3849 13.2788C14.6551 13.2788 14.8776 13.5046 14.8776 13.7811C14.8776 14.0577 14.6583 14.2835 14.3849 14.2835C14.1147 14.2835 13.8921 14.0577 13.8921 13.7811C13.8921 13.5046 14.1147 13.2788 14.3849 13.2788Z" fill="url(#paint27_linear_785_13831)"/>
<path d="M6.92142 8.11588L6.11075 11.6956L6.1044 11.7274V11.7592V13.2438C6.1044 14.525 4.85501 15.4819 3.73914 15.4819C2.62645 15.4819 1.38343 14.5377 1.38343 13.2724V11.8418L2.80131 8.1127H6.92142M7.29338 7.82022H2.59466L1.08777 11.791V13.2756C1.08777 14.6744 2.42299 15.7808 3.73914 15.7808C5.05847 15.7808 6.40005 14.6458 6.40005 13.247V11.7623L7.29338 7.82022Z" fill="url(#paint28_linear_785_13831)"/>
<path d="M27.3369 11.7623H1.21417" stroke="url(#paint29_linear_785_13831)" stroke-width="0.296038" stroke-miterlimit="10"/>
<mask id="mask0_785_13831" style="mask-type:luminance" maskUnits="userSpaceOnUse" x="1" y="7" width="7" height="9">
<path d="M7.29321 7.82119H2.5945L1.07806 11.8015V13.248C1.07806 14.6468 2.213 15.7817 3.86932 15.7817C5.18864 15.7817 6.39988 14.6468 6.39988 13.248V11.7633L7.29321 7.82119Z" fill="white"/>
</mask>
<g mask="url(#mask0_785_13831)">
<g opacity="0.4">
<path d="M4.04961 16.8215H4.93022V13.6773C4.93022 13.175 4.71086 12.7045 4.31347 12.3452L3.5028 11.6172C3.26755 11.4074 3.1372 11.1276 3.1372 10.832L4.19267 7.82135H3.28344L2.25659 10.832C2.25659 11.0959 2.31699 11.3534 2.43462 11.5918C2.53953 11.8016 2.68577 11.9955 2.87334 12.164L3.68401 12.8921C3.91926 13.1019 4.04961 13.3816 4.04961 13.6773V16.8215Z" fill="url(#paint30_linear_785_13831)"/>
</g>
</g>
<mask id="mask1_785_13831" style="mask-type:luminance" maskUnits="userSpaceOnUse" x="1" y="7" width="7" height="9">
<path d="M7.29321 7.82119H2.5945L1.07806 11.8015V13.248C1.07806 14.6468 2.213 15.7817 3.86932 15.7817C5.18864 15.7817 6.39988 14.6468 6.39988 13.248V11.7633L7.29321 7.82119Z" fill="white"/>
</mask>
<g mask="url(#mask1_785_13831)">
<g opacity="0.4">
<path d="M4.04961 16.8215H4.93022V13.6773C4.93022 13.175 4.71086 12.7045 4.31347 12.3452L3.5028 11.6172C3.26755 11.4074 3.1372 11.1276 3.1372 10.832L4.19267 7.82135H3.28344L2.25659 10.832C2.25659 11.0959 2.31699 11.3534 2.43462 11.5918C2.53953 11.8016 2.68577 11.9955 2.87334 12.164L3.68401 12.8921C3.91926 13.1019 4.04961 13.3816 4.04961 13.6773V16.8215Z" fill="url(#paint31_linear_785_13831)"/>
</g>
</g>
<path d="M25.389 15.7811H24.5084V11.7627L23.3544 7.82056H24.235L25.389 11.7627V15.7811Z" fill="url(#paint32_linear_785_13831)"/>
<path d="M24.3694 23.5886C24.9172 23.5886 25.3613 23.1403 25.3613 22.5872C25.3613 22.0342 24.9172 21.5858 24.3694 21.5858C23.8216 21.5858 23.3776 22.0342 23.3776 22.5872C23.3776 23.1403 23.8216 23.5886 24.3694 23.5886Z" fill="url(#paint33_linear_785_13831)"/>
<path d="M4.45095 23.5886C4.99876 23.5886 5.44284 23.1403 5.44284 22.5872C5.44284 22.0342 4.99876 21.5858 4.45095 21.5858C3.90315 21.5858 3.45908 22.0342 3.45908 22.5872C3.45908 23.1403 3.90315 23.5886 4.45095 23.5886Z" fill="url(#paint34_linear_785_13831)"/>
<defs>
<linearGradient id="paint0_linear_785_13831" x1="7.37587" y1="1.70559" x2="22.4347" y2="9.64194" gradientUnits="userSpaceOnUse">
<stop offset="0.2035" stop-color="#0085B4"/>
<stop offset="0.7211" stop-color="#1D52B1"/>
</linearGradient>
<linearGradient id="paint1_linear_785_13831" x1="-0.243143" y1="6.69738" x2="4.02014" y2="12.541" gradientUnits="userSpaceOnUse">
<stop offset="0.2035" stop-color="#0085B4"/>
<stop offset="0.7211" stop-color="#1D52B1"/>
</linearGradient>
<linearGradient id="paint2_linear_785_13831" x1="-2.58671" y1="-6.17088" x2="26.3081" y2="33.4346" gradientUnits="userSpaceOnUse">
<stop stop-color="#9AB0CD"/>
<stop offset="1" stop-color="#6192BC"/>
</linearGradient>
<linearGradient id="paint3_linear_785_13831" x1="5.02898" y1="6.01888" x2="6.9862" y2="6.01888" gradientUnits="userSpaceOnUse">
<stop stop-color="#067BB3"/>
<stop offset="1" stop-color="#1167B2"/>
</linearGradient>
<linearGradient id="paint4_linear_785_13831" x1="3.12417" y1="9.60701" x2="21.7962" y2="35.2003" gradientUnits="userSpaceOnUse">
<stop stop-color="#9AB0CD"/>
<stop offset="1" stop-color="#6192BC"/>
</linearGradient>
<linearGradient id="paint5_linear_785_13831" x1="14.3011" y1="0.0695521" x2="14.3011" y2="9.70782" gradientUnits="userSpaceOnUse">
<stop offset="0.0671" stop-color="#D4F7FF" stop-opacity="0.9"/>
<stop offset="0.0798" stop-color="#D1F5FD" stop-opacity="0.8877"/>
<stop offset="0.401" stop-color="#92BDD6" stop-opacity="0.5779"/>
<stop offset="0.6723" stop-color="#6494B9" stop-opacity="0.3162"/>
<stop offset="0.8802" stop-color="#487AA7" stop-opacity="0.1155"/>
<stop offset="1" stop-color="#3D71A0" stop-opacity="0"/>
</linearGradient>
<linearGradient id="paint6_linear_785_13831" x1="-0.950788" y1="-6.91251" x2="29.4194" y2="34.7151" gradientUnits="userSpaceOnUse">
<stop stop-color="#E0F1FF"/>
<stop offset="1" stop-color="#9AD0EE"/>
</linearGradient>
<linearGradient id="paint7_linear_785_13831" x1="5.57328" y1="-2.20433" x2="22.9533" y2="21.618" gradientUnits="userSpaceOnUse">
<stop offset="0.2035" stop-color="#00DCFD"/>
<stop offset="0.7211" stop-color="#007BFA"/>
</linearGradient>
<linearGradient id="paint8_linear_785_13831" x1="14.29" y1="2.97169" x2="14.29" y2="24.9869" gradientUnits="userSpaceOnUse">
<stop offset="0.0671" stop-color="#D4F7FF" stop-opacity="0.9"/>
<stop offset="0.2175" stop-color="#A0C8DE" stop-opacity="0.6394"/>
<stop offset="0.3837" stop-color="#6C9ABE" stop-opacity="0.3515"/>
<stop offset="0.5092" stop-color="#4C7EAA" stop-opacity="0.134"/>
<stop offset="0.5785" stop-color="#4073A2" stop-opacity="0.014"/>
<stop offset="1" stop-color="#3D71A0" stop-opacity="0"/>
</linearGradient>
<linearGradient id="paint9_linear_785_13831" x1="4.69693" y1="5.83339" x2="6.68177" y2="5.83339" gradientUnits="userSpaceOnUse">
<stop stop-color="#067BB3"/>
<stop offset="1" stop-color="#1167B2"/>
</linearGradient>
<linearGradient id="paint10_linear_785_13831" x1="21.7387" y1="5.83335" x2="23.7235" y2="5.83335" gradientUnits="userSpaceOnUse">
<stop stop-color="#067BB3"/>
<stop offset="1" stop-color="#1167B2"/>
</linearGradient>
<linearGradient id="paint11_linear_785_13831" x1="13.5841" y1="13.8189" x2="13.5346" y2="19.6906" gradientUnits="userSpaceOnUse">
<stop stop-color="#799FC3"/>
<stop offset="1" stop-color="#6192BC"/>
</linearGradient>
<linearGradient id="paint12_linear_785_13831" x1="18.0975" y1="23.0365" x2="18.0166" y2="32.6244" gradientUnits="userSpaceOnUse">
<stop stop-color="#799FC3"/>
<stop offset="1" stop-color="#6192BC"/>
</linearGradient>
<linearGradient id="paint13_linear_785_13831" x1="9.49877" y1="9.65973" x2="9.43446" y2="17.2805" gradientUnits="userSpaceOnUse">
<stop stop-color="#799FC3"/>
<stop offset="1" stop-color="#6192BC"/>
</linearGradient>
<linearGradient id="paint14_linear_785_13831" x1="14.4017" y1="17.1854" x2="14.2626" y2="24.2113" gradientUnits="userSpaceOnUse">
<stop stop-color="#E0F1FF"/>
<stop offset="1" stop-color="#9AD0EE"/>
</linearGradient>
<linearGradient id="paint15_linear_785_13831" x1="14.2975" y1="19.9041" x2="14.2975" y2="24.9993" gradientUnits="userSpaceOnUse">
<stop offset="0.0671" stop-color="#D4F7FF" stop-opacity="0.9"/>
<stop offset="0.0798" stop-color="#D1F5FD" stop-opacity="0.8877"/>
<stop offset="0.401" stop-color="#92BDD6" stop-opacity="0.5779"/>
<stop offset="0.6723" stop-color="#6494B9" stop-opacity="0.3162"/>
<stop offset="0.8802" stop-color="#487AA7" stop-opacity="0.1155"/>
<stop offset="1" stop-color="#3D71A0" stop-opacity="0"/>
</linearGradient>
<linearGradient id="paint16_linear_785_13831" x1="8.62884" y1="1.89855" x2="23.7523" y2="9.869" gradientUnits="userSpaceOnUse">
<stop offset="0.2035" stop-color="#00DCFD"/>
<stop offset="0.7211" stop-color="#007BFA"/>
</linearGradient>
<linearGradient id="paint17_linear_785_13831" x1="4.16313" y1="6.94357" x2="4.20135" y2="12.1388" gradientUnits="userSpaceOnUse">
<stop stop-color="#FFE481"/>
<stop offset="0.9058" stop-color="#FE9230"/>
</linearGradient>
<linearGradient id="paint18_linear_785_13831" x1="9.16546" y1="7.24262" x2="9.24207" y2="13.794" gradientUnits="userSpaceOnUse">
<stop offset="0.2035" stop-color="#FD6149"/>
<stop offset="0.7211" stop-color="#FA0051"/>
</linearGradient>
<linearGradient id="paint19_linear_785_13831" x1="14.3501" y1="6.89483" x2="14.3883" y2="12.102" gradientUnits="userSpaceOnUse">
<stop stop-color="#FFE481"/>
<stop offset="0.9058" stop-color="#FE9230"/>
</linearGradient>
<linearGradient id="paint20_linear_785_13831" x1="19.5005" y1="7.1642" x2="19.5774" y2="13.7393" gradientUnits="userSpaceOnUse">
<stop offset="0.2035" stop-color="#FD6149"/>
<stop offset="0.7211" stop-color="#FA0051"/>
</linearGradient>
<linearGradient id="paint21_linear_785_13831" x1="24.5223" y1="6.84603" x2="24.5606" y2="12.0651" gradientUnits="userSpaceOnUse">
<stop stop-color="#FFE481"/>
<stop offset="0.9058" stop-color="#FE9230"/>
</linearGradient>
<linearGradient id="paint22_linear_785_13831" x1="5.29207" y1="10.1073" x2="2.00865" y2="15.8533" gradientUnits="userSpaceOnUse">
<stop stop-color="#FFE481"/>
<stop offset="0.9058" stop-color="#FE9230"/>
</linearGradient>
<linearGradient id="paint23_linear_785_13831" x1="8.97954" y1="10.6692" x2="9.29177" y2="17.772" gradientUnits="userSpaceOnUse">
<stop offset="0.2035" stop-color="#FD6149"/>
<stop offset="0.7211" stop-color="#FA0051"/>
</linearGradient>
<linearGradient id="paint24_linear_785_13831" x1="14.0883" y1="10.9577" x2="15.4731" y2="18.6552" gradientUnits="userSpaceOnUse">
<stop stop-color="#FFE481"/>
<stop offset="0.9058" stop-color="#FE9230"/>
</linearGradient>
<linearGradient id="paint25_linear_785_13831" x1="19.6175" y1="10.4199" x2="19.9297" y2="17.5227" gradientUnits="userSpaceOnUse">
<stop offset="0.2035" stop-color="#FD6149"/>
<stop offset="0.7211" stop-color="#FA0051"/>
</linearGradient>
<linearGradient id="paint26_linear_785_13831" x1="22.3826" y1="9.26706" x2="27.8825" y2="16.8056" gradientUnits="userSpaceOnUse">
<stop stop-color="#FFE481"/>
<stop offset="0.9058" stop-color="#FE9230"/>
</linearGradient>
<linearGradient id="paint27_linear_785_13831" x1="17.1275" y1="12.7163" x2="11.2701" y2="10.0377" gradientUnits="userSpaceOnUse">
<stop stop-color="white"/>
<stop offset="1" stop-color="white" stop-opacity="0"/>
</linearGradient>
<linearGradient id="paint28_linear_785_13831" x1="1.08542" y1="11.8009" x2="7.2929" y2="11.8009" gradientUnits="userSpaceOnUse">
<stop stop-color="white"/>
<stop offset="0.3478" stop-color="white" stop-opacity="0"/>
</linearGradient>
<linearGradient id="paint29_linear_785_13831" x1="-nan" y1="-nan" x2="-nan" y2="-nan" gradientUnits="userSpaceOnUse">
<stop stop-color="white"/>
<stop offset="0.7067" stop-color="white" stop-opacity="0"/>
<stop offset="1" stop-color="white" stop-opacity="0"/>
</linearGradient>
<linearGradient id="paint30_linear_785_13831" x1="1.89309" y1="15.0191" x2="7.43112" y2="8.27118" gradientUnits="userSpaceOnUse">
<stop stop-color="white"/>
<stop offset="1" stop-color="white" stop-opacity="0"/>
</linearGradient>
<linearGradient id="paint31_linear_785_13831" x1="1.89309" y1="15.0191" x2="7.43112" y2="8.27118" gradientUnits="userSpaceOnUse">
<stop stop-color="white"/>
<stop offset="1" stop-color="white" stop-opacity="0"/>
</linearGradient>
<linearGradient id="paint32_linear_785_13831" x1="25.9724" y1="8.32226" x2="22.1786" y2="16.5664" gradientUnits="userSpaceOnUse">
<stop stop-color="white"/>
<stop offset="1" stop-color="white" stop-opacity="0"/>
</linearGradient>
<linearGradient id="paint33_linear_785_13831" x1="23.3768" y1="22.5881" x2="25.3616" y2="22.5881" gradientUnits="userSpaceOnUse">
<stop stop-color="#067BB3"/>
<stop offset="1" stop-color="#1167B2"/>
</linearGradient>
<linearGradient id="paint34_linear_785_13831" x1="3.45717" y1="22.5881" x2="5.44198" y2="22.5881" gradientUnits="userSpaceOnUse">
<stop stop-color="#067BB3"/>
<stop offset="1" stop-color="#1167B2"/>
</linearGradient>
</defs>
</svg>
