<svg width="40" height="33" viewBox="0 0 40 33" fill="none" xmlns="http://www.w3.org/2000/svg">
<path opacity="0.5" d="M39.1612 18.927L21.4558 0.842449C20.5291 -0.280816 19.0337 -0.280816 18.107 0.842449L0.401519 18.927C-0.454971 19.966 0.148824 21.7422 1.36335 21.7422H3.95384C4.70503 21.7422 5.30882 22.4793 5.30882 23.392C5.30882 23.392 6.78311 28.3765 7.89935 31.2759C8.3276 32.3781 9.70358 32.7572 10.6443 32.0411L18.5142 27.9904C19.9113 27.1409 21.6664 27.1409 23.0634 27.9833L30.6595 32.0622C31.6002 32.7713 32.9692 32.3922 33.3974 31.29C34.5207 28.3905 35.995 23.399 35.995 23.399C35.995 22.4864 36.6058 21.7492 37.3499 21.7492H38.1994C39.4139 21.7492 40.0177 19.966 39.1612 18.927ZM23.3091 19.4676L22.8458 24.4451L19.7849 20.4926L15.6007 23.2305L16.7872 18.3724L12.0414 16.8139L16.5766 14.7078L14.8355 10.0181L19.3075 12.2506L21.884 7.96816L22.923 12.8544L27.8794 12.2015L24.7062 16.0627L28.3076 19.5308L23.3091 19.4676Z" fill="#00A7FD" fill-opacity="0.5"/>
</svg>
