<svg width="59" height="25" viewBox="0 0 59 25" fill="none" xmlns="http://www.w3.org/2000/svg">
<path d="M31.3025 0H21.0637L15.862 6.04319L10.6783 0H0.38457L10.715 11.9289L0 24.2712H10.2937L15.862 17.8146L21.4116 24.2712H31.687L20.9904 11.9289L31.3025 0Z" fill="url(#paint0_linear_785_13930)"/>
<path d="M56.8365 3.32672C55.9939 2.22438 54.84 1.37794 53.393 0.807086C52.0376 0.2756 50.4807 1.52588e-05 48.759 1.52588e-05H33.2268V24.2712H41.6339V17.6965H48.4658C50.2608 17.6965 51.8727 17.4209 53.2647 16.8501C54.7483 16.2596 55.9389 15.3934 56.7815 14.2911C57.6973 13.0903 58.1735 11.7124 58.1735 10.1376V7.36208C58.1735 5.86605 57.734 4.5078 56.8365 3.32672ZM41.6339 6.41721H48.6856C49.1252 6.41721 49.455 6.53532 49.6564 6.75186C49.7297 6.83059 49.7662 6.86996 49.7662 7.14555V10.3148C49.7662 10.551 49.7296 10.6691 49.5648 10.8463C49.29 11.1218 48.8872 11.2793 48.3744 11.2793H41.6156V6.41721H41.6339Z" fill="url(#paint1_linear_785_13930)"/>
<defs>
<linearGradient id="paint0_linear_785_13930" x1="15.8435" y1="0" x2="15.8435" y2="24.2712" gradientUnits="userSpaceOnUse">
<stop stop-color="#00FFB4"/>
<stop offset="1" stop-color="#00EAFF"/>
</linearGradient>
<linearGradient id="paint1_linear_785_13930" x1="45.7002" y1="1.52588e-05" x2="45.7002" y2="24.2712" gradientUnits="userSpaceOnUse">
<stop stop-color="#00FFB4"/>
<stop offset="1" stop-color="#00EAFF"/>
</linearGradient>
</defs>
</svg>
