<svg width="605" height="1020" viewBox="0 0 605 1020" fill="none" xmlns="http://www.w3.org/2000/svg">
<g filter="url(#filter0_df_668_780)">
<path d="M450.525 11.9546C438.3 -0.270947 431.638 -2.51485 427.791 -5.2209C427.791 -5.2209 442.917 6.48416 449.456 13.0234C455.996 19.5627 466.807 33.7948 466.807 33.7948C465.493 30.3433 458.864 20.2938 450.525 11.9546Z" fill="url(#paint0_linear_668_780)"/>
<path d="M450.525 11.9546C438.3 -0.270947 431.638 -2.51485 427.791 -5.2209C427.791 -5.2209 442.917 6.48416 449.456 13.0234C455.996 19.5627 466.807 33.7948 466.807 33.7948C465.493 30.3433 458.864 20.2938 450.525 11.9546Z" stroke="url(#paint1_linear_668_780)" stroke-width="2" stroke-linecap="round"/>
</g>
<g filter="url(#filter1_df_668_780)">
<path d="M448.714 994.514C461.763 983.171 464.466 976.682 467.433 973.034C467.433 973.034 454.702 987.306 447.722 993.373C440.743 999.44 425.791 1009.23 425.791 1009.23C429.326 1008.16 439.813 1002.25 448.714 994.514Z" fill="url(#paint2_linear_668_780)"/>
<path d="M448.714 994.514C461.763 983.171 464.466 976.682 467.433 973.034C467.433 973.034 454.702 987.306 447.722 993.373C440.743 999.44 425.791 1009.23 425.791 1009.23C429.326 1008.16 439.813 1002.25 448.714 994.514Z" stroke="url(#paint3_linear_668_780)" stroke-width="2" stroke-linecap="round"/>
</g>
<g filter="url(#filter2_df_668_780)">
<path d="M467.923 974L467.922 496.001L467.922 33.0001L467.922 487.501L467.923 974Z" stroke="url(#paint4_linear_668_780)" stroke-width="2" stroke-linecap="round"/>
</g>
<defs>
<filter id="filter0_df_668_780" x="419.414" y="-12.1522" width="56.0937" height="55.97" filterUnits="userSpaceOnUse" color-interpolation-filters="sRGB">
<feFlood flood-opacity="0" result="BackgroundImageFix"/>
<feColorMatrix in="SourceAlpha" type="matrix" values="0 0 0 0 0 0 0 0 0 0 0 0 0 0 0 0 0 0 127 0" result="hardAlpha"/>
<feOffset dy="1.65228"/>
<feGaussianBlur stdDeviation="3.88286"/>
<feComposite in2="hardAlpha" operator="out"/>
<feColorMatrix type="matrix" values="0 0 0 0 0 0 0 0 0 0.654902 0 0 0 0 0.992157 0 0 0 1 0"/>
<feBlend mode="normal" in2="BackgroundImageFix" result="effect1_dropShadow_668_780"/>
<feBlend mode="normal" in="SourceGraphic" in2="effect1_dropShadow_668_780" result="shape"/>
<feGaussianBlur stdDeviation="0.892563" result="effect2_foregroundBlur_668_780"/>
</filter>
<filter id="filter1_df_668_780" x="417.478" y="966.255" width="58.4974" height="53.3533" filterUnits="userSpaceOnUse" color-interpolation-filters="sRGB">
<feFlood flood-opacity="0" result="BackgroundImageFix"/>
<feColorMatrix in="SourceAlpha" type="matrix" values="0 0 0 0 0 0 0 0 0 0 0 0 0 0 0 0 0 0 127 0" result="hardAlpha"/>
<feOffset dy="1.65228"/>
<feGaussianBlur stdDeviation="3.88286"/>
<feComposite in2="hardAlpha" operator="out"/>
<feColorMatrix type="matrix" values="0 0 0 0 0 0 0 0 0 0.654902 0 0 0 0 0.992157 0 0 0 1 0"/>
<feBlend mode="normal" in2="BackgroundImageFix" result="effect1_dropShadow_668_780"/>
<feBlend mode="normal" in="SourceGraphic" in2="effect1_dropShadow_668_780" result="shape"/>
<feGaussianBlur stdDeviation="0.892563" result="effect2_foregroundBlur_668_780"/>
</filter>
<filter id="filter2_df_668_780" x="459.156" y="25.8866" width="17.5324" height="958.531" filterUnits="userSpaceOnUse" color-interpolation-filters="sRGB">
<feFlood flood-opacity="0" result="BackgroundImageFix"/>
<feColorMatrix in="SourceAlpha" type="matrix" values="0 0 0 0 0 0 0 0 0 0 0 0 0 0 0 0 0 0 127 0" result="hardAlpha"/>
<feOffset dy="1.65228"/>
<feGaussianBlur stdDeviation="3.88286"/>
<feComposite in2="hardAlpha" operator="out"/>
<feColorMatrix type="matrix" values="0 0 0 0 0 0 0 0 0 0.654902 0 0 0 0 0.992157 0 0 0 1 0"/>
<feBlend mode="normal" in2="BackgroundImageFix" result="effect1_dropShadow_668_780"/>
<feBlend mode="normal" in="SourceGraphic" in2="effect1_dropShadow_668_780" result="shape"/>
<feGaussianBlur stdDeviation="0.892563" result="effect2_foregroundBlur_668_780"/>
</filter>
<linearGradient id="paint0_linear_668_780" x1="450.078" y1="11.5078" x2="447.299" y2="14.287" gradientUnits="userSpaceOnUse">
<stop offset="0.1875" stop-color="#25C9FF"/>
<stop offset="0.822917" stop-color="#11A1EF"/>
</linearGradient>
<linearGradient id="paint1_linear_668_780" x1="450.078" y1="11.5078" x2="447.299" y2="14.287" gradientUnits="userSpaceOnUse">
<stop offset="0.1875" stop-color="#25C9FF"/>
<stop offset="0.822917" stop-color="#11A1EF"/>
</linearGradient>
<linearGradient id="paint2_linear_668_780" x1="449.191" y1="994.1" x2="446.612" y2="991.133" gradientUnits="userSpaceOnUse">
<stop offset="0.1875" stop-color="#25C9FF"/>
<stop offset="0.822917" stop-color="#11A1EF"/>
</linearGradient>
<linearGradient id="paint3_linear_668_780" x1="449.191" y1="994.1" x2="446.612" y2="991.133" gradientUnits="userSpaceOnUse">
<stop offset="0.1875" stop-color="#25C9FF"/>
<stop offset="0.822917" stop-color="#11A1EF"/>
</linearGradient>
<linearGradient id="paint4_linear_668_780" x1="485.791" y1="466.881" x2="488.421" y2="463.961" gradientUnits="userSpaceOnUse">
<stop offset="0.1875" stop-color="#25C9FF"/>
<stop offset="0.822917" stop-color="#11A1EF"/>
</linearGradient>
</defs>
</svg>
