<svg width="138" height="159" viewBox="0 0 138 159" fill="none" xmlns="http://www.w3.org/2000/svg">
<path d="M136.445 94.1777C135.845 90.2777 134.545 86.8776 129.845 87.0776C129.645 87.0776 129.245 87.1776 129.145 87.0776C115.545 88.1776 115.045 112.978 117.545 117.978C120.745 122.178 125.645 119.978 125.845 119.978C127.845 119.278 129.545 117.478 130.745 115.878C135.345 109.278 137.745 102.178 136.445 94.1777Z" fill="url(#paint0_linear_3_3488)"/>
<path d="M130.245 88.8776C132.845 88.8776 134.045 90.3777 134.645 94.4777C135.745 101.378 133.945 107.978 129.245 114.678C127.945 116.478 126.545 117.678 125.245 118.178C125.245 118.178 125.145 118.178 125.145 118.278C124.345 118.578 123.445 118.778 122.645 118.778C121.145 118.778 120.045 118.178 119.045 117.078C117.645 113.978 117.345 101.878 121.545 94.5776C123.445 91.2776 125.945 89.3776 128.945 89.0776C129.045 89.0776 129.145 89.0776 129.245 89.0776C129.345 89.0776 129.545 89.0776 129.745 89.0776H129.845C130.045 88.8776 130.145 88.8776 130.245 88.8776ZM130.245 87.0776C130.145 87.0776 129.945 87.0776 129.845 87.0776C129.745 87.0776 129.545 87.0776 129.345 87.0776C129.245 87.0776 129.145 87.0776 129.145 87.0776C115.545 88.1776 115.045 112.978 117.545 117.978C119.045 119.978 121.045 120.578 122.645 120.578C124.345 120.578 125.745 119.978 125.845 119.978C127.845 119.278 129.545 117.478 130.745 115.878C135.345 109.378 137.745 102.378 136.445 94.3776C135.845 90.4776 134.645 87.0776 130.245 87.0776Z" fill="url(#paint1_linear_3_3488)"/>
<path d="M136.945 95.7776C136.345 91.8776 135.045 88.3776 130.245 88.5776C130.045 88.5776 129.645 88.6776 129.545 88.5776C115.845 89.6776 115.345 114.678 117.845 119.778C121.045 123.978 126.045 121.778 126.245 121.778C128.245 121.078 130.045 119.278 131.245 117.578C135.845 110.978 138.245 103.878 136.945 95.7776Z" fill="url(#paint2_radial_3_3488)"/>
<path d="M130.645 90.3776C133.245 90.3776 134.445 91.8776 135.145 96.0776C136.245 103.078 134.445 109.778 129.745 116.478C128.445 118.278 127.045 119.578 125.645 119.978C125.645 119.978 125.545 119.978 125.545 120.078C124.745 120.378 123.845 120.578 123.045 120.578C121.545 120.578 120.345 119.978 119.445 118.878C118.045 115.678 117.745 103.578 121.945 96.0776C123.845 92.6776 126.345 90.8777 129.445 90.4777C129.545 90.4777 129.645 90.4777 129.745 90.4777C129.845 90.4777 130.045 90.4777 130.245 90.4777H130.345C130.445 90.3777 130.545 90.3776 130.645 90.3776ZM130.645 88.5776C130.545 88.5776 130.345 88.5776 130.245 88.5776C130.145 88.5776 129.945 88.5776 129.745 88.5776C129.645 88.5776 129.545 88.5776 129.545 88.5776C115.845 89.6776 115.345 114.678 117.845 119.778C119.445 121.878 121.345 122.378 123.045 122.378C124.745 122.378 126.145 121.778 126.245 121.778C128.245 121.078 130.045 119.278 131.245 117.578C135.845 111.078 138.245 103.878 137.045 95.8776C136.345 91.9776 135.145 88.5776 130.645 88.5776Z" fill="url(#paint3_linear_3_3488)"/>
<mask id="mask0_3_3488" style="mask-type:luminance" maskUnits="userSpaceOnUse" x="0" y="0" width="133" height="159">
<path d="M12.2448 86.4777C11.4448 83.5777 10.5448 80.8777 10.0448 78.1777C9.44481 75.0777 8.94479 72.0776 8.74479 68.8776C8.64479 66.8776 8.3448 64.9777 8.4448 62.9777C8.8448 54.0777 10.3448 45.3777 14.0448 37.1777C16.8448 30.7777 20.6448 25.0776 25.3448 19.8776C31.3448 13.3776 38.3448 8.47768 46.3448 4.97768C51.4448 2.77768 56.7448 1.27768 62.2448 0.47768C67.2448 -0.22232 72.3448 -0.122344 77.4448 0.577656C83.7448 1.47766 89.7448 3.17768 95.5448 5.97768C99.7448 7.97768 103.745 10.3776 107.345 13.3776C113.645 18.4776 118.845 24.4777 122.945 31.4777C126.745 37.9777 129.345 44.9776 130.945 52.3776C131.745 56.1776 132.145 59.9777 132.345 63.7777C132.545 72.6777 130.945 78.6777 130.245 82.0777C129.945 83.3777 129.645 84.5776 129.345 85.8776C123.345 108.678 125.345 113.578 125.245 119.878C125.345 126.478 121.345 133.278 117.345 138.278C112.345 144.378 106.445 149.378 99.6448 153.378C92.0448 157.878 83.7448 159.578 74.9448 158.278C68.0448 157.278 61.9448 154.278 56.0448 150.778C49.7448 147.078 44.0448 142.778 38.8448 137.778C34.7448 133.878 31.0448 129.478 28.0448 124.678C27.1448 123.278 26.2448 122.478 24.4448 122.678C19.8448 123.178 15.8448 121.378 12.3448 118.578C6.4448 113.778 2.0448 107.878 0.444801 100.278C-0.255199 97.0777 -0.355205 93.7776 1.84479 90.8776C4.14479 87.9776 7.24479 86.8777 10.7448 86.4777C10.9448 86.4777 11.1448 86.4777 11.4448 86.4777C11.5448 86.5777 11.7448 86.5777 12.2448 86.4777Z" fill="white"/>
</mask>
<g mask="url(#mask0_3_3488)">
<path d="M129.245 85.9777C129.545 84.6777 129.945 83.4777 130.145 82.1777C130.845 78.8777 132.445 72.8776 132.245 63.8776C131.945 59.9776 131.645 56.1777 130.845 52.4777C129.245 45.0777 126.645 38.0776 122.845 31.5776C118.745 24.5776 113.545 18.5777 107.245 13.4777C103.645 10.5777 99.6449 8.07763 95.4449 6.07763C89.6449 3.37763 83.6448 1.57767 77.3448 0.677665C72.2448 -0.0223346 67.2449 -0.122371 62.1449 0.577629C56.6449 1.27763 51.3448 2.77763 46.2448 5.07763C38.2448 8.57763 31.1448 13.4777 25.2448 19.9777C20.5448 25.0777 16.7449 30.8776 13.9449 37.2776C10.3449 45.4776 8.74485 54.1776 8.34485 63.0776C8.24485 65.0776 8.54486 66.9777 8.64486 68.9777C8.84486 72.0777 9.34485 75.1776 9.94485 78.2776C10.4449 81.0776 11.3449 83.7776 12.1449 86.5776C11.6449 86.6776 11.4448 86.6777 11.2448 86.6777C11.0448 86.6777 10.8449 86.6777 10.5449 86.6777C7.04486 87.0777 3.94486 88.1776 1.64486 91.0776C-0.555136 93.9776 -0.45516 97.2777 0.24484 100.478C1.84484 108.078 6.14486 113.978 12.1449 118.778C15.6449 121.578 19.6448 123.378 24.2448 122.878C26.0448 122.678 27.0448 123.378 27.8448 124.878C30.8448 129.778 34.4449 134.078 38.6449 137.978C43.8449 142.978 49.6448 147.278 55.8448 150.978C61.7448 154.478 67.8448 157.478 74.7448 158.478C83.6448 159.778 91.8449 158.078 99.4449 153.578C106.145 149.578 112.145 144.578 117.145 138.478C121.245 133.478 124.245 128.578 125.145 122.078C125.245 121.578 125.845 115.978 125.145 112.478C124.845 106.578 129.145 86.3777 129.245 85.9777Z" fill="url(#paint4_radial_3_3488)"/>
<path d="M69.1449 1.97766C71.7449 1.97766 74.3449 2.17764 77.0449 2.57764C83.4449 3.47764 89.1449 5.17765 94.6449 7.77765C98.8449 9.77765 102.645 12.1776 106.145 14.8776C112.245 19.8776 117.345 25.7777 121.245 32.4777C124.845 38.6777 127.445 45.4776 129.045 52.8776C129.945 56.8776 130.245 60.9777 130.445 63.9777C130.645 71.6777 129.445 77.0776 128.645 80.5776C128.545 80.9776 128.445 81.3776 128.345 81.7776C128.145 82.5776 127.945 83.2777 127.745 84.1777C127.645 84.6777 127.545 85.0776 127.345 85.5776C127.345 85.7776 122.845 106.278 123.245 112.478V112.578V112.678C123.845 115.778 123.345 121.078 123.245 121.678C122.345 128.278 118.945 133.278 115.645 137.178C110.945 142.878 105.145 147.878 98.4449 151.778C92.7449 155.178 86.6448 156.878 80.3448 156.878C78.5448 156.878 76.7449 156.778 74.9449 156.478C68.1449 155.478 62.1449 152.378 56.6449 149.178C50.7449 145.678 45.0448 141.478 39.7448 136.478C35.5448 132.578 32.0448 128.278 29.2448 123.678C28.4448 122.378 27.1449 120.778 24.6449 120.778C24.4449 120.778 24.1448 120.778 23.8448 120.778C23.3448 120.778 22.9449 120.878 22.4449 120.878C19.2449 120.878 16.1449 119.578 13.0449 117.178C6.84486 112.178 3.24485 106.578 1.84485 99.8776C1.14485 96.2776 1.44485 93.9777 2.94485 91.9777C4.64485 89.7777 6.94486 88.6776 10.6449 88.2776H10.7448C10.8448 88.2776 10.8449 88.2776 10.9449 88.2776C11.0449 88.2776 11.1448 88.2776 11.2448 88.2776C11.4448 88.2776 11.6448 88.2777 11.8448 88.1777L12.2448 88.0776L14.2448 87.7776L13.7448 85.7776C13.5448 84.8776 13.2449 84.0777 13.0449 83.1777C12.4449 81.2777 11.9449 79.3776 11.5449 77.5776C11.0449 74.8776 10.4448 71.6776 10.2448 68.5776C10.2448 67.8776 10.1449 67.2776 10.1449 66.5776C10.0449 65.2776 9.94485 64.0776 9.94485 62.8776C10.4449 53.1776 12.1448 44.9777 15.3448 37.6777C18.1448 31.3777 21.7448 25.8776 26.3448 20.8776C32.0448 14.6776 38.7448 9.97762 46.7448 6.37762C51.6448 4.27762 56.8449 2.77764 62.1449 2.07764C64.6449 2.07764 66.9449 1.97766 69.1449 1.97766ZM69.1449 0.177673C66.8449 0.177673 64.4449 0.377673 62.1449 0.677673C56.6449 1.37767 51.3448 2.87767 46.2448 5.17767C38.2448 8.67767 31.1448 13.5776 25.2448 20.0776C20.5448 25.1776 16.7449 30.9776 13.9449 37.3776C10.3449 45.5776 8.74485 54.2777 8.34485 63.1777C8.24485 65.1777 8.54486 67.0776 8.64486 69.0776C8.84486 72.1776 9.34485 75.2776 9.94485 78.3776C10.4449 81.1776 11.3449 83.8777 12.1449 86.6777C11.6449 86.7777 11.4448 86.7776 11.2448 86.7776C11.1448 86.7776 11.1449 86.7776 11.0449 86.7776C10.9449 86.7776 10.8448 86.7776 10.7448 86.7776C10.6448 86.7776 10.6449 86.7776 10.5449 86.7776C7.04486 87.1776 3.94486 88.2777 1.64486 91.1777C-0.555136 94.0777 -0.45516 97.3776 0.24484 100.578C1.84484 108.178 6.14486 114.078 12.1449 118.878C15.2449 121.378 18.7448 122.978 22.7448 122.978C23.2448 122.978 23.7448 122.978 24.3448 122.878C24.5448 122.878 24.7449 122.878 24.9449 122.878C26.4449 122.878 27.2449 123.578 28.0449 124.878C31.0449 129.778 34.6448 134.078 38.8448 137.978C44.0448 142.978 49.8449 147.278 56.0449 150.978C61.9449 154.478 68.0449 157.478 74.9449 158.478C76.8449 158.778 78.7449 158.878 80.6449 158.878C87.3449 158.878 93.7448 157.078 99.7448 153.478C106.445 149.478 112.445 144.478 117.445 138.378C121.545 133.378 124.545 128.478 125.445 121.978C125.545 121.478 126.145 115.878 125.445 112.378C125.045 106.578 129.345 86.3777 129.445 85.9777C129.745 84.6777 130.145 83.4777 130.345 82.1777C131.045 78.8777 132.645 72.8776 132.445 63.8776C132.145 59.9776 131.845 56.1777 131.045 52.4777C129.445 45.0777 126.845 38.0776 123.045 31.5776C118.945 24.5776 113.745 18.5777 107.445 13.4777C103.845 10.5777 99.8449 8.07764 95.6449 6.07764C89.8449 3.37764 83.8449 1.57767 77.5449 0.677673C74.6449 0.377673 71.9449 0.177673 69.1449 0.177673Z" fill="url(#paint5_linear_3_3488)"/>
</g>
<mask id="mask1_3_3488" style="mask-type:luminance" maskUnits="userSpaceOnUse" x="0" y="0" width="133" height="159">
<path d="M12.2448 86.4777C11.4448 83.5777 10.5448 80.8777 10.0448 78.1777C9.44481 75.0777 8.94479 72.0776 8.74479 68.8776C8.64479 66.8776 8.3448 64.9777 8.4448 62.9777C8.8448 54.0777 10.3448 45.3777 14.0448 37.1777C16.8448 30.7777 20.6448 25.0776 25.3448 19.8776C31.3448 13.3776 38.3448 8.47768 46.3448 4.97768C51.4448 2.77768 56.7448 1.27768 62.2448 0.47768C67.2448 -0.22232 72.3448 -0.122344 77.4448 0.577656C83.7448 1.47766 89.7448 3.17768 95.5448 5.97768C99.7448 7.97768 103.745 10.3776 107.345 13.3776C113.645 18.4776 118.845 24.4777 122.945 31.4777C126.745 37.9777 129.345 44.9776 130.945 52.3776C131.745 56.1776 132.145 59.9777 132.345 63.7777C132.545 72.6777 130.945 78.6777 130.245 82.0777C129.945 83.3777 129.645 84.5776 129.345 85.8776C123.345 108.678 125.345 113.578 125.245 119.878C125.345 126.478 121.345 133.278 117.345 138.278C112.345 144.378 106.445 149.378 99.6448 153.378C92.0448 157.878 83.7448 159.578 74.9448 158.278C68.0448 157.278 61.9448 154.278 56.0448 150.778C49.7448 147.078 44.0448 142.778 38.8448 137.778C34.7448 133.878 31.0448 129.478 28.0448 124.678C27.1448 123.278 26.2448 122.478 24.4448 122.678C19.8448 123.178 15.8448 121.378 12.3448 118.578C6.4448 113.778 2.0448 107.878 0.444801 100.278C-0.255199 97.0777 -0.355205 93.7776 1.84479 90.8776C4.14479 87.9776 7.24479 86.8777 10.7448 86.4777C10.9448 86.4777 11.1448 86.4777 11.4448 86.4777C11.5448 86.5777 11.7448 86.5777 12.2448 86.4777Z" fill="white"/>
</mask>
<g mask="url(#mask1_3_3488)">
<path d="M88.7449 167.378C114.702 167.378 135.745 146.335 135.745 120.378C135.745 94.4202 114.702 73.3776 88.7449 73.3776C62.7875 73.3776 41.7449 94.4202 41.7449 120.378C41.7449 146.335 62.7875 167.378 88.7449 167.378Z" fill="url(#paint6_radial_3_3488)"/>
</g>
<mask id="mask2_3_3488" style="mask-type:luminance" maskUnits="userSpaceOnUse" x="0" y="0" width="133" height="159">
<path d="M12.2448 86.4777C11.4448 83.5777 10.5448 80.8777 10.0448 78.1777C9.44481 75.0777 8.94479 72.0776 8.74479 68.8776C8.64479 66.8776 8.3448 64.9777 8.4448 62.9777C8.8448 54.0777 10.3448 45.3777 14.0448 37.1777C16.8448 30.7777 20.6448 25.0776 25.3448 19.8776C31.3448 13.3776 38.3448 8.47768 46.3448 4.97768C51.4448 2.77768 56.7448 1.27768 62.2448 0.47768C67.2448 -0.22232 72.3448 -0.122344 77.4448 0.577656C83.7448 1.47766 89.7448 3.17768 95.5448 5.97768C99.7448 7.97768 103.745 10.3776 107.345 13.3776C113.645 18.4776 118.845 24.4777 122.945 31.4777C126.745 37.9777 129.345 44.9776 130.945 52.3776C131.745 56.1776 132.145 59.9777 132.345 63.7777C132.545 72.6777 130.945 78.6777 130.245 82.0777C129.945 83.3777 129.645 84.5776 129.345 85.8776C123.345 108.678 125.345 113.578 125.245 119.878C125.345 126.478 121.345 133.278 117.345 138.278C112.345 144.378 106.445 149.378 99.6448 153.378C92.0448 157.878 83.7448 159.578 74.9448 158.278C68.0448 157.278 61.9448 154.278 56.0448 150.778C49.7448 147.078 44.0448 142.778 38.8448 137.778C34.7448 133.878 31.0448 129.478 28.0448 124.678C27.1448 123.278 26.2448 122.478 24.4448 122.678C19.8448 123.178 15.8448 121.378 12.3448 118.578C6.4448 113.778 2.0448 107.878 0.444801 100.278C-0.255199 97.0777 -0.355205 93.7776 1.84479 90.8776C4.14479 87.9776 7.24479 86.8777 10.7448 86.4777C10.9448 86.4777 11.1448 86.4777 11.4448 86.4777C11.5448 86.5777 11.7448 86.5777 12.2448 86.4777Z" fill="white"/>
</mask>
<g mask="url(#mask2_3_3488)">
<path d="M63.4447 143.878C77.8594 143.878 89.5447 132.192 89.5447 117.778C89.5447 103.363 77.8594 91.6777 63.4447 91.6777C49.0301 91.6777 37.3447 103.363 37.3447 117.778C37.3447 132.192 49.0301 143.878 63.4447 143.878Z" fill="url(#paint7_radial_3_3488)"/>
</g>
<mask id="mask3_3_3488" style="mask-type:luminance" maskUnits="userSpaceOnUse" x="0" y="0" width="133" height="159">
<path d="M12.2448 86.4777C11.4448 83.5777 10.5448 80.8777 10.0448 78.1777C9.44481 75.0777 8.94479 72.0776 8.74479 68.8776C8.64479 66.8776 8.3448 64.9777 8.4448 62.9777C8.8448 54.0777 10.3448 45.3777 14.0448 37.1777C16.8448 30.7777 20.6448 25.0776 25.3448 19.8776C31.3448 13.3776 38.3448 8.47768 46.3448 4.97768C51.4448 2.77768 56.7448 1.27768 62.2448 0.47768C67.2448 -0.22232 72.3448 -0.122344 77.4448 0.577656C83.7448 1.47766 89.7448 3.17768 95.5448 5.97768C99.7448 7.97768 103.745 10.3776 107.345 13.3776C113.645 18.4776 118.845 24.4777 122.945 31.4777C126.745 37.9777 129.345 44.9776 130.945 52.3776C131.745 56.1776 132.145 59.9777 132.345 63.7777C132.545 72.6777 130.945 78.6777 130.245 82.0777C129.945 83.3777 129.645 84.5776 129.345 85.8776C123.345 108.678 125.345 113.578 125.245 119.878C125.345 126.478 121.345 133.278 117.345 138.278C112.345 144.378 106.445 149.378 99.6448 153.378C92.0448 157.878 83.7448 159.578 74.9448 158.278C68.0448 157.278 61.9448 154.278 56.0448 150.778C49.7448 147.078 44.0448 142.778 38.8448 137.778C34.7448 133.878 31.0448 129.478 28.0448 124.678C27.1448 123.278 26.2448 122.478 24.4448 122.678C19.8448 123.178 15.8448 121.378 12.3448 118.578C6.4448 113.778 2.0448 107.878 0.444801 100.278C-0.255199 97.0777 -0.355205 93.7776 1.84479 90.8776C4.14479 87.9776 7.24479 86.8777 10.7448 86.4777C10.9448 86.4777 11.1448 86.4777 11.4448 86.4777C11.5448 86.5777 11.7448 86.5777 12.2448 86.4777Z" fill="white"/>
</mask>
<g mask="url(#mask3_3_3488)">
<path d="M95.3449 126.078C103.795 126.078 110.645 119.228 110.645 110.778C110.645 102.328 103.795 95.4777 95.3449 95.4777C86.895 95.4777 80.0449 102.328 80.0449 110.778C80.0449 119.228 86.895 126.078 95.3449 126.078Z" fill="url(#paint8_radial_3_3488)"/>
</g>
<mask id="mask4_3_3488" style="mask-type:luminance" maskUnits="userSpaceOnUse" x="0" y="0" width="133" height="159">
<path d="M12.2448 86.4777C11.4448 83.5777 10.5448 80.8777 10.0448 78.1777C9.44481 75.0777 8.94479 72.0776 8.74479 68.8776C8.64479 66.8776 8.3448 64.9777 8.4448 62.9777C8.8448 54.0777 10.3448 45.3777 14.0448 37.1777C16.8448 30.7777 20.6448 25.0776 25.3448 19.8776C31.3448 13.3776 38.3448 8.47768 46.3448 4.97768C51.4448 2.77768 56.7448 1.27768 62.2448 0.47768C67.2448 -0.22232 72.3448 -0.122344 77.4448 0.577656C83.7448 1.47766 89.7448 3.17768 95.5448 5.97768C99.7448 7.97768 103.745 10.3776 107.345 13.3776C113.645 18.4776 118.845 24.4777 122.945 31.4777C126.745 37.9777 129.345 44.9776 130.945 52.3776C131.745 56.1776 132.145 59.9777 132.345 63.7777C132.545 72.6777 130.945 78.6777 130.245 82.0777C129.945 83.3777 129.645 84.5776 129.345 85.8776C123.345 108.678 125.345 113.578 125.245 119.878C125.345 126.478 121.345 133.278 117.345 138.278C112.345 144.378 106.445 149.378 99.6448 153.378C92.0448 157.878 83.7448 159.578 74.9448 158.278C68.0448 157.278 61.9448 154.278 56.0448 150.778C49.7448 147.078 44.0448 142.778 38.8448 137.778C34.7448 133.878 31.0448 129.478 28.0448 124.678C27.1448 123.278 26.2448 122.478 24.4448 122.678C19.8448 123.178 15.8448 121.378 12.3448 118.578C6.4448 113.778 2.0448 107.878 0.444801 100.278C-0.255199 97.0777 -0.355205 93.7776 1.84479 90.8776C4.14479 87.9776 7.24479 86.8777 10.7448 86.4777C10.9448 86.4777 11.1448 86.4777 11.4448 86.4777C11.5448 86.5777 11.7448 86.5777 12.2448 86.4777Z" fill="white"/>
</mask>
<g mask="url(#mask4_3_3488)">
<path d="M115.045 142.978C129.459 142.978 141.145 131.292 141.145 116.878C141.145 102.463 129.459 90.7776 115.045 90.7776C100.63 90.7776 88.9448 102.463 88.9448 116.878C88.9448 131.292 100.63 142.978 115.045 142.978Z" fill="url(#paint9_radial_3_3488)"/>
</g>
<mask id="mask5_3_3488" style="mask-type:luminance" maskUnits="userSpaceOnUse" x="0" y="0" width="133" height="159">
<path d="M12.2448 86.4777C11.4448 83.5777 10.5448 80.8777 10.0448 78.1777C9.44481 75.0777 8.94479 72.0776 8.74479 68.8776C8.64479 66.8776 8.3448 64.9777 8.4448 62.9777C8.8448 54.0777 10.3448 45.3777 14.0448 37.1777C16.8448 30.7777 20.6448 25.0776 25.3448 19.8776C31.3448 13.3776 38.3448 8.47768 46.3448 4.97768C51.4448 2.77768 56.7448 1.27768 62.2448 0.47768C67.2448 -0.22232 72.3448 -0.122344 77.4448 0.577656C83.7448 1.47766 89.7448 3.17768 95.5448 5.97768C99.7448 7.97768 103.745 10.3776 107.345 13.3776C113.645 18.4776 118.845 24.4777 122.945 31.4777C126.745 37.9777 129.345 44.9776 130.945 52.3776C131.745 56.1776 132.145 59.9777 132.345 63.7777C132.545 72.6777 130.945 78.6777 130.245 82.0777C129.945 83.3777 129.645 84.5776 129.345 85.8776C123.345 108.678 125.345 113.578 125.245 119.878C125.345 126.478 121.345 133.278 117.345 138.278C112.345 144.378 106.445 149.378 99.6448 153.378C92.0448 157.878 83.7448 159.578 74.9448 158.278C68.0448 157.278 61.9448 154.278 56.0448 150.778C49.7448 147.078 44.0448 142.778 38.8448 137.778C34.7448 133.878 31.0448 129.478 28.0448 124.678C27.1448 123.278 26.2448 122.478 24.4448 122.678C19.8448 123.178 15.8448 121.378 12.3448 118.578C6.4448 113.778 2.0448 107.878 0.444801 100.278C-0.255199 97.0777 -0.355205 93.7776 1.84479 90.8776C4.14479 87.9776 7.24479 86.8777 10.7448 86.4777C10.9448 86.4777 11.1448 86.4777 11.4448 86.4777C11.5448 86.5777 11.7448 86.5777 12.2448 86.4777Z" fill="white"/>
</mask>
<g mask="url(#mask5_3_3488)">
<path d="M77.2449 114.078C103.202 114.078 124.245 93.035 124.245 67.0776C124.245 41.1203 103.202 20.0776 77.2449 20.0776C51.2875 20.0776 30.2449 41.1203 30.2449 67.0776C30.2449 93.035 51.2875 114.078 77.2449 114.078Z" fill="url(#paint10_radial_3_3488)"/>
</g>
<mask id="mask6_3_3488" style="mask-type:luminance" maskUnits="userSpaceOnUse" x="0" y="0" width="133" height="159">
<path d="M12.2448 86.4777C11.4448 83.5777 10.5448 80.8777 10.0448 78.1777C9.44481 75.0777 8.94479 72.0776 8.74479 68.8776C8.64479 66.8776 8.3448 64.9777 8.4448 62.9777C8.8448 54.0777 10.3448 45.3777 14.0448 37.1777C16.8448 30.7777 20.6448 25.0776 25.3448 19.8776C31.3448 13.3776 38.3448 8.47768 46.3448 4.97768C51.4448 2.77768 56.7448 1.27768 62.2448 0.47768C67.2448 -0.22232 72.3448 -0.122344 77.4448 0.577656C83.7448 1.47766 89.7448 3.17768 95.5448 5.97768C99.7448 7.97768 103.745 10.3776 107.345 13.3776C113.645 18.4776 118.845 24.4777 122.945 31.4777C126.745 37.9777 129.345 44.9776 130.945 52.3776C131.745 56.1776 132.145 59.9777 132.345 63.7777C132.545 72.6777 130.945 78.6777 130.245 82.0777C129.945 83.3777 129.645 84.5776 129.345 85.8776C123.345 108.678 125.345 113.578 125.245 119.878C125.345 126.478 121.345 133.278 117.345 138.278C112.345 144.378 106.445 149.378 99.6448 153.378C92.0448 157.878 83.7448 159.578 74.9448 158.278C68.0448 157.278 61.9448 154.278 56.0448 150.778C49.7448 147.078 44.0448 142.778 38.8448 137.778C34.7448 133.878 31.0448 129.478 28.0448 124.678C27.1448 123.278 26.2448 122.478 24.4448 122.678C19.8448 123.178 15.8448 121.378 12.3448 118.578C6.4448 113.778 2.0448 107.878 0.444801 100.278C-0.255199 97.0777 -0.355205 93.7776 1.84479 90.8776C4.14479 87.9776 7.24479 86.8777 10.7448 86.4777C10.9448 86.4777 11.1448 86.4777 11.4448 86.4777C11.5448 86.5777 11.7448 86.5777 12.2448 86.4777Z" fill="white"/>
</mask>
<g mask="url(#mask6_3_3488)">
<path d="M30.4448 100.478C34.1448 111.378 30.5448 122.478 22.5448 125.178C14.4448 127.878 4.94478 121.278 1.24478 110.378C-2.45522 99.4776 1.14481 88.3777 9.14481 85.6777C17.2448 82.9777 26.8448 89.5776 30.4448 100.478Z" fill="url(#paint11_radial_3_3488)"/>
</g>
<mask id="mask7_3_3488" style="mask-type:luminance" maskUnits="userSpaceOnUse" x="0" y="0" width="133" height="159">
<path d="M12.2448 86.4777C11.4448 83.5777 10.5448 80.8777 10.0448 78.1777C9.44481 75.0777 8.94479 72.0776 8.74479 68.8776C8.64479 66.8776 8.3448 64.9777 8.4448 62.9777C8.8448 54.0777 10.3448 45.3777 14.0448 37.1777C16.8448 30.7777 20.6448 25.0776 25.3448 19.8776C31.3448 13.3776 38.3448 8.47768 46.3448 4.97768C51.4448 2.77768 56.7448 1.27768 62.2448 0.47768C67.2448 -0.22232 72.3448 -0.122344 77.4448 0.577656C83.7448 1.47766 89.7448 3.17768 95.5448 5.97768C99.7448 7.97768 103.745 10.3776 107.345 13.3776C113.645 18.4776 118.845 24.4777 122.945 31.4777C126.745 37.9777 129.345 44.9776 130.945 52.3776C131.745 56.1776 132.145 59.9777 132.345 63.7777C132.545 72.6777 130.945 78.6777 130.245 82.0777C129.945 83.3777 129.645 84.5776 129.345 85.8776C123.345 108.678 125.345 113.578 125.245 119.878C125.345 126.478 121.345 133.278 117.345 138.278C112.345 144.378 106.445 149.378 99.6448 153.378C92.0448 157.878 83.7448 159.578 74.9448 158.278C68.0448 157.278 61.9448 154.278 56.0448 150.778C49.7448 147.078 44.0448 142.778 38.8448 137.778C34.7448 133.878 31.0448 129.478 28.0448 124.678C27.1448 123.278 26.2448 122.478 24.4448 122.678C19.8448 123.178 15.8448 121.378 12.3448 118.578C6.4448 113.778 2.0448 107.878 0.444801 100.278C-0.255199 97.0777 -0.355205 93.7776 1.84479 90.8776C4.14479 87.9776 7.24479 86.8777 10.7448 86.4777C10.9448 86.4777 11.1448 86.4777 11.4448 86.4777C11.5448 86.5777 11.7448 86.5777 12.2448 86.4777Z" fill="white"/>
</mask>
<g mask="url(#mask7_3_3488)">
<path d="M90.3448 119.978C113.209 119.978 131.745 101.442 131.745 78.5776C131.745 55.713 113.209 37.1777 90.3448 37.1777C67.4802 37.1777 48.9448 55.713 48.9448 78.5776C48.9448 101.442 67.4802 119.978 90.3448 119.978Z" fill="url(#paint12_radial_3_3488)"/>
</g>
<mask id="mask8_3_3488" style="mask-type:luminance" maskUnits="userSpaceOnUse" x="0" y="0" width="133" height="159">
<path d="M12.2448 86.4777C11.4448 83.5777 10.5448 80.8777 10.0448 78.1777C9.44481 75.0777 8.94479 72.0776 8.74479 68.8776C8.64479 66.8776 8.3448 64.9777 8.4448 62.9777C8.8448 54.0777 10.3448 45.3777 14.0448 37.1777C16.8448 30.7777 20.6448 25.0776 25.3448 19.8776C31.3448 13.3776 38.3448 8.47768 46.3448 4.97768C51.4448 2.77768 56.7448 1.27768 62.2448 0.47768C67.2448 -0.22232 72.3448 -0.122344 77.4448 0.577656C83.7448 1.47766 89.7448 3.17768 95.5448 5.97768C99.7448 7.97768 103.745 10.3776 107.345 13.3776C113.645 18.4776 118.845 24.4777 122.945 31.4777C126.745 37.9777 129.345 44.9776 130.945 52.3776C131.745 56.1776 132.145 59.9777 132.345 63.7777C132.545 72.6777 130.945 78.6777 130.245 82.0777C129.945 83.3777 129.645 84.5776 129.345 85.8776C123.345 108.678 125.345 113.578 125.245 119.878C125.345 126.478 121.345 133.278 117.345 138.278C112.345 144.378 106.445 149.378 99.6448 153.378C92.0448 157.878 83.7448 159.578 74.9448 158.278C68.0448 157.278 61.9448 154.278 56.0448 150.778C49.7448 147.078 44.0448 142.778 38.8448 137.778C34.7448 133.878 31.0448 129.478 28.0448 124.678C27.1448 123.278 26.2448 122.478 24.4448 122.678C19.8448 123.178 15.8448 121.378 12.3448 118.578C6.4448 113.778 2.0448 107.878 0.444801 100.278C-0.255199 97.0777 -0.355205 93.7776 1.84479 90.8776C4.14479 87.9776 7.24479 86.8777 10.7448 86.4777C10.9448 86.4777 11.1448 86.4777 11.4448 86.4777C11.5448 86.5777 11.7448 86.5777 12.2448 86.4777Z" fill="white"/>
</mask>
<g mask="url(#mask8_3_3488)">
<g opacity="0.5">
<path d="M24.2448 107.678C23.3448 103.678 20.8448 100.178 18.0448 98.5777C15.2448 96.9777 10.7448 94.9776 8.54478 97.3776C4.24478 102.478 9.64476 108.978 13.7448 111.278C15.8448 112.378 18.1448 113.578 19.2448 113.478C17.4448 111.478 15.7448 107.878 18.2448 106.578C18.6448 106.478 21.3448 105.678 24.2448 107.678Z" fill="#884A5A"/>
</g>
</g>
<path d="M63.6447 136.078C74.58 136.078 83.4447 128.422 83.4447 118.978C83.4447 109.534 74.58 101.878 63.6447 101.878C52.7095 101.878 43.8447 109.534 43.8447 118.978C43.8447 128.422 52.7095 136.078 63.6447 136.078Z" fill="url(#paint13_radial_3_3488)"/>
<path d="M112.645 131.178C120.542 131.178 126.945 124.507 126.945 116.278C126.945 108.049 120.542 101.378 112.645 101.378C104.747 101.378 98.3447 108.049 98.3447 116.278C98.3447 124.507 104.747 131.178 112.645 131.178Z" fill="url(#paint14_radial_3_3488)"/>
<path d="M51.3447 147.978C52.9447 149.078 54.2447 149.878 55.9447 150.878C61.8447 154.378 67.9447 157.378 74.8447 158.378C83.7447 159.678 91.9447 157.978 99.5447 153.478C100.545 152.878 101.445 152.278 102.345 151.678C77.7447 165.878 51.3447 147.978 51.3447 147.978Z" fill="#6A2B3D"/>
<path d="M11.8447 95.5776C12.9447 95.6776 14.3447 95.9777 15.5447 96.6777C19.4447 98.9777 22.4447 102.178 24.7447 105.978C24.9447 106.378 25.1447 106.778 25.3447 107.178C25.5447 107.678 25.6447 108.178 25.1447 108.578C24.7447 108.878 24.3447 108.578 23.9447 108.378C22.5447 107.578 21.1447 107.178 19.5447 107.378C18.4447 107.478 17.3447 107.878 16.9447 109.078C16.5447 110.278 17.3447 111.178 18.2447 111.878C18.6447 112.278 19.2447 112.478 19.6447 112.878C19.9447 113.078 20.2447 113.378 20.0447 113.778C19.8447 114.178 19.4447 114.178 19.1447 114.178C16.3447 113.878 14.2447 110.178 15.6447 107.678C16.1447 106.778 16.4447 106.178 15.9447 105.178C15.2447 103.778 15.8447 102.578 17.2447 101.678C18.5447 100.878 18.6447 100.778 17.3447 99.8776C15.9447 98.7776 14.5447 97.7776 12.8447 97.3776C10.2447 96.7776 8.54472 97.7776 7.94472 100.278C7.84472 100.478 7.94472 100.778 7.84472 100.878C7.74472 101.078 7.54472 101.278 7.44472 101.278C7.14472 101.378 6.94472 101.078 6.84472 100.778C6.64472 100.178 6.74472 99.6776 6.84472 99.0776C7.44472 96.9776 9.24472 95.5776 11.8447 95.5776ZM22.8447 105.878C22.2447 104.478 21.4447 103.678 20.3447 103.178C19.4447 102.778 18.5447 102.678 17.7447 103.378C17.2447 103.778 17.1447 104.278 17.4447 104.978C17.7447 105.478 18.0447 106.178 18.7447 105.878C20.0447 105.278 21.2447 105.778 22.8447 105.878Z" fill="#6A2B3D"/>
<path d="M92.2447 134.278C96.0447 133.778 99.8447 132.978 103.445 131.078C103.945 130.778 104.645 130.578 104.245 129.778C103.945 129.278 103.245 129.278 102.845 129.478C101.345 130.178 100.045 129.478 98.7447 128.978C97.3447 128.478 96.1447 128.278 94.9447 129.378C93.7447 130.378 92.5447 130.278 91.3447 129.078C90.3447 128.078 89.1447 127.978 87.7447 128.278C84.4447 129.078 81.3448 131.478 77.6448 129.878C77.1448 129.678 76.6447 129.978 76.4447 130.578C76.3447 131.078 76.7448 131.378 77.1448 131.578C77.6448 131.778 78.2447 132.078 78.7447 132.178C83.1447 133.378 87.6447 133.678 92.2447 134.278ZM103.245 115.278C103.245 113.078 102.345 111.378 100.745 109.978C98.6447 108.278 96.3448 106.678 95.1448 104.078C94.8448 103.478 94.5447 102.778 93.7447 103.078C92.9447 103.378 93.2447 104.178 93.3447 104.778C93.8447 107.178 95.5447 108.778 97.3447 110.278C101.645 113.878 101.745 114.278 99.7447 119.478C99.5447 119.978 99.0447 120.578 99.7447 120.978C100.445 121.378 101.145 120.978 101.545 120.378C102.545 118.878 103.245 117.178 103.245 115.278ZM99.4447 139.878C98.8447 139.378 98.2447 139.478 97.7447 139.678C95.0447 140.478 92.3448 140.378 89.6448 140.378C88.2448 140.378 86.9447 139.678 85.5447 139.978C85.0447 140.078 84.1447 139.678 84.0447 140.378C83.8447 141.178 84.7447 141.378 85.2447 141.578C87.2447 142.678 89.5447 142.978 91.7447 142.878C94.4447 142.678 97.4447 142.378 99.4447 139.878ZM91.4447 118.378C90.0447 117.978 89.4447 118.878 88.5447 119.178C86.5447 119.878 84.4447 119.178 83.8447 117.378C83.1447 115.478 84.2447 114.378 85.9447 113.778C86.0447 113.778 86.2447 113.678 86.3447 113.678C86.6447 113.478 87.0447 113.378 86.9447 112.878C86.8447 112.478 86.3447 112.478 86.0447 112.478C84.3447 112.178 83.3447 113.278 82.4447 114.378C81.5447 115.478 81.2447 116.578 81.9447 117.978C82.7447 119.678 83.8447 121.078 85.9447 121.078C88.1447 121.278 90.0447 120.578 91.4447 118.378ZM94.0447 121.378C95.6447 121.478 96.7448 120.678 97.6448 119.778C97.9448 119.478 98.0447 118.978 97.7447 118.578C97.6447 118.478 97.2447 118.478 97.2447 118.478C96.3447 119.478 94.6447 119.678 94.0447 121.378Z" fill="#BB6D5E"/>
<path d="M92.2447 134.278C87.6447 133.678 83.1447 133.378 78.7447 132.278C78.1447 132.178 77.6448 131.878 77.1448 131.678C76.7448 131.478 76.3447 131.278 76.4447 130.678C76.6447 130.078 77.1448 129.778 77.6448 129.978C81.3448 131.578 84.4447 129.178 87.7447 128.378C89.1447 128.078 90.3447 128.078 91.3447 129.178C92.5447 130.378 93.7447 130.478 94.9447 129.478C96.1447 128.478 97.4447 128.578 98.7447 129.078C100.045 129.578 101.345 130.278 102.845 129.578C103.245 129.378 103.945 129.378 104.245 129.878C104.545 130.578 103.845 130.878 103.445 131.178C99.8447 132.978 96.0447 133.778 92.2447 134.278Z" fill="#732A28"/>
<path d="M103.245 115.278C103.245 117.178 102.545 118.778 101.545 120.378C101.145 121.078 100.445 121.478 99.7446 120.978C99.0446 120.578 99.5446 119.978 99.7446 119.478C101.745 114.378 101.645 113.878 97.3446 110.278C95.5446 108.778 93.8446 107.278 93.3446 104.778C93.2446 104.178 92.9446 103.378 93.7446 103.078C94.5446 102.778 94.8446 103.478 95.1446 104.078C96.3446 106.678 98.6446 108.278 100.745 109.978C102.345 111.378 103.145 113.178 103.245 115.278Z" fill="#732A28"/>
<path d="M99.4446 139.878C97.4446 142.478 94.4446 142.678 91.7446 142.878C89.5446 142.978 87.2446 142.678 85.2446 141.578C84.7446 141.278 83.8446 141.078 84.0446 140.378C84.2446 139.678 85.0446 140.078 85.5446 139.978C86.9446 139.678 88.2446 140.378 89.6446 140.378C92.3446 140.378 95.1446 140.478 97.7446 139.678C98.2446 139.478 98.7446 139.278 99.4446 139.878Z" fill="#732A28"/>
<path d="M91.4448 118.378C90.0448 120.578 88.1448 121.278 85.8448 121.178C83.7448 121.078 82.6448 119.778 81.8448 118.078C81.1448 116.678 81.4448 115.578 82.3448 114.478C83.2448 113.378 84.2448 112.278 85.9448 112.578C86.2448 112.678 86.7448 112.578 86.8448 112.978C86.9448 113.378 86.5448 113.578 86.2448 113.778C86.1448 113.878 85.9448 113.878 85.8448 113.878C84.1448 114.478 83.0448 115.578 83.7448 117.478C84.3448 119.278 86.5448 119.978 88.4448 119.278C89.3448 118.978 90.0448 118.078 91.4448 118.378Z" fill="#732A28"/>
<path d="M94.0447 121.378C94.6447 119.678 96.3447 119.578 97.2447 118.478C97.3447 118.378 97.7447 118.478 97.7447 118.578C98.0447 118.978 97.9447 119.478 97.6447 119.778C96.7447 120.678 95.7447 121.478 94.0447 121.378Z" fill="#732A28"/>
<path d="M95.0447 117.678C97.6405 117.678 99.7447 115.887 99.7447 113.678C99.7447 111.469 97.6405 109.678 95.0447 109.678C92.449 109.678 90.3447 111.469 90.3447 113.678C90.3447 115.887 92.449 117.678 95.0447 117.678Z" fill="url(#paint15_radial_3_3488)"/>
<g opacity="0.3">
<path d="M81.7447 139.478C86.7447 140.778 91.4447 141.478 96.6447 140.878C97.3447 140.778 97.9447 140.678 98.6447 140.678C99.6447 140.678 100.345 141.878 99.8447 142.878C99.4447 143.678 98.8447 144.478 98.1447 145.178C97.6447 145.678 97.1447 146.078 96.5447 146.378C94.4447 147.578 90.9447 148.178 88.6447 147.778C86.3447 147.478 81.0447 146.078 79.2447 141.578C78.8447 140.578 79.7447 139.178 80.7447 139.278L81.7447 139.478Z" fill="#77233B"/>
</g>
<g opacity="0.3">
<path d="M87.1447 119.578C91.4447 118.378 95.0447 117.478 97.9447 117.878C100.845 118.278 101.645 118.678 101.645 119.678C101.845 123.278 99.1447 125.278 98.7447 125.578C97.1447 126.678 94.3447 127.278 92.5447 126.978C90.7447 126.778 86.5447 125.578 85.2447 121.578C84.9447 120.678 85.6447 119.378 86.4447 119.478L87.1447 119.578Z" fill="#77233B"/>
</g>
<path d="M82.9448 134.378C88.0448 135.078 92.8448 135.378 98.0448 134.978C98.7448 134.878 99.3448 134.878 100.045 134.778C101.145 134.778 101.845 135.478 101.445 136.078C101.045 136.578 100.545 137.078 99.9448 137.478C99.4448 137.778 98.9448 137.978 98.4448 138.278C96.4448 139.078 92.9449 139.478 90.6449 139.278C88.2449 139.178 82.9448 138.378 80.8448 135.778C80.3448 135.178 81.2448 134.278 82.2448 134.378H82.9448Z" fill="url(#paint16_radial_3_3488)"/>
<defs>
<linearGradient id="paint0_linear_3_3488" x1="126.228" y1="86.4218" x2="126.758" y2="113.157" gradientUnits="userSpaceOnUse">
<stop offset="0.4077" stop-color="#B47728"/>
<stop offset="0.7639" stop-color="#B67E2C"/>
<stop offset="0.991" stop-color="#B98530"/>
</linearGradient>
<linearGradient id="paint1_linear_3_3488" x1="134.705" y1="112.107" x2="117.633" y2="95.0356" gradientUnits="userSpaceOnUse">
<stop offset="0.035885" stop-color="#B47728"/>
<stop offset="0.1729" stop-color="#BB7E2C" stop-opacity="0.4631"/>
<stop offset="0.291" stop-color="#C58833" stop-opacity="0"/>
<stop offset="0.9936" stop-color="#B98530" stop-opacity="0"/>
</linearGradient>
<radialGradient id="paint2_radial_3_3488" cx="0" cy="0" r="1" gradientUnits="userSpaceOnUse" gradientTransform="translate(126.972 105.477) scale(13.9895 13.9895)">
<stop offset="0.4077" stop-color="#C16960"/>
<stop offset="0.5483" stop-color="#BA635E"/>
<stop offset="0.7479" stop-color="#A85458"/>
<stop offset="0.9819" stop-color="#893A4D"/>
<stop offset="0.991" stop-color="#88394D"/>
</radialGradient>
<linearGradient id="paint3_linear_3_3488" x1="135.178" y1="113.894" x2="117.935" y2="96.6511" gradientUnits="userSpaceOnUse">
<stop offset="0.035885" stop-color="#D4655D"/>
<stop offset="0.0959941" stop-color="#CD665E" stop-opacity="0.7644"/>
<stop offset="0.1813" stop-color="#BB6761" stop-opacity="0.4299"/>
<stop offset="0.2814" stop-color="#9C6A66" stop-opacity="0.0378988"/>
<stop offset="0.291" stop-color="#996A67" stop-opacity="0"/>
<stop offset="0.5209" stop-color="#955E61" stop-opacity="0"/>
<stop offset="0.9362" stop-color="#8A3E50" stop-opacity="0"/>
<stop offset="0.9936" stop-color="#88394D" stop-opacity="0"/>
</linearGradient>
<radialGradient id="paint4_radial_3_3488" cx="0" cy="0" r="1" gradientUnits="userSpaceOnUse" gradientTransform="translate(92.8316 84.2201) scale(72.5346 72.5346)">
<stop offset="0.4077" stop-color="#C16960"/>
<stop offset="0.5483" stop-color="#BA635E"/>
<stop offset="0.7479" stop-color="#A85458"/>
<stop offset="0.9819" stop-color="#893A4D"/>
<stop offset="0.991" stop-color="#88394D"/>
</radialGradient>
<linearGradient id="paint5_linear_3_3488" x1="7.94364" y1="116.551" x2="130.906" y2="45.5587" gradientUnits="userSpaceOnUse">
<stop offset="0.035885" stop-color="#D4655D"/>
<stop offset="0.0959941" stop-color="#CD665E" stop-opacity="0.7644"/>
<stop offset="0.1813" stop-color="#BB6761" stop-opacity="0.4299"/>
<stop offset="0.2814" stop-color="#9C6A66" stop-opacity="0.0378988"/>
<stop offset="0.291" stop-color="#996A67" stop-opacity="0"/>
<stop offset="0.5209" stop-color="#955E61" stop-opacity="0"/>
<stop offset="0.9362" stop-color="#8A3E50" stop-opacity="0"/>
<stop offset="0.9936" stop-color="#88394D" stop-opacity="0"/>
</linearGradient>
<radialGradient id="paint6_radial_3_3488" cx="0" cy="0" r="1" gradientUnits="userSpaceOnUse" gradientTransform="translate(88.7589 120.357) scale(47.037)">
<stop offset="0.4141" stop-color="#C16960"/>
<stop offset="0.6072" stop-color="#BA645B" stop-opacity="0.6705"/>
<stop offset="0.8967" stop-color="#A5564E" stop-opacity="0.1764"/>
<stop offset="1" stop-color="#9C5048" stop-opacity="0"/>
</radialGradient>
<radialGradient id="paint7_radial_3_3488" cx="0" cy="0" r="1" gradientUnits="userSpaceOnUse" gradientTransform="translate(63.4799 117.802) scale(26.1272 26.1272)">
<stop stop-color="#D7756B"/>
<stop offset="1" stop-color="#D7756B" stop-opacity="0"/>
</radialGradient>
<radialGradient id="paint8_radial_3_3488" cx="0" cy="0" r="1" gradientUnits="userSpaceOnUse" gradientTransform="translate(95.3301 110.764) scale(15.2929 15.2929)">
<stop stop-color="#D7756B"/>
<stop offset="1" stop-color="#D7756B" stop-opacity="0"/>
</radialGradient>
<radialGradient id="paint9_radial_3_3488" cx="0" cy="0" r="1" gradientUnits="userSpaceOnUse" gradientTransform="translate(115.045 116.833) scale(26.1272)">
<stop stop-color="#D7756B"/>
<stop offset="1" stop-color="#D7756B" stop-opacity="0"/>
</radialGradient>
<radialGradient id="paint10_radial_3_3488" cx="0" cy="0" r="1" gradientUnits="userSpaceOnUse" gradientTransform="translate(77.2233 67.0445) scale(47.037)">
<stop offset="0.3705" stop-color="#C16960"/>
<stop offset="1" stop-color="#9C5048" stop-opacity="0"/>
</radialGradient>
<radialGradient id="paint11_radial_3_3488" cx="0" cy="0" r="1" gradientTransform="matrix(14.6399 -4.96682 6.69676 19.738 15.8537 105.466)" gradientUnits="userSpaceOnUse">
<stop offset="0.3705" stop-color="#9C5048"/>
<stop offset="1" stop-color="#9C5048" stop-opacity="0"/>
</radialGradient>
<radialGradient id="paint12_radial_3_3488" cx="0" cy="0" r="1" gradientUnits="userSpaceOnUse" gradientTransform="translate(90.3943 78.5322) scale(41.3781)">
<stop stop-color="#D7756B"/>
<stop offset="1" stop-color="#D7756B" stop-opacity="0"/>
</radialGradient>
<radialGradient id="paint13_radial_3_3488" cx="0" cy="0" r="1" gradientUnits="userSpaceOnUse" gradientTransform="translate(63.6042 119.027) scale(17.1778 13.8745)">
<stop stop-color="#EE8277"/>
<stop offset="1" stop-color="#EE8277" stop-opacity="0"/>
</radialGradient>
<radialGradient id="paint14_radial_3_3488" cx="0" cy="0" r="1" gradientUnits="userSpaceOnUse" gradientTransform="translate(112.65 116.33) scale(12.4388 12.1265)">
<stop stop-color="#EE8277"/>
<stop offset="1" stop-color="#EE8277" stop-opacity="0"/>
</radialGradient>
<radialGradient id="paint15_radial_3_3488" cx="0" cy="0" r="1" gradientUnits="userSpaceOnUse" gradientTransform="translate(95.0455 113.755) scale(4.0375 3.26109)">
<stop stop-color="#EE8277"/>
<stop offset="1" stop-color="#EE8277" stop-opacity="0"/>
</radialGradient>
<radialGradient id="paint16_radial_3_3488" cx="0" cy="0" r="1" gradientUnits="userSpaceOnUse" gradientTransform="translate(90.9945 136.763) scale(7.6271 7.62714)">
<stop stop-color="#D7756B"/>
<stop offset="1" stop-color="#D7756B" stop-opacity="0"/>
</radialGradient>
</defs>
</svg>
