<svg width="139" height="162" viewBox="0 0 139 162" fill="none" xmlns="http://www.w3.org/2000/svg">
<path d="M138.139 95.3777C137.539 91.4777 136.239 87.9777 131.439 88.1777C131.239 88.1777 130.839 88.2777 130.739 88.1777C117.039 89.2777 116.539 114.278 119.039 119.378C122.239 123.578 127.239 121.378 127.439 121.378C129.439 120.678 131.239 118.878 132.439 117.178C136.939 110.578 139.339 103.478 138.139 95.3777Z" fill="url(#paint0_radial_3_4310)"/>
<path d="M131.839 90.0777C134.439 90.0777 135.639 91.5776 136.339 95.7776C137.439 102.778 135.639 109.378 130.939 116.178C129.639 117.978 128.239 119.278 126.939 119.678C126.939 119.678 126.839 119.678 126.839 119.778C126.039 120.078 125.139 120.278 124.339 120.278C122.839 120.278 121.639 119.678 120.739 118.578C119.339 115.378 119.039 103.278 123.239 95.7776C125.139 92.3776 127.639 90.5777 130.739 90.1777C130.839 90.1777 130.939 90.1777 131.039 90.1777C131.139 90.1777 131.339 90.1777 131.539 90.1777H131.639C131.639 90.0777 131.739 90.0777 131.839 90.0777ZM131.839 88.1777C131.739 88.1777 131.539 88.1777 131.439 88.1777C131.339 88.1777 131.139 88.1777 130.939 88.1777C130.839 88.1777 130.739 88.1777 130.739 88.1777C117.039 89.2777 116.539 114.278 119.039 119.378C120.639 121.478 122.539 121.978 124.239 121.978C125.939 121.978 127.339 121.378 127.439 121.378C129.439 120.678 131.239 118.878 132.439 117.178C137.039 110.678 139.439 103.478 138.239 95.4777C137.539 91.6777 136.239 88.1777 131.839 88.1777Z" fill="url(#paint1_linear_3_4310)"/>
<mask id="mask0_3_4310" style="mask-type:luminance" maskUnits="userSpaceOnUse" x="0" y="0" width="135" height="162">
<path d="M12.3395 87.5777C11.5395 84.6777 10.6394 81.9777 10.1394 79.0777C9.53944 75.9777 9.03945 72.8777 8.83945 69.6777C8.73945 67.6777 8.43943 65.6776 8.53943 63.7776C8.93943 54.7776 10.5394 45.9777 14.2394 37.5777C17.1394 31.0777 20.9394 25.2777 25.6394 20.0777C31.6394 13.4777 38.8395 8.57765 46.9395 4.97765C52.1395 2.67765 57.5394 1.17765 63.0394 0.477653C68.1394 -0.222347 73.2395 -0.12231 78.4395 0.57769C84.8395 1.47769 90.9395 3.27769 96.8395 6.07769C101.139 8.07769 105.139 10.5777 108.839 13.5777C115.239 18.7777 120.539 24.8777 124.639 31.9777C128.439 38.5777 131.139 45.6777 132.739 53.1777C133.539 56.9777 133.939 60.8776 134.239 64.7776C134.439 73.8776 132.839 79.9776 132.139 83.2776C131.839 84.5776 131.539 85.8777 131.139 87.1777C125.039 110.378 127.039 115.278 127.039 121.678C127.139 128.378 123.139 135.278 119.039 140.378C114.039 146.578 107.939 151.578 101.139 155.678C93.4394 160.278 85.0394 161.978 76.0394 160.678C69.0394 159.678 62.8395 156.578 56.8395 153.078C50.5395 149.378 44.7395 144.978 39.3395 139.878C35.1395 135.878 31.4395 131.478 28.4395 126.578C27.5395 125.078 26.6394 124.378 24.7394 124.578C20.0394 125.078 15.9395 123.278 12.4395 120.478C6.43946 115.578 2.03946 109.578 0.439459 101.878C-0.260541 98.5777 -0.360541 95.2777 1.93946 92.3777C4.23946 89.3777 7.43946 88.2777 10.9395 87.8777C11.1395 87.8777 11.3394 87.8777 11.6394 87.8777C11.6394 87.6777 11.8395 87.6777 12.3395 87.5777Z" fill="white"/>
</mask>
<g mask="url(#mask0_3_4310)">
<path d="M131.039 87.0777C131.339 85.7777 131.739 84.4777 132.039 83.1777C132.739 79.7777 134.439 73.6777 134.139 64.6777C133.839 60.7777 133.439 56.8777 132.639 53.0777C131.039 45.5777 128.439 38.4777 124.539 31.8777C120.439 24.7777 115.139 18.6777 108.739 13.4777C105.039 10.4777 101.039 7.97768 96.7394 5.97768C90.9394 3.17768 84.7394 1.47768 78.3394 0.47768C73.1394 -0.22232 68.0394 -0.322295 62.9394 0.377705C57.3394 1.1777 52.0394 2.6777 46.8394 4.8777C38.6394 8.4777 31.5394 13.3777 25.5394 19.9777C20.7394 25.1777 16.9394 30.9777 14.1394 37.4777C10.4394 45.8777 8.93944 54.5777 8.43944 63.6777C8.33944 65.6777 8.63942 67.6777 8.73942 69.5777C8.93942 72.7777 9.43941 75.8777 10.0394 78.9777C10.5394 81.7777 11.5394 84.4777 12.2394 87.4777C11.7394 87.5777 11.5394 87.5777 11.3394 87.5777C11.1394 87.5777 10.9394 87.5777 10.6394 87.5777C7.13942 87.9777 3.93942 89.0777 1.63942 92.0777C-0.660582 94.9777 -0.460582 98.3777 0.139418 101.578C1.73942 109.278 6.13942 115.278 12.1394 120.178C15.6394 122.978 19.7394 124.778 24.4394 124.278C26.3394 124.078 27.2394 124.778 28.1394 126.278C31.1394 131.178 34.8394 135.678 39.0394 139.578C44.3394 144.578 50.1394 149.078 56.5394 152.778C62.5394 156.278 68.7394 159.378 75.7394 160.378C84.7394 161.678 93.0394 159.978 100.839 155.378C107.639 151.278 113.739 146.278 118.739 140.078C122.839 135.078 125.939 129.978 126.839 123.478C126.939 122.978 127.539 117.278 126.839 113.678C126.539 107.978 130.939 87.4777 131.039 87.0777Z" fill="url(#paint2_radial_3_4310)"/>
<path d="M70.1395 1.87769C72.7395 1.87769 75.4395 2.07766 78.1395 2.47766C84.6395 3.37766 90.4395 5.17765 95.9395 7.77765C100.14 9.77765 104.14 12.2777 107.54 15.0777C113.74 20.0777 118.94 26.0777 122.84 32.9777C126.44 39.2777 129.14 46.1777 130.74 53.6777C131.64 57.7777 131.94 61.8777 132.14 64.9777C132.34 72.7777 131.14 78.2777 130.34 81.8777C130.24 82.2777 130.14 82.6777 130.04 83.0777C129.84 83.8777 129.64 84.6777 129.44 85.4777C129.34 85.9777 129.24 86.3777 129.04 86.8777C129.04 87.0777 124.54 107.878 124.94 114.178V114.278V114.378C125.54 117.478 125.04 122.878 124.94 123.578C124.04 130.278 120.54 135.278 117.24 139.278C112.54 145.078 106.64 150.078 99.7395 154.178C93.9395 157.578 87.7395 159.378 81.3395 159.378C79.5395 159.378 77.7395 159.278 75.8395 158.978C68.9395 157.978 62.8395 154.878 57.3395 151.578C51.3395 148.078 45.5395 143.678 40.2395 138.678C36.0395 134.678 32.4395 130.378 29.6395 125.778C28.8395 124.478 27.5395 122.878 24.9395 122.878C24.6395 122.878 24.4395 122.878 24.1395 122.878C23.6395 122.878 23.2395 122.978 22.7395 122.978C19.5395 122.978 16.3395 121.678 13.2395 119.178C7.03952 114.078 3.23952 108.378 1.83952 101.678C1.03952 98.0777 1.43953 95.6777 2.93953 93.6777C4.63953 91.4777 7.03952 90.2777 10.7395 89.8777H10.8395C10.9395 89.8777 10.9395 89.8777 11.0395 89.8777C11.1395 89.8777 11.2395 89.8777 11.3395 89.8777C11.5395 89.8777 11.7395 89.8776 12.0395 89.7776L12.4395 89.6777L14.4395 89.3777L13.9395 87.3777C13.7395 86.4777 13.4395 85.6776 13.2395 84.7776C12.6395 82.7776 12.1395 80.9777 11.7395 79.0777C11.2395 76.2777 10.6395 73.0777 10.4395 69.9777C10.4395 69.2777 10.3395 68.5777 10.2395 67.9777C10.1395 66.6777 10.0395 65.4776 10.0395 64.2776C10.5395 54.4776 12.3395 46.0776 15.5395 38.7776C18.3395 32.3776 21.9395 26.8776 26.6395 21.7776C32.4395 15.4776 39.2395 10.6777 47.3395 7.0777C52.3395 4.8777 57.5395 3.37767 62.9395 2.67767C65.5395 1.97767 67.8395 1.87769 70.1395 1.87769ZM70.1395 -0.0223389C67.7395 -0.0223389 65.4395 0.177661 63.0395 0.477661C57.4395 1.27766 52.1395 2.77766 46.9395 4.97766C38.7395 8.57766 31.6395 13.4777 25.6395 20.0777C20.8395 25.2777 17.0395 31.0777 14.2395 37.5777C10.5395 45.9777 9.0395 54.6776 8.5395 63.7776C8.4395 65.7776 8.73952 67.7777 8.83952 69.6777C9.03952 72.8777 9.53951 75.9777 10.1395 79.0777C10.6395 81.8777 11.6395 84.5777 12.3395 87.5777C11.8395 87.6777 11.6395 87.6777 11.4395 87.6777C11.3395 87.6777 11.3395 87.6777 11.2395 87.6777C11.1395 87.6777 11.0395 87.6777 10.9395 87.6777C10.8395 87.6777 10.8395 87.6777 10.7395 87.6777C7.23952 88.0777 4.03952 89.1777 1.73952 92.1777C-0.560484 95.0777 -0.360484 98.4777 0.239516 101.678C1.83952 109.378 6.23952 115.378 12.2395 120.278C15.3395 122.778 18.9395 124.478 22.9395 124.478C23.4395 124.478 23.9395 124.478 24.5395 124.378C24.7395 124.378 24.9395 124.378 25.1395 124.378C26.6395 124.378 27.4395 125.078 28.2395 126.378C31.2395 131.278 34.9395 135.778 39.1395 139.678C44.4395 144.678 50.2395 149.178 56.6395 152.878C62.6395 156.378 68.8395 159.478 75.8395 160.478C77.7395 160.778 79.7395 160.878 81.5395 160.878C88.3395 160.878 94.8395 159.078 100.84 155.478C107.64 151.378 113.74 146.378 118.74 140.178C122.84 135.178 125.94 130.078 126.84 123.578C126.94 123.078 127.54 117.378 126.84 113.778C126.44 107.878 130.84 87.3777 130.94 86.9777C131.24 85.6777 131.64 84.3777 131.94 83.0777C132.64 79.6777 134.34 73.5777 134.04 64.5777C133.74 60.6777 133.34 56.7777 132.54 52.9777C130.94 45.4777 128.34 38.3776 124.44 31.7776C120.34 24.6776 115.04 18.5777 108.64 13.3777C104.94 10.3777 100.94 7.87769 96.6395 5.87769C90.8395 3.07769 84.6395 1.37769 78.2395 0.377686C75.6395 0.177686 72.8395 -0.0223389 70.1395 -0.0223389Z" fill="url(#paint3_linear_3_4310)"/>
</g>
<mask id="mask1_3_4310" style="mask-type:luminance" maskUnits="userSpaceOnUse" x="0" y="0" width="135" height="162">
<path d="M12.3395 87.5777C11.5395 84.6777 10.6394 81.9777 10.1394 79.0777C9.53944 75.9777 9.03945 72.8777 8.83945 69.6777C8.73945 67.6777 8.43943 65.6776 8.53943 63.7776C8.93943 54.7776 10.5394 45.9777 14.2394 37.5777C17.1394 31.0777 20.9394 25.2777 25.6394 20.0777C31.6394 13.4777 38.8395 8.57765 46.9395 4.97765C52.1395 2.67765 57.5394 1.17765 63.0394 0.477653C68.1394 -0.222347 73.2395 -0.12231 78.4395 0.57769C84.8395 1.47769 90.9395 3.27769 96.8395 6.07769C101.139 8.07769 105.139 10.5777 108.839 13.5777C115.239 18.7777 120.539 24.8777 124.639 31.9777C128.439 38.5777 131.139 45.6777 132.739 53.1777C133.539 56.9777 133.939 60.8776 134.239 64.7776C134.439 73.8776 132.839 79.9776 132.139 83.2776C131.839 84.5776 131.539 85.8777 131.139 87.1777C125.039 110.378 127.039 115.278 127.039 121.678C127.139 128.378 123.139 135.278 119.039 140.378C114.039 146.578 107.939 151.578 101.139 155.678C93.4394 160.278 85.0394 161.978 76.0394 160.678C69.0394 159.678 62.8395 156.578 56.8395 153.078C50.5395 149.378 44.7395 144.978 39.3395 139.878C35.1395 135.878 31.4395 131.478 28.4395 126.578C27.5395 125.078 26.6394 124.378 24.7394 124.578C20.0394 125.078 15.9395 123.278 12.4395 120.478C6.43946 115.578 2.03946 109.578 0.439459 101.878C-0.260541 98.5777 -0.360541 95.2777 1.93946 92.3777C4.23946 89.3777 7.43946 88.2777 10.9395 87.8777C11.1395 87.8777 11.3394 87.8777 11.6394 87.8777C11.6394 87.6777 11.8395 87.6777 12.3395 87.5777Z" fill="white"/>
</mask>
<g mask="url(#mask1_3_4310)">
<path d="M89.9395 169.678C116.283 169.678 137.639 148.322 137.639 121.978C137.639 95.6337 116.283 74.2776 89.9395 74.2776C63.5955 74.2776 42.2395 95.6337 42.2395 121.978C42.2395 148.322 63.5955 169.678 89.9395 169.678Z" fill="url(#paint4_radial_3_4310)"/>
</g>
<mask id="mask2_3_4310" style="mask-type:luminance" maskUnits="userSpaceOnUse" x="0" y="0" width="135" height="162">
<path d="M12.3395 87.5777C11.5395 84.6777 10.6394 81.9777 10.1394 79.0777C9.53944 75.9777 9.03945 72.8777 8.83945 69.6777C8.73945 67.6777 8.43943 65.6776 8.53943 63.7776C8.93943 54.7776 10.5394 45.9777 14.2394 37.5777C17.1394 31.0777 20.9394 25.2777 25.6394 20.0777C31.6394 13.4777 38.8395 8.57765 46.9395 4.97765C52.1395 2.67765 57.5394 1.17765 63.0394 0.477653C68.1394 -0.222347 73.2395 -0.12231 78.4395 0.57769C84.8395 1.47769 90.9395 3.27769 96.8395 6.07769C101.139 8.07769 105.139 10.5777 108.839 13.5777C115.239 18.7777 120.539 24.8777 124.639 31.9777C128.439 38.5777 131.139 45.6777 132.739 53.1777C133.539 56.9777 133.939 60.8776 134.239 64.7776C134.439 73.8776 132.839 79.9776 132.139 83.2776C131.839 84.5776 131.539 85.8777 131.139 87.1777C125.039 110.378 127.039 115.278 127.039 121.678C127.139 128.378 123.139 135.278 119.039 140.378C114.039 146.578 107.939 151.578 101.139 155.678C93.4394 160.278 85.0394 161.978 76.0394 160.678C69.0394 159.678 62.8395 156.578 56.8395 153.078C50.5395 149.378 44.7395 144.978 39.3395 139.878C35.1395 135.878 31.4395 131.478 28.4395 126.578C27.5395 125.078 26.6394 124.378 24.7394 124.578C20.0394 125.078 15.9395 123.278 12.4395 120.478C6.43946 115.578 2.03946 109.578 0.439459 101.878C-0.260541 98.5777 -0.360541 95.2777 1.93946 92.3777C4.23946 89.3777 7.43946 88.2777 10.9395 87.8777C11.1395 87.8777 11.3394 87.8777 11.6394 87.8777C11.6394 87.6777 11.8395 87.6777 12.3395 87.5777Z" fill="white"/>
</mask>
<g mask="url(#mask2_3_4310)">
<path d="M64.3394 145.878C78.9749 145.878 90.8394 134.013 90.8394 119.378C90.8394 104.742 78.9749 92.8777 64.3394 92.8777C49.7038 92.8777 37.8394 104.742 37.8394 119.378C37.8394 134.013 49.7038 145.878 64.3394 145.878Z" fill="url(#paint5_radial_3_4310)"/>
</g>
<mask id="mask3_3_4310" style="mask-type:luminance" maskUnits="userSpaceOnUse" x="0" y="0" width="135" height="162">
<path d="M12.3395 87.5777C11.5395 84.6777 10.6394 81.9777 10.1394 79.0777C9.53944 75.9777 9.03945 72.8777 8.83945 69.6777C8.73945 67.6777 8.43943 65.6776 8.53943 63.7776C8.93943 54.7776 10.5394 45.9777 14.2394 37.5777C17.1394 31.0777 20.9394 25.2777 25.6394 20.0777C31.6394 13.4777 38.8395 8.57765 46.9395 4.97765C52.1395 2.67765 57.5394 1.17765 63.0394 0.477653C68.1394 -0.222347 73.2395 -0.12231 78.4395 0.57769C84.8395 1.47769 90.9395 3.27769 96.8395 6.07769C101.139 8.07769 105.139 10.5777 108.839 13.5777C115.239 18.7777 120.539 24.8777 124.639 31.9777C128.439 38.5777 131.139 45.6777 132.739 53.1777C133.539 56.9777 133.939 60.8776 134.239 64.7776C134.439 73.8776 132.839 79.9776 132.139 83.2776C131.839 84.5776 131.539 85.8777 131.139 87.1777C125.039 110.378 127.039 115.278 127.039 121.678C127.139 128.378 123.139 135.278 119.039 140.378C114.039 146.578 107.939 151.578 101.139 155.678C93.4394 160.278 85.0394 161.978 76.0394 160.678C69.0394 159.678 62.8395 156.578 56.8395 153.078C50.5395 149.378 44.7395 144.978 39.3395 139.878C35.1395 135.878 31.4395 131.478 28.4395 126.578C27.5395 125.078 26.6394 124.378 24.7394 124.578C20.0394 125.078 15.9395 123.278 12.4395 120.478C6.43946 115.578 2.03946 109.578 0.439459 101.878C-0.260541 98.5777 -0.360541 95.2777 1.93946 92.3777C4.23946 89.3777 7.43946 88.2777 10.9395 87.8777C11.1395 87.8777 11.3394 87.8777 11.6394 87.8777C11.6394 87.6777 11.8395 87.6777 12.3395 87.5777Z" fill="white"/>
</mask>
<g mask="url(#mask3_3_4310)">
<path d="M96.6394 127.678C105.2 127.678 112.139 120.738 112.139 112.178C112.139 103.617 105.2 96.6777 96.6394 96.6777C88.079 96.6777 81.1394 103.617 81.1394 112.178C81.1394 120.738 88.079 127.678 96.6394 127.678Z" fill="url(#paint6_radial_3_4310)"/>
</g>
<mask id="mask4_3_4310" style="mask-type:luminance" maskUnits="userSpaceOnUse" x="0" y="0" width="135" height="162">
<path d="M12.3395 87.5777C11.5395 84.6777 10.6394 81.9777 10.1394 79.0777C9.53944 75.9777 9.03945 72.8777 8.83945 69.6777C8.73945 67.6777 8.43943 65.6776 8.53943 63.7776C8.93943 54.7776 10.5394 45.9777 14.2394 37.5777C17.1394 31.0777 20.9394 25.2777 25.6394 20.0777C31.6394 13.4777 38.8395 8.57765 46.9395 4.97765C52.1395 2.67765 57.5394 1.17765 63.0394 0.477653C68.1394 -0.222347 73.2395 -0.12231 78.4395 0.57769C84.8395 1.47769 90.9395 3.27769 96.8395 6.07769C101.139 8.07769 105.139 10.5777 108.839 13.5777C115.239 18.7777 120.539 24.8777 124.639 31.9777C128.439 38.5777 131.139 45.6777 132.739 53.1777C133.539 56.9777 133.939 60.8776 134.239 64.7776C134.439 73.8776 132.839 79.9776 132.139 83.2776C131.839 84.5776 131.539 85.8777 131.139 87.1777C125.039 110.378 127.039 115.278 127.039 121.678C127.139 128.378 123.139 135.278 119.039 140.378C114.039 146.578 107.939 151.578 101.139 155.678C93.4394 160.278 85.0394 161.978 76.0394 160.678C69.0394 159.678 62.8395 156.578 56.8395 153.078C50.5395 149.378 44.7395 144.978 39.3395 139.878C35.1395 135.878 31.4395 131.478 28.4395 126.578C27.5395 125.078 26.6394 124.378 24.7394 124.578C20.0394 125.078 15.9395 123.278 12.4395 120.478C6.43946 115.578 2.03946 109.578 0.439459 101.878C-0.260541 98.5777 -0.360541 95.2777 1.93946 92.3777C4.23946 89.3777 7.43946 88.2777 10.9395 87.8777C11.1395 87.8777 11.3394 87.8777 11.6394 87.8777C11.6394 87.6777 11.8395 87.6777 12.3395 87.5777Z" fill="white"/>
</mask>
<g mask="url(#mask4_3_4310)">
<path d="M116.639 137.878C127.298 137.878 135.939 129.147 135.939 118.378C135.939 107.608 127.298 98.8777 116.639 98.8777C105.98 98.8777 97.3394 107.608 97.3394 118.378C97.3394 129.147 105.98 137.878 116.639 137.878Z" fill="url(#paint7_radial_3_4310)"/>
</g>
<mask id="mask5_3_4310" style="mask-type:luminance" maskUnits="userSpaceOnUse" x="0" y="0" width="135" height="162">
<path d="M12.3395 87.5777C11.5395 84.6777 10.6394 81.9777 10.1394 79.0777C9.53944 75.9777 9.03945 72.8777 8.83945 69.6777C8.73945 67.6777 8.43943 65.6776 8.53943 63.7776C8.93943 54.7776 10.5394 45.9777 14.2394 37.5777C17.1394 31.0777 20.9394 25.2777 25.6394 20.0777C31.6394 13.4777 38.8395 8.57765 46.9395 4.97765C52.1395 2.67765 57.5394 1.17765 63.0394 0.477653C68.1394 -0.222347 73.2395 -0.12231 78.4395 0.57769C84.8395 1.47769 90.9395 3.27769 96.8395 6.07769C101.139 8.07769 105.139 10.5777 108.839 13.5777C115.239 18.7777 120.539 24.8777 124.639 31.9777C128.439 38.5777 131.139 45.6777 132.739 53.1777C133.539 56.9777 133.939 60.8776 134.239 64.7776C134.439 73.8776 132.839 79.9776 132.139 83.2776C131.839 84.5776 131.539 85.8777 131.139 87.1777C125.039 110.378 127.039 115.278 127.039 121.678C127.139 128.378 123.139 135.278 119.039 140.378C114.039 146.578 107.939 151.578 101.139 155.678C93.4394 160.278 85.0394 161.978 76.0394 160.678C69.0394 159.678 62.8395 156.578 56.8395 153.078C50.5395 149.378 44.7395 144.978 39.3395 139.878C35.1395 135.878 31.4395 131.478 28.4395 126.578C27.5395 125.078 26.6394 124.378 24.7394 124.578C20.0394 125.078 15.9395 123.278 12.4395 120.478C6.43946 115.578 2.03946 109.578 0.439459 101.878C-0.260541 98.5777 -0.360541 95.2777 1.93946 92.3777C4.23946 89.3777 7.43946 88.2777 10.9395 87.8777C11.1395 87.8777 11.3394 87.8777 11.6394 87.8777C11.6394 87.6777 11.8395 87.6777 12.3395 87.5777Z" fill="white"/>
</mask>
<g mask="url(#mask5_3_4310)">
<path d="M78.2393 115.578C104.583 115.578 125.939 94.2217 125.939 67.8777C125.939 41.5337 104.583 20.1777 78.2393 20.1777C51.8953 20.1777 30.5393 41.5337 30.5393 67.8777C30.5393 94.2217 51.8953 115.578 78.2393 115.578Z" fill="url(#paint8_radial_3_4310)"/>
</g>
<mask id="mask6_3_4310" style="mask-type:luminance" maskUnits="userSpaceOnUse" x="0" y="0" width="135" height="162">
<path d="M12.3395 87.5777C11.5395 84.6777 10.6394 81.9777 10.1394 79.0777C9.53944 75.9777 9.03945 72.8777 8.83945 69.6777C8.73945 67.6777 8.43943 65.6776 8.53943 63.7776C8.93943 54.7776 10.5394 45.9777 14.2394 37.5777C17.1394 31.0777 20.9394 25.2777 25.6394 20.0777C31.6394 13.4777 38.8395 8.57765 46.9395 4.97765C52.1395 2.67765 57.5394 1.17765 63.0394 0.477653C68.1394 -0.222347 73.2395 -0.12231 78.4395 0.57769C84.8395 1.47769 90.9395 3.27769 96.8395 6.07769C101.139 8.07769 105.139 10.5777 108.839 13.5777C115.239 18.7777 120.539 24.8777 124.639 31.9777C128.439 38.5777 131.139 45.6777 132.739 53.1777C133.539 56.9777 133.939 60.8776 134.239 64.7776C134.439 73.8776 132.839 79.9776 132.139 83.2776C131.839 84.5776 131.539 85.8777 131.139 87.1777C125.039 110.378 127.039 115.278 127.039 121.678C127.139 128.378 123.139 135.278 119.039 140.378C114.039 146.578 107.939 151.578 101.139 155.678C93.4394 160.278 85.0394 161.978 76.0394 160.678C69.0394 159.678 62.8395 156.578 56.8395 153.078C50.5395 149.378 44.7395 144.978 39.3395 139.878C35.1395 135.878 31.4395 131.478 28.4395 126.578C27.5395 125.078 26.6394 124.378 24.7394 124.578C20.0394 125.078 15.9395 123.278 12.4395 120.478C6.43946 115.578 2.03946 109.578 0.439459 101.878C-0.260541 98.5777 -0.360541 95.2777 1.93946 92.3777C4.23946 89.3777 7.43946 88.2777 10.9395 87.8777C11.1395 87.8777 11.3394 87.8777 11.6394 87.8777C11.6394 87.6777 11.8395 87.6777 12.3395 87.5777Z" fill="white"/>
</mask>
<g mask="url(#mask6_3_4310)">
<path d="M30.8395 101.778C34.6395 112.878 30.9395 124.078 22.7395 126.878C14.5395 129.678 4.83949 122.978 1.13949 111.878C-2.66051 100.778 1.03949 89.5776 9.23949 86.7776C17.4395 83.9776 27.1395 90.6776 30.8395 101.778Z" fill="url(#paint9_radial_3_4310)"/>
</g>
<mask id="mask7_3_4310" style="mask-type:luminance" maskUnits="userSpaceOnUse" x="0" y="0" width="135" height="162">
<path d="M12.3395 87.5777C11.5395 84.6777 10.6394 81.9777 10.1394 79.0777C9.53944 75.9777 9.03945 72.8777 8.83945 69.6777C8.73945 67.6777 8.43943 65.6776 8.53943 63.7776C8.93943 54.7776 10.5394 45.9777 14.2394 37.5777C17.1394 31.0777 20.9394 25.2777 25.6394 20.0777C31.6394 13.4777 38.8395 8.57765 46.9395 4.97765C52.1395 2.67765 57.5394 1.17765 63.0394 0.477653C68.1394 -0.222347 73.2395 -0.12231 78.4395 0.57769C84.8395 1.47769 90.9395 3.27769 96.8395 6.07769C101.139 8.07769 105.139 10.5777 108.839 13.5777C115.239 18.7777 120.539 24.8777 124.639 31.9777C128.439 38.5777 131.139 45.6777 132.739 53.1777C133.539 56.9777 133.939 60.8776 134.239 64.7776C134.439 73.8776 132.839 79.9776 132.139 83.2776C131.839 84.5776 131.539 85.8777 131.139 87.1777C125.039 110.378 127.039 115.278 127.039 121.678C127.139 128.378 123.139 135.278 119.039 140.378C114.039 146.578 107.939 151.578 101.139 155.678C93.4394 160.278 85.0394 161.978 76.0394 160.678C69.0394 159.678 62.8395 156.578 56.8395 153.078C50.5395 149.378 44.7395 144.978 39.3395 139.878C35.1395 135.878 31.4395 131.478 28.4395 126.578C27.5395 125.078 26.6394 124.378 24.7394 124.578C20.0394 125.078 15.9395 123.278 12.4395 120.478C6.43946 115.578 2.03946 109.578 0.439459 101.878C-0.260541 98.5777 -0.360541 95.2777 1.93946 92.3777C4.23946 89.3777 7.43946 88.2777 10.9395 87.8777C11.1395 87.8777 11.3394 87.8777 11.6394 87.8777C11.6394 87.6777 11.8395 87.6777 12.3395 87.5777Z" fill="white"/>
</mask>
<g mask="url(#mask7_3_4310)">
<path d="M91.6394 121.478C114.835 121.478 133.639 102.674 133.639 79.4777C133.639 56.2817 114.835 37.4777 91.6394 37.4777C68.4434 37.4777 49.6394 56.2817 49.6394 79.4777C49.6394 102.674 68.4434 121.478 91.6394 121.478Z" fill="url(#paint10_radial_3_4310)"/>
</g>
<mask id="mask8_3_4310" style="mask-type:luminance" maskUnits="userSpaceOnUse" x="0" y="0" width="135" height="162">
<path d="M12.3395 87.5777C11.5395 84.6777 10.6394 81.9777 10.1394 79.0777C9.53944 75.9777 9.03945 72.8777 8.83945 69.6777C8.73945 67.6777 8.43943 65.6776 8.53943 63.7776C8.93943 54.7776 10.5394 45.9777 14.2394 37.5777C17.1394 31.0777 20.9394 25.2777 25.6394 20.0777C31.6394 13.4777 38.8395 8.57765 46.9395 4.97765C52.1395 2.67765 57.5394 1.17765 63.0394 0.477653C68.1394 -0.222347 73.2395 -0.12231 78.4395 0.57769C84.8395 1.47769 90.9395 3.27769 96.8395 6.07769C101.139 8.07769 105.139 10.5777 108.839 13.5777C115.239 18.7777 120.539 24.8777 124.639 31.9777C128.439 38.5777 131.139 45.6777 132.739 53.1777C133.539 56.9777 133.939 60.8776 134.239 64.7776C134.439 73.8776 132.839 79.9776 132.139 83.2776C131.839 84.5776 131.539 85.8777 131.139 87.1777C125.039 110.378 127.039 115.278 127.039 121.678C127.139 128.378 123.139 135.278 119.039 140.378C114.039 146.578 107.939 151.578 101.139 155.678C93.4394 160.278 85.0394 161.978 76.0394 160.678C69.0394 159.678 62.8395 156.578 56.8395 153.078C50.5395 149.378 44.7395 144.978 39.3395 139.878C35.1395 135.878 31.4395 131.478 28.4395 126.578C27.5395 125.078 26.6394 124.378 24.7394 124.578C20.0394 125.078 15.9395 123.278 12.4395 120.478C6.43946 115.578 2.03946 109.578 0.439459 101.878C-0.260541 98.5777 -0.360541 95.2777 1.93946 92.3777C4.23946 89.3777 7.43946 88.2777 10.9395 87.8777C11.1395 87.8777 11.3394 87.8777 11.6394 87.8777C11.6394 87.6777 11.8395 87.6777 12.3395 87.5777Z" fill="white"/>
</mask>
<g mask="url(#mask8_3_4310)">
<g opacity="0.5">
<path d="M24.5394 109.078C23.5394 105.078 21.1395 101.478 18.2395 99.7776C15.3395 98.0776 10.8394 96.0777 8.63945 98.5777C4.23945 103.678 9.73947 110.378 13.9395 112.678C16.0395 113.878 18.4395 114.978 19.4395 114.978C17.5395 112.978 15.8395 109.278 18.4395 107.978C18.8395 107.878 21.5394 107.078 24.5394 109.078Z" fill="#653748"/>
</g>
</g>
<mask id="mask9_3_4310" style="mask-type:luminance" maskUnits="userSpaceOnUse" x="0" y="0" width="135" height="162">
<path d="M12.3395 87.5777C11.5395 84.6777 10.6394 81.9777 10.1394 79.0777C9.53944 75.9777 9.03945 72.8777 8.83945 69.6777C8.73945 67.6777 8.43943 65.6776 8.53943 63.7776C8.93943 54.7776 10.5394 45.9777 14.2394 37.5777C17.1394 31.0777 20.9394 25.2777 25.6394 20.0777C31.6394 13.4777 38.8395 8.57765 46.9395 4.97765C52.1395 2.67765 57.5394 1.17765 63.0394 0.477653C68.1394 -0.222347 73.2395 -0.12231 78.4395 0.57769C84.8395 1.47769 90.9395 3.27769 96.8395 6.07769C101.139 8.07769 105.139 10.5777 108.839 13.5777C115.239 18.7777 120.539 24.8777 124.639 31.9777C128.439 38.5777 131.139 45.6777 132.739 53.1777C133.539 56.9777 133.939 60.8776 134.239 64.7776C134.439 73.8776 132.839 79.9776 132.139 83.2776C131.839 84.5776 131.539 85.8777 131.139 87.1777C125.039 110.378 127.039 115.278 127.039 121.678C127.139 128.378 123.139 135.278 119.039 140.378C114.039 146.578 107.939 151.578 101.139 155.678C93.4394 160.278 85.0394 161.978 76.0394 160.678C69.0394 159.678 62.8395 156.578 56.8395 153.078C50.5395 149.378 44.7395 144.978 39.3395 139.878C35.1395 135.878 31.4395 131.478 28.4395 126.578C27.5395 125.078 26.6394 124.378 24.7394 124.578C20.0394 125.078 15.9395 123.278 12.4395 120.478C6.43946 115.578 2.03946 109.578 0.439459 101.878C-0.260541 98.5777 -0.360541 95.2777 1.93946 92.3777C4.23946 89.3777 7.43946 88.2777 10.9395 87.8777C11.1395 87.8777 11.3394 87.8777 11.6394 87.8777C11.6394 87.6777 11.8395 87.6777 12.3395 87.5777Z" fill="white"/>
</mask>
<g mask="url(#mask9_3_4310)">
<path d="M64.4394 137.878C75.5403 137.878 84.5393 130.132 84.5393 120.578C84.5393 111.023 75.5403 103.278 64.4394 103.278C53.3384 103.278 44.3394 111.023 44.3394 120.578C44.3394 130.132 53.3384 137.878 64.4394 137.878Z" fill="url(#paint11_radial_3_4310)"/>
</g>
<mask id="mask10_3_4310" style="mask-type:luminance" maskUnits="userSpaceOnUse" x="0" y="0" width="135" height="162">
<path d="M12.3395 87.5777C11.5395 84.6777 10.6394 81.9777 10.1394 79.0777C9.53944 75.9777 9.03945 72.8777 8.83945 69.6777C8.73945 67.6777 8.43943 65.6776 8.53943 63.7776C8.93943 54.7776 10.5394 45.9777 14.2394 37.5777C17.1394 31.0777 20.9394 25.2777 25.6394 20.0777C31.6394 13.4777 38.8395 8.57765 46.9395 4.97765C52.1395 2.67765 57.5394 1.17765 63.0394 0.477653C68.1394 -0.222347 73.2395 -0.12231 78.4395 0.57769C84.8395 1.47769 90.9395 3.27769 96.8395 6.07769C101.139 8.07769 105.139 10.5777 108.839 13.5777C115.239 18.7777 120.539 24.8777 124.639 31.9777C128.439 38.5777 131.139 45.6777 132.739 53.1777C133.539 56.9777 133.939 60.8776 134.239 64.7776C134.439 73.8776 132.839 79.9776 132.139 83.2776C131.839 84.5776 131.539 85.8777 131.139 87.1777C125.039 110.378 127.039 115.278 127.039 121.678C127.139 128.378 123.139 135.278 119.039 140.378C114.039 146.578 107.939 151.578 101.139 155.678C93.4394 160.278 85.0394 161.978 76.0394 160.678C69.0394 159.678 62.8395 156.578 56.8395 153.078C50.5395 149.378 44.7395 144.978 39.3395 139.878C35.1395 135.878 31.4395 131.478 28.4395 126.578C27.5395 125.078 26.6394 124.378 24.7394 124.578C20.0394 125.078 15.9395 123.278 12.4395 120.478C6.43946 115.578 2.03946 109.578 0.439459 101.878C-0.260541 98.5777 -0.360541 95.2777 1.93946 92.3777C4.23946 89.3777 7.43946 88.2777 10.9395 87.8777C11.1395 87.8777 11.3394 87.8777 11.6394 87.8777C11.6394 87.6777 11.8395 87.6777 12.3395 87.5777Z" fill="white"/>
</mask>
<g mask="url(#mask10_3_4310)">
<path d="M77.2393 101.278C105.903 101.278 129.139 77.101 129.139 47.2776C129.139 17.4543 105.903 -6.72235 77.2393 -6.72235C48.5758 -6.72235 25.3394 17.4543 25.3394 47.2776C25.3394 77.101 48.5758 101.278 77.2393 101.278Z" fill="url(#paint12_radial_3_4310)"/>
</g>
<mask id="mask11_3_4310" style="mask-type:luminance" maskUnits="userSpaceOnUse" x="0" y="0" width="135" height="162">
<path d="M12.3395 87.5777C11.5395 84.6777 10.6394 81.9777 10.1394 79.0777C9.53944 75.9777 9.03945 72.8777 8.83945 69.6777C8.73945 67.6777 8.43943 65.6776 8.53943 63.7776C8.93943 54.7776 10.5394 45.9777 14.2394 37.5777C17.1394 31.0777 20.9394 25.2777 25.6394 20.0777C31.6394 13.4777 38.8395 8.57765 46.9395 4.97765C52.1395 2.67765 57.5394 1.17765 63.0394 0.477653C68.1394 -0.222347 73.2395 -0.12231 78.4395 0.57769C84.8395 1.47769 90.9395 3.27769 96.8395 6.07769C101.139 8.07769 105.139 10.5777 108.839 13.5777C115.239 18.7777 120.539 24.8777 124.639 31.9777C128.439 38.5777 131.139 45.6777 132.739 53.1777C133.539 56.9777 133.939 60.8776 134.239 64.7776C134.439 73.8776 132.839 79.9776 132.139 83.2776C131.839 84.5776 131.539 85.8777 131.139 87.1777C125.039 110.378 127.039 115.278 127.039 121.678C127.139 128.378 123.139 135.278 119.039 140.378C114.039 146.578 107.939 151.578 101.139 155.678C93.4394 160.278 85.0394 161.978 76.0394 160.678C69.0394 159.678 62.8395 156.578 56.8395 153.078C50.5395 149.378 44.7395 144.978 39.3395 139.878C35.1395 135.878 31.4395 131.478 28.4395 126.578C27.5395 125.078 26.6394 124.378 24.7394 124.578C20.0394 125.078 15.9395 123.278 12.4395 120.478C6.43946 115.578 2.03946 109.578 0.439459 101.878C-0.260541 98.5777 -0.360541 95.2777 1.93946 92.3777C4.23946 89.3777 7.43946 88.2777 10.9395 87.8777C11.1395 87.8777 11.3394 87.8777 11.6394 87.8777C11.6394 87.6777 11.8395 87.6777 12.3395 87.5777Z" fill="white"/>
</mask>
<g mask="url(#mask11_3_4310)">
<path d="M96.3394 119.278C98.9352 119.278 101.039 117.442 101.039 115.178C101.039 112.913 98.9352 111.078 96.3394 111.078C93.7437 111.078 91.6394 112.913 91.6394 115.178C91.6394 117.442 93.7437 119.278 96.3394 119.278Z" fill="url(#paint13_radial_3_4310)"/>
</g>
<mask id="mask12_3_4310" style="mask-type:luminance" maskUnits="userSpaceOnUse" x="0" y="0" width="135" height="162">
<path d="M12.3395 87.5777C11.5395 84.6777 10.6394 81.9777 10.1394 79.0777C9.53944 75.9777 9.03945 72.8777 8.83945 69.6777C8.73945 67.6777 8.43943 65.6776 8.53943 63.7776C8.93943 54.7776 10.5394 45.9777 14.2394 37.5777C17.1394 31.0777 20.9394 25.2777 25.6394 20.0777C31.6394 13.4777 38.8395 8.57765 46.9395 4.97765C52.1395 2.67765 57.5394 1.17765 63.0394 0.477653C68.1394 -0.222347 73.2395 -0.12231 78.4395 0.57769C84.8395 1.47769 90.9395 3.27769 96.8395 6.07769C101.139 8.07769 105.139 10.5777 108.839 13.5777C115.239 18.7777 120.539 24.8777 124.639 31.9777C128.439 38.5777 131.139 45.6777 132.739 53.1777C133.539 56.9777 133.939 60.8776 134.239 64.7776C134.439 73.8776 132.839 79.9776 132.139 83.2776C131.839 84.5776 131.539 85.8777 131.139 87.1777C125.039 110.378 127.039 115.278 127.039 121.678C127.139 128.378 123.139 135.278 119.039 140.378C114.039 146.578 107.939 151.578 101.139 155.678C93.4394 160.278 85.0394 161.978 76.0394 160.678C69.0394 159.678 62.8395 156.578 56.8395 153.078C50.5395 149.378 44.7395 144.978 39.3395 139.878C35.1395 135.878 31.4395 131.478 28.4395 126.578C27.5395 125.078 26.6394 124.378 24.7394 124.578C20.0394 125.078 15.9395 123.278 12.4395 120.478C6.43946 115.578 2.03946 109.578 0.439459 101.878C-0.260541 98.5777 -0.360541 95.2777 1.93946 92.3777C4.23946 89.3777 7.43946 88.2777 10.9395 87.8777C11.1395 87.8777 11.3394 87.8777 11.6394 87.8777C11.6394 87.6777 11.8395 87.6777 12.3395 87.5777Z" fill="white"/>
</mask>
<g mask="url(#mask12_3_4310)">
<g opacity="0.3">
<path d="M80.9395 137.678C86.0395 138.978 90.8395 139.678 96.0395 139.178C96.7395 139.078 97.4395 138.978 98.0395 138.978C99.1395 138.978 99.8395 140.178 99.2395 141.178C98.8395 142.078 98.2395 142.778 97.5395 143.478C97.0395 143.978 96.5395 144.378 95.9395 144.678C93.8395 145.978 90.3395 146.478 87.9395 146.178C85.5395 145.878 80.2395 144.378 78.4395 139.878C78.0395 138.878 78.9395 137.378 79.9395 137.578L80.9395 137.678Z" fill="#541930"/>
</g>
</g>
<mask id="mask13_3_4310" style="mask-type:luminance" maskUnits="userSpaceOnUse" x="0" y="0" width="135" height="162">
<path d="M12.3395 87.5777C11.5395 84.6777 10.6394 81.9777 10.1394 79.0777C9.53944 75.9777 9.03945 72.8777 8.83945 69.6777C8.73945 67.6777 8.43943 65.6776 8.53943 63.7776C8.93943 54.7776 10.5394 45.9777 14.2394 37.5777C17.1394 31.0777 20.9394 25.2777 25.6394 20.0777C31.6394 13.4777 38.8395 8.57765 46.9395 4.97765C52.1395 2.67765 57.5394 1.17765 63.0394 0.477653C68.1394 -0.222347 73.2395 -0.12231 78.4395 0.57769C84.8395 1.47769 90.9395 3.27769 96.8395 6.07769C101.139 8.07769 105.139 10.5777 108.839 13.5777C115.239 18.7777 120.539 24.8777 124.639 31.9777C128.439 38.5777 131.139 45.6777 132.739 53.1777C133.539 56.9777 133.939 60.8776 134.239 64.7776C134.439 73.8776 132.839 79.9776 132.139 83.2776C131.839 84.5776 131.539 85.8777 131.139 87.1777C125.039 110.378 127.039 115.278 127.039 121.678C127.139 128.378 123.139 135.278 119.039 140.378C114.039 146.578 107.939 151.578 101.139 155.678C93.4394 160.278 85.0394 161.978 76.0394 160.678C69.0394 159.678 62.8395 156.578 56.8395 153.078C50.5395 149.378 44.7395 144.978 39.3395 139.878C35.1395 135.878 31.4395 131.478 28.4395 126.578C27.5395 125.078 26.6394 124.378 24.7394 124.578C20.0394 125.078 15.9395 123.278 12.4395 120.478C6.43946 115.578 2.03946 109.578 0.439459 101.878C-0.260541 98.5777 -0.360541 95.2777 1.93946 92.3777C4.23946 89.3777 7.43946 88.2777 10.9395 87.8777C11.1395 87.8777 11.3394 87.8777 11.6394 87.8777C11.6394 87.6777 11.8395 87.6777 12.3395 87.5777Z" fill="white"/>
</mask>
<g mask="url(#mask13_3_4310)">
<g opacity="0.3">
<path d="M88.3395 121.178C92.6395 119.978 96.3395 118.978 99.3395 119.478C102.24 119.878 103.04 120.278 103.14 121.278C103.34 124.878 100.64 126.978 100.14 127.278C98.4395 128.478 95.6395 128.978 93.8395 128.678C91.9395 128.378 87.8395 127.178 86.4395 123.178C86.1395 122.278 86.8395 120.978 87.6395 121.078L88.3395 121.178Z" fill="#541930"/>
</g>
</g>
<mask id="mask14_3_4310" style="mask-type:luminance" maskUnits="userSpaceOnUse" x="0" y="0" width="135" height="162">
<path d="M12.3395 87.5777C11.5395 84.6777 10.6394 81.9777 10.1394 79.0777C9.53944 75.9777 9.03945 72.8777 8.83945 69.6777C8.73945 67.6777 8.43943 65.6776 8.53943 63.7776C8.93943 54.7776 10.5394 45.9777 14.2394 37.5777C17.1394 31.0777 20.9394 25.2777 25.6394 20.0777C31.6394 13.4777 38.8395 8.57765 46.9395 4.97765C52.1395 2.67765 57.5394 1.17765 63.0394 0.477653C68.1394 -0.222347 73.2395 -0.12231 78.4395 0.57769C84.8395 1.47769 90.9395 3.27769 96.8395 6.07769C101.139 8.07769 105.139 10.5777 108.839 13.5777C115.239 18.7777 120.539 24.8777 124.639 31.9777C128.439 38.5777 131.139 45.6777 132.739 53.1777C133.539 56.9777 133.939 60.8776 134.239 64.7776C134.439 73.8776 132.839 79.9776 132.139 83.2776C131.839 84.5776 131.539 85.8777 131.139 87.1777C125.039 110.378 127.039 115.278 127.039 121.678C127.139 128.378 123.139 135.278 119.039 140.378C114.039 146.578 107.939 151.578 101.139 155.678C93.4394 160.278 85.0394 161.978 76.0394 160.678C69.0394 159.678 62.8395 156.578 56.8395 153.078C50.5395 149.378 44.7395 144.978 39.3395 139.878C35.1395 135.878 31.4395 131.478 28.4395 126.578C27.5395 125.078 26.6394 124.378 24.7394 124.578C20.0394 125.078 15.9395 123.278 12.4395 120.478C6.43946 115.578 2.03946 109.578 0.439459 101.878C-0.260541 98.5777 -0.360541 95.2777 1.93946 92.3777C4.23946 89.3777 7.43946 88.2777 10.9395 87.8777C11.1395 87.8777 11.3394 87.8777 11.6394 87.8777C11.6394 87.6777 11.8395 87.6777 12.3395 87.5777Z" fill="white"/>
</mask>
<g mask="url(#mask14_3_4310)">
<path d="M82.7395 133.678C87.9395 134.378 92.8394 134.678 98.0394 134.278C98.7394 134.178 99.4394 134.178 100.039 134.078C101.139 134.078 101.839 134.778 101.439 135.378C101.039 135.878 100.539 136.378 99.8395 136.778C99.3395 137.078 98.8395 137.378 98.3395 137.578C96.3395 138.378 92.7395 138.778 90.3395 138.578C87.9395 138.478 82.4395 137.678 80.3395 134.978C79.8395 134.378 80.7395 133.478 81.7395 133.578L82.7395 133.678Z" fill="url(#paint14_radial_3_4310)"/>
</g>
<path d="M52.0393 149.978C53.6393 151.078 55.0393 151.878 56.7393 152.978C62.7393 156.478 68.9393 159.578 75.9393 160.578C84.9393 161.878 93.2393 160.178 101.039 155.578C102.039 154.978 102.939 154.378 103.939 153.778C78.7393 168.078 52.0393 149.978 52.0393 149.978Z" fill="#471D2D"/>
<path d="M11.9394 96.7776C13.1394 96.8776 14.4394 97.1777 15.6394 97.8777C19.6394 100.178 22.6394 103.378 25.0394 107.378C25.2394 107.778 25.4394 108.178 25.6394 108.578C25.8394 109.078 25.9394 109.578 25.4394 109.978C25.0394 110.278 24.5394 109.978 24.2394 109.778C22.8394 108.978 21.3394 108.578 19.8394 108.778C18.6394 108.878 17.6394 109.278 17.2394 110.478C16.8394 111.778 17.6394 112.578 18.5394 113.278C19.0394 113.678 19.5394 113.878 20.0394 114.278C20.3394 114.478 20.6394 114.778 20.4394 115.178C20.2394 115.578 19.8394 115.578 19.5394 115.578C16.7394 115.278 14.6394 111.478 16.0394 108.978C16.5394 108.078 16.8394 107.478 16.3394 106.478C15.6394 105.078 16.2394 103.878 17.6394 102.978C19.0394 102.178 19.0394 102.078 17.8394 101.078C16.4394 99.9777 15.0394 98.8777 13.2394 98.4777C10.6394 97.8777 8.9394 98.8777 8.2394 101.478C8.1394 101.678 8.2394 101.978 8.1394 102.078C8.0394 102.278 7.8394 102.478 7.7394 102.478C7.4394 102.578 7.2394 102.278 7.1394 101.978C6.9394 101.378 7.0394 100.778 7.1394 100.278C7.4394 98.1776 9.33941 96.7776 11.9394 96.7776ZM23.1394 107.178C22.5394 105.778 21.7394 104.878 20.6394 104.378C19.7394 103.978 18.7394 103.878 17.9394 104.578C17.4394 104.978 17.3394 105.478 17.6394 106.178C17.9394 106.678 18.2394 107.378 18.9394 107.078C20.2394 106.678 21.5394 107.178 23.1394 107.178Z" fill="#471D2D"/>
<path d="M101.139 131.478C101.039 132.978 95.9394 133.478 94.0394 133.578C90.4394 133.878 85.2394 133.278 81.3394 132.278C80.6394 132.078 79.5394 131.778 79.1394 131.678C78.3394 131.378 76.3394 131.278 76.9394 130.078C77.5394 128.878 78.6394 129.478 80.0394 129.978C86.1394 131.878 92.3394 132.578 98.5394 131.178C99.4394 130.978 101.239 129.978 101.139 131.478Z" fill="#501C1E"/>
<path d="M123.139 133.578C123.839 131.878 124.439 130.178 125.039 128.678C125.939 126.078 126.639 123.378 126.739 120.678C126.839 118.778 126.739 116.978 126.339 114.878C125.939 112.778 125.939 110.578 126.239 108.478C127.039 103.078 128.139 97.7777 129.139 92.3777C129.239 91.6777 129.739 89.8776 129.939 89.1776C130.139 88.6776 130.139 87.7777 130.939 88.0777C131.639 88.2777 131.239 88.9777 131.139 89.3777C130.439 93.1777 129.339 98.0777 128.539 101.878C128.039 104.578 127.639 107.378 127.139 110.078C127.039 110.878 127.139 111.678 127.239 112.478C127.639 116.378 128.139 120.378 127.039 124.278C126.439 126.878 124.839 131.078 123.139 133.578Z" fill="#501C1E"/>
<path d="M104.639 116.778C104.639 118.678 103.939 120.378 102.939 121.978C102.539 122.678 101.839 123.078 101.039 122.678C100.339 122.278 100.839 121.678 101.039 121.078C103.039 115.878 102.939 115.378 98.6394 111.778C96.8394 110.278 95.0394 108.678 94.5394 106.278C94.4394 105.678 94.1395 104.878 94.9395 104.478C95.7395 104.078 96.1395 104.878 96.3395 105.478C97.5395 108.078 99.8394 109.678 102.039 111.478C103.739 112.778 104.639 114.678 104.639 116.778Z" fill="#501C1E"/>
<path d="M92.6395 119.978C91.2395 122.278 89.3395 122.878 87.0395 122.778C84.9395 122.678 83.8395 121.378 82.9395 119.578C82.2395 118.178 82.5395 116.978 83.4395 115.978C84.3395 114.878 85.3395 113.678 87.0395 113.978C87.3395 114.078 87.8395 113.978 87.9395 114.378C88.0395 114.778 87.6395 114.978 87.3395 115.178C87.2395 115.278 87.0395 115.278 86.9395 115.278C85.2395 115.878 84.1395 116.978 84.8395 118.878C85.4395 120.678 87.6395 121.378 89.6395 120.678C90.6395 120.478 91.2395 119.578 92.6395 119.978Z" fill="#501C1E"/>
<path d="M95.3396 122.978C95.9396 121.278 97.6396 121.078 98.5396 120.078C98.6396 119.978 99.0396 120.078 99.0396 120.178C99.3396 120.578 99.2396 121.078 98.9396 121.378C98.0396 122.278 97.0396 123.078 95.3396 122.978Z" fill="#501C1E"/>
<defs>
<radialGradient id="paint0_radial_3_4310" cx="0" cy="0" r="1" gradientUnits="userSpaceOnUse" gradientTransform="translate(130.52 98.1203) rotate(90.8551) scale(17.6136 9.47707)">
<stop offset="0.4077" stop-color="#9E524E"/>
<stop offset="0.5483" stop-color="#974D4C"/>
<stop offset="0.7479" stop-color="#854047"/>
<stop offset="0.9819" stop-color="#662B3F"/>
<stop offset="0.991" stop-color="#652A3F"/>
</radialGradient>
<linearGradient id="paint1_linear_3_4310" x1="136.338" y1="113.5" x2="119.095" y2="96.2572" gradientUnits="userSpaceOnUse">
<stop offset="0.035885" stop-color="#B1504E"/>
<stop offset="0.0959941" stop-color="#AA504E" stop-opacity="0.7644"/>
<stop offset="0.1813" stop-color="#98504E" stop-opacity="0.4299"/>
<stop offset="0.2814" stop-color="#79504F" stop-opacity="0.0378988"/>
<stop offset="0.291" stop-color="#76504F" stop-opacity="0"/>
<stop offset="0.5725" stop-color="#71444A" stop-opacity="0"/>
<stop offset="0.9936" stop-color="#652A3F" stop-opacity="0"/>
</linearGradient>
<radialGradient id="paint2_radial_3_4310" cx="0" cy="0" r="1" gradientUnits="userSpaceOnUse" gradientTransform="translate(94.0933 85.285) scale(73.5801 73.5801)">
<stop offset="0.4077" stop-color="#9E524E"/>
<stop offset="0.5483" stop-color="#974D4C"/>
<stop offset="0.7479" stop-color="#854047"/>
<stop offset="0.9819" stop-color="#662B3F"/>
<stop offset="0.991" stop-color="#652A3F"/>
</radialGradient>
<linearGradient id="paint3_linear_3_4310" x1="7.98182" y1="118.082" x2="132.716" y2="46.0664" gradientUnits="userSpaceOnUse">
<stop offset="0.035885" stop-color="#B1504E"/>
<stop offset="0.0959941" stop-color="#AA504E" stop-opacity="0.7644"/>
<stop offset="0.1813" stop-color="#98504E" stop-opacity="0.4299"/>
<stop offset="0.2814" stop-color="#79504F" stop-opacity="0.0378988"/>
<stop offset="0.291" stop-color="#76504F" stop-opacity="0"/>
<stop offset="0.5725" stop-color="#71444A" stop-opacity="0"/>
<stop offset="0.9936" stop-color="#652A3F" stop-opacity="0"/>
</linearGradient>
<radialGradient id="paint4_radial_3_4310" cx="0" cy="0" r="1" gradientUnits="userSpaceOnUse" gradientTransform="translate(89.9619 121.943) scale(47.715 47.715)">
<stop offset="0.4141" stop-color="#9E524E"/>
<stop offset="0.6072" stop-color="#974D4A" stop-opacity="0.6705"/>
<stop offset="0.8967" stop-color="#82413D" stop-opacity="0.1764"/>
<stop offset="1" stop-color="#793B38" stop-opacity="0"/>
</radialGradient>
<radialGradient id="paint5_radial_3_4310" cx="0" cy="0" r="1" gradientUnits="userSpaceOnUse" gradientTransform="translate(64.3187 119.351) scale(26.5038)">
<stop stop-color="#B45E59"/>
<stop offset="1" stop-color="#B45E59" stop-opacity="0"/>
</radialGradient>
<radialGradient id="paint6_radial_3_4310" cx="0" cy="0" r="1" gradientUnits="userSpaceOnUse" gradientTransform="translate(96.6277 112.212) scale(15.5133)">
<stop stop-color="#B45E59"/>
<stop offset="1" stop-color="#B45E59" stop-opacity="0"/>
</radialGradient>
<radialGradient id="paint7_radial_3_4310" cx="0" cy="0" r="1" gradientUnits="userSpaceOnUse" gradientTransform="translate(116.626 118.34) scale(19.2998 19.4967)">
<stop stop-color="#CB6A65"/>
<stop offset="1" stop-color="#CB6A65" stop-opacity="0"/>
</radialGradient>
<radialGradient id="paint8_radial_3_4310" cx="0" cy="0" r="1" gradientUnits="userSpaceOnUse" gradientTransform="translate(78.2598 67.862) scale(47.715)">
<stop offset="0.3705" stop-color="#9E524E"/>
<stop offset="1" stop-color="#793B38" stop-opacity="0"/>
</radialGradient>
<radialGradient id="paint9_radial_3_4310" cx="0" cy="0" r="1" gradientTransform="matrix(14.8509 -5.0384 6.79328 20.0225 15.9966 106.835)" gradientUnits="userSpaceOnUse">
<stop offset="0.3705" stop-color="#793B38"/>
<stop offset="1" stop-color="#793B38" stop-opacity="0"/>
</radialGradient>
<radialGradient id="paint10_radial_3_4310" cx="0" cy="0" r="1" gradientUnits="userSpaceOnUse" gradientTransform="translate(91.6209 79.5151) scale(41.9745)">
<stop stop-color="#B45E59"/>
<stop offset="1" stop-color="#B45E59" stop-opacity="0"/>
</radialGradient>
<radialGradient id="paint11_radial_3_4310" cx="0" cy="0" r="1" gradientUnits="userSpaceOnUse" gradientTransform="translate(64.4446 120.583) scale(17.4254 14.0745)">
<stop stop-color="#CB6A65"/>
<stop offset="1" stop-color="#CB6A65" stop-opacity="0"/>
</radialGradient>
<radialGradient id="paint12_radial_3_4310" cx="0" cy="0" r="1" gradientUnits="userSpaceOnUse" gradientTransform="translate(77.2744 47.3026) scale(45.0102 43.8802)">
<stop stop-color="#CB6A65"/>
<stop offset="1" stop-color="#CB6A65" stop-opacity="0"/>
</radialGradient>
<radialGradient id="paint13_radial_3_4310" cx="0" cy="0" r="1" gradientUnits="userSpaceOnUse" gradientTransform="translate(96.3392 115.234) scale(4.0957 3.30808)">
<stop stop-color="#CB6A65"/>
<stop offset="1" stop-color="#CB6A65" stop-opacity="0"/>
</radialGradient>
<radialGradient id="paint14_radial_3_4310" cx="0" cy="0" r="1" gradientUnits="userSpaceOnUse" gradientTransform="translate(90.9651 136.117) scale(7.737 7.737)">
<stop stop-color="#B45E59"/>
<stop offset="1" stop-color="#B45E59" stop-opacity="0"/>
</radialGradient>
</defs>
</svg>
