<svg width="139" height="162" viewBox="0 0 139 162" fill="none" xmlns="http://www.w3.org/2000/svg">
<path d="M138.039 95.3777C137.439 91.4777 136.139 87.9776 131.339 88.1776C131.139 88.1776 130.739 88.2776 130.639 88.1776C116.939 89.2776 116.439 114.278 118.939 119.378C122.139 123.578 127.139 121.378 127.339 121.378C129.339 120.678 131.139 118.878 132.339 117.178C136.939 110.578 139.339 103.478 138.039 95.3777Z" fill="url(#paint0_radial_3_1190)"/>
<path d="M131.739 90.0777C134.339 90.0777 135.539 91.5776 136.239 95.7776C137.339 102.778 135.539 109.378 130.839 116.178C129.539 117.978 128.139 119.278 126.839 119.678C126.839 119.678 126.739 119.678 126.739 119.778C125.939 120.078 125.039 120.278 124.239 120.278C122.739 120.278 121.539 119.678 120.639 118.578C119.239 115.378 118.939 103.278 123.139 95.7776C125.039 92.3776 127.539 90.5776 130.639 90.1776C130.739 90.1776 130.839 90.1776 130.939 90.1776C131.039 90.1776 131.239 90.1776 131.439 90.1776H131.539C131.539 90.0776 131.639 90.0777 131.739 90.0777ZM131.739 88.1776C131.639 88.1776 131.439 88.1776 131.339 88.1776C131.239 88.1776 131.039 88.1776 130.839 88.1776C130.739 88.1776 130.639 88.1776 130.639 88.1776C116.939 89.2776 116.439 114.278 118.939 119.378C120.539 121.478 122.439 121.978 124.139 121.978C125.839 121.978 127.239 121.378 127.339 121.378C129.339 120.678 131.139 118.878 132.339 117.178C136.939 110.678 139.339 103.478 138.139 95.4777C137.439 91.6777 136.239 88.1776 131.739 88.1776Z" fill="url(#paint1_linear_3_1190)"/>
<mask id="mask0_3_1190" style="mask-type:luminance" maskUnits="userSpaceOnUse" x="0" y="0" width="135" height="162">
<path d="M12.3395 87.5777C11.5395 84.6777 10.6395 81.9777 10.1395 79.0777C9.53947 75.9777 9.03948 72.8777 8.83948 69.6777C8.73948 67.6777 8.43946 65.6777 8.53946 63.7777C8.93946 54.7777 10.5395 45.9777 14.2395 37.5777C17.1395 31.0777 20.9395 25.2777 25.6395 20.0777C31.6395 13.4777 38.8395 8.57767 46.9395 4.97767C52.1395 2.67767 57.5395 1.17767 63.0395 0.477667C68.1395 -0.222333 73.2395 -0.122327 78.4395 0.577673C84.8395 1.47767 90.9395 3.27767 96.8395 6.07767C101.139 8.07767 105.139 10.5777 108.839 13.5777C115.239 18.7777 120.539 24.8777 124.639 31.9777C128.439 38.5777 131.139 45.6776 132.739 53.1776C133.539 56.9776 133.939 60.8777 134.239 64.7777C134.439 73.8777 132.839 79.9777 132.139 83.2777C131.839 84.5777 131.539 85.8777 131.139 87.1777C125.039 110.378 127.039 115.278 127.039 121.678C127.139 128.378 123.139 135.278 119.039 140.378C114.039 146.578 107.939 151.578 101.139 155.678C93.4395 160.278 85.0395 161.978 76.0395 160.678C69.0395 159.678 62.8395 156.578 56.8395 153.078C50.5395 149.378 44.7395 144.978 39.3395 139.878C35.1395 135.878 31.4395 131.478 28.4395 126.578C27.5395 125.078 26.6395 124.378 24.7395 124.578C20.0395 125.078 15.9395 123.278 12.4395 120.478C6.43946 115.578 2.03946 109.578 0.439459 101.878C-0.260541 98.5777 -0.360541 95.2777 1.93946 92.3777C4.23946 89.3777 7.43946 88.2777 10.9395 87.8777C11.1395 87.8777 11.3395 87.8777 11.6395 87.8777C11.5395 87.6777 11.8395 87.6777 12.3395 87.5777Z" fill="white"/>
</mask>
<g mask="url(#mask0_3_1190)">
<path d="M130.94 87.0777C131.24 85.7777 131.64 84.4777 131.94 83.1777C132.64 79.7777 134.34 73.6777 134.04 64.6777C133.74 60.7777 133.34 56.8777 132.54 53.0777C130.94 45.5777 128.34 38.4777 124.44 31.8777C120.34 24.7777 115.04 18.6777 108.64 13.4777C104.94 10.4777 100.94 7.97767 96.6396 5.97767C90.8396 3.17767 84.6396 1.47767 78.2396 0.477667C73.0396 -0.222333 67.9396 -0.322339 62.8396 0.377661C57.2396 1.17766 51.9396 2.67766 46.7396 4.87766C38.5396 8.47766 31.4396 13.3777 25.4396 19.9777C20.6396 25.1777 16.8396 30.9777 14.0396 37.4777C10.3396 45.8777 8.83958 54.5776 8.33958 63.6776C8.23958 65.6776 8.53957 67.6777 8.63957 69.5777C8.83957 72.7777 9.33956 75.8777 9.93956 78.9777C10.4396 81.7777 11.4396 84.4777 12.1396 87.4777C11.6396 87.5777 11.4396 87.5777 11.2396 87.5777C11.0396 87.5777 10.8396 87.5777 10.5396 87.5777C7.03957 87.9777 3.83956 89.0777 1.53956 92.0777C-0.760435 94.9777 -0.560435 98.3777 0.0395646 101.578C1.63956 109.278 6.03957 115.278 12.0396 120.178C15.5396 122.978 19.6396 124.778 24.3396 124.278C26.2396 124.078 27.1396 124.778 28.0396 126.278C31.0396 131.178 34.7396 135.678 38.9396 139.578C44.2396 144.578 50.0396 149.078 56.4396 152.778C62.4396 156.278 68.6396 159.378 75.6396 160.378C84.6396 161.678 92.9396 159.978 100.74 155.378C107.54 151.278 113.64 146.278 118.64 140.078C122.74 135.078 125.84 129.978 126.74 123.478C126.84 122.978 127.44 117.278 126.74 113.678C126.54 107.978 130.84 87.4777 130.94 87.0777Z" fill="url(#paint2_radial_3_1190)"/>
<path d="M70.0397 1.87766C72.6397 1.87766 75.3397 2.07766 78.0397 2.47766C84.5397 3.37766 90.3397 5.17765 95.8397 7.77765C100.04 9.77765 104.04 12.2777 107.44 15.0777C113.64 20.0777 118.84 26.0777 122.74 32.9777C126.34 39.2777 129.04 46.1776 130.64 53.6776C131.54 57.7776 131.84 61.8777 132.04 64.9777C132.24 72.7777 131.04 78.2777 130.24 81.8777C130.14 82.2777 130.04 82.6777 129.94 83.0777C129.74 83.8777 129.54 84.6777 129.34 85.4777C129.24 85.9777 129.14 86.3777 128.94 86.8777C128.94 87.0777 124.44 107.878 124.84 114.178V114.278V114.378C125.44 117.478 124.94 122.878 124.84 123.578C123.94 130.278 120.44 135.278 117.14 139.278C112.44 145.078 106.54 150.078 99.6397 154.178C93.8397 157.578 87.6397 159.378 81.2397 159.378C79.4397 159.378 77.6397 159.278 75.7397 158.978C68.8397 157.978 62.7397 154.878 57.2397 151.578C51.2397 148.078 45.4397 143.678 40.1397 138.678C35.9397 134.678 32.3397 130.378 29.5397 125.778C28.7397 124.478 27.4397 122.878 24.8397 122.878C24.5397 122.878 24.3397 122.878 24.0397 122.878C23.5397 122.878 23.1397 122.978 22.6397 122.978C19.4397 122.978 16.2397 121.678 13.1397 119.178C6.93966 114.078 3.13967 108.378 1.73967 101.678C0.939668 98.0776 1.33967 95.6776 2.83967 93.6776C4.53967 91.4776 6.93966 90.2777 10.6397 89.8777H10.7397C10.8397 89.8777 10.8397 89.8777 10.9397 89.8777C11.0397 89.8777 11.1397 89.8777 11.2397 89.8777C11.4397 89.8777 11.6397 89.8776 11.9397 89.7776L12.3397 89.6776L14.3397 89.3777L13.8397 87.3777C13.6397 86.4777 13.3397 85.6776 13.1397 84.7776C12.5397 82.7776 12.0397 80.9777 11.6397 79.0777C11.1397 76.2777 10.5397 73.0777 10.3397 69.9777C10.3397 69.2777 10.2397 68.5777 10.1397 67.9777C10.0397 66.6777 9.93965 65.4776 9.93965 64.2776C10.4397 54.4776 12.2397 46.0776 15.4397 38.7776C18.2397 32.3776 21.8397 26.8776 26.5397 21.7776C32.3397 15.4776 39.1397 10.6777 47.2397 7.07767C52.2397 4.87767 57.4397 3.37764 62.8397 2.67764C65.4397 1.97764 67.7397 1.87766 70.0397 1.87766ZM70.0397 -0.0223389C67.6397 -0.0223389 65.3397 0.177661 62.9397 0.477661C57.3397 1.27766 52.0397 2.77766 46.8397 4.97766C38.6397 8.57766 31.5397 13.4777 25.5397 20.0777C20.7397 25.2777 16.9397 31.0777 14.1397 37.5777C10.4397 45.9777 8.93965 54.6776 8.43965 63.7776C8.33965 65.7776 8.63967 67.7776 8.73967 69.6776C8.93967 72.8776 9.43966 75.9777 10.0397 79.0777C10.5397 81.8777 11.5397 84.5777 12.2397 87.5777C11.7397 87.6777 11.5397 87.6776 11.3397 87.6776C11.2397 87.6776 11.2397 87.6776 11.1397 87.6776C11.0397 87.6776 10.9397 87.6776 10.8397 87.6776C10.7397 87.6776 10.7397 87.6776 10.6397 87.6776C7.13966 88.0776 3.93966 89.1776 1.63966 92.1776C-0.660338 95.0776 -0.460338 98.4776 0.139662 101.678C1.73966 109.378 6.13966 115.378 12.1397 120.278C15.2397 122.778 18.8397 124.478 22.8397 124.478C23.3397 124.478 23.8396 124.478 24.4396 124.378C24.6396 124.378 24.8397 124.378 25.0397 124.378C26.5397 124.378 27.3397 125.078 28.1397 126.378C31.1397 131.278 34.8397 135.778 39.0397 139.678C44.3397 144.678 50.1397 149.178 56.5397 152.878C62.5397 156.378 68.7397 159.478 75.7397 160.478C77.6397 160.778 79.6397 160.878 81.4397 160.878C88.2397 160.878 94.7397 159.078 100.74 155.478C107.54 151.378 113.64 146.378 118.64 140.178C122.74 135.178 125.84 130.078 126.74 123.578C126.84 123.078 127.44 117.378 126.74 113.778C126.34 107.878 130.74 87.3777 130.84 86.9777C131.14 85.6777 131.54 84.3777 131.84 83.0777C132.54 79.6777 134.24 73.5777 133.94 64.5777C133.64 60.6777 133.24 56.7777 132.44 52.9777C130.84 45.4777 128.24 38.3776 124.34 31.7776C120.24 24.6776 114.94 18.5777 108.54 13.3777C104.84 10.3777 100.84 7.87766 96.5397 5.87766C90.7397 3.07766 84.5397 1.37766 78.1397 0.377655C75.5397 0.177655 72.8397 -0.0223389 70.0397 -0.0223389Z" fill="url(#paint3_linear_3_1190)"/>
</g>
<mask id="mask1_3_1190" style="mask-type:luminance" maskUnits="userSpaceOnUse" x="0" y="0" width="135" height="162">
<path d="M12.3395 87.5777C11.5395 84.6777 10.6395 81.9777 10.1395 79.0777C9.53947 75.9777 9.03948 72.8777 8.83948 69.6777C8.73948 67.6777 8.43946 65.6777 8.53946 63.7777C8.93946 54.7777 10.5395 45.9777 14.2395 37.5777C17.1395 31.0777 20.9395 25.2777 25.6395 20.0777C31.6395 13.4777 38.8395 8.57767 46.9395 4.97767C52.1395 2.67767 57.5395 1.17767 63.0395 0.477667C68.1395 -0.222333 73.2395 -0.122327 78.4395 0.577673C84.8395 1.47767 90.9395 3.27767 96.8395 6.07767C101.139 8.07767 105.139 10.5777 108.839 13.5777C115.239 18.7777 120.539 24.8777 124.639 31.9777C128.439 38.5777 131.139 45.6776 132.739 53.1776C133.539 56.9776 133.939 60.8777 134.239 64.7777C134.439 73.8777 132.839 79.9777 132.139 83.2777C131.839 84.5777 131.539 85.8777 131.139 87.1777C125.039 110.378 127.039 115.278 127.039 121.678C127.139 128.378 123.139 135.278 119.039 140.378C114.039 146.578 107.939 151.578 101.139 155.678C93.4395 160.278 85.0395 161.978 76.0395 160.678C69.0395 159.678 62.8395 156.578 56.8395 153.078C50.5395 149.378 44.7395 144.978 39.3395 139.878C35.1395 135.878 31.4395 131.478 28.4395 126.578C27.5395 125.078 26.6395 124.378 24.7395 124.578C20.0395 125.078 15.9395 123.278 12.4395 120.478C6.43946 115.578 2.03946 109.578 0.439459 101.878C-0.260541 98.5777 -0.360541 95.2777 1.93946 92.3777C4.23946 89.3777 7.43946 88.2777 10.9395 87.8777C11.1395 87.8777 11.3395 87.8777 11.6395 87.8777C11.5395 87.6777 11.8395 87.6777 12.3395 87.5777Z" fill="white"/>
</mask>
<g mask="url(#mask1_3_1190)">
<path d="M89.9395 169.678C116.283 169.678 137.639 148.322 137.639 121.978C137.639 95.6337 116.283 74.2776 89.9395 74.2776C63.5955 74.2776 42.2395 95.6337 42.2395 121.978C42.2395 148.322 63.5955 169.678 89.9395 169.678Z" fill="url(#paint4_radial_3_1190)"/>
</g>
<mask id="mask2_3_1190" style="mask-type:luminance" maskUnits="userSpaceOnUse" x="0" y="0" width="135" height="162">
<path d="M12.3395 87.5777C11.5395 84.6777 10.6395 81.9777 10.1395 79.0777C9.53947 75.9777 9.03948 72.8777 8.83948 69.6777C8.73948 67.6777 8.43946 65.6777 8.53946 63.7777C8.93946 54.7777 10.5395 45.9777 14.2395 37.5777C17.1395 31.0777 20.9395 25.2777 25.6395 20.0777C31.6395 13.4777 38.8395 8.57767 46.9395 4.97767C52.1395 2.67767 57.5395 1.17767 63.0395 0.477667C68.1395 -0.222333 73.2395 -0.122327 78.4395 0.577673C84.8395 1.47767 90.9395 3.27767 96.8395 6.07767C101.139 8.07767 105.139 10.5777 108.839 13.5777C115.239 18.7777 120.539 24.8777 124.639 31.9777C128.439 38.5777 131.139 45.6776 132.739 53.1776C133.539 56.9776 133.939 60.8777 134.239 64.7777C134.439 73.8777 132.839 79.9777 132.139 83.2777C131.839 84.5777 131.539 85.8777 131.139 87.1777C125.039 110.378 127.039 115.278 127.039 121.678C127.139 128.378 123.139 135.278 119.039 140.378C114.039 146.578 107.939 151.578 101.139 155.678C93.4395 160.278 85.0395 161.978 76.0395 160.678C69.0395 159.678 62.8395 156.578 56.8395 153.078C50.5395 149.378 44.7395 144.978 39.3395 139.878C35.1395 135.878 31.4395 131.478 28.4395 126.578C27.5395 125.078 26.6395 124.378 24.7395 124.578C20.0395 125.078 15.9395 123.278 12.4395 120.478C6.43946 115.578 2.03946 109.578 0.439459 101.878C-0.260541 98.5777 -0.360541 95.2777 1.93946 92.3777C4.23946 89.3777 7.43946 88.2777 10.9395 87.8777C11.1395 87.8777 11.3395 87.8777 11.6395 87.8777C11.5395 87.6777 11.8395 87.6777 12.3395 87.5777Z" fill="white"/>
</mask>
<g mask="url(#mask2_3_1190)">
<path d="M64.2395 145.878C78.875 145.878 90.7395 134.013 90.7395 119.378C90.7395 104.742 78.875 92.8777 64.2395 92.8777C49.604 92.8777 37.7395 104.742 37.7395 119.378C37.7395 134.013 49.604 145.878 64.2395 145.878Z" fill="url(#paint5_radial_3_1190)"/>
</g>
<mask id="mask3_3_1190" style="mask-type:luminance" maskUnits="userSpaceOnUse" x="0" y="0" width="135" height="162">
<path d="M12.3395 87.5777C11.5395 84.6777 10.6395 81.9777 10.1395 79.0777C9.53947 75.9777 9.03948 72.8777 8.83948 69.6777C8.73948 67.6777 8.43946 65.6777 8.53946 63.7777C8.93946 54.7777 10.5395 45.9777 14.2395 37.5777C17.1395 31.0777 20.9395 25.2777 25.6395 20.0777C31.6395 13.4777 38.8395 8.57767 46.9395 4.97767C52.1395 2.67767 57.5395 1.17767 63.0395 0.477667C68.1395 -0.222333 73.2395 -0.122327 78.4395 0.577673C84.8395 1.47767 90.9395 3.27767 96.8395 6.07767C101.139 8.07767 105.139 10.5777 108.839 13.5777C115.239 18.7777 120.539 24.8777 124.639 31.9777C128.439 38.5777 131.139 45.6776 132.739 53.1776C133.539 56.9776 133.939 60.8777 134.239 64.7777C134.439 73.8777 132.839 79.9777 132.139 83.2777C131.839 84.5777 131.539 85.8777 131.139 87.1777C125.039 110.378 127.039 115.278 127.039 121.678C127.139 128.378 123.139 135.278 119.039 140.378C114.039 146.578 107.939 151.578 101.139 155.678C93.4395 160.278 85.0395 161.978 76.0395 160.678C69.0395 159.678 62.8395 156.578 56.8395 153.078C50.5395 149.378 44.7395 144.978 39.3395 139.878C35.1395 135.878 31.4395 131.478 28.4395 126.578C27.5395 125.078 26.6395 124.378 24.7395 124.578C20.0395 125.078 15.9395 123.278 12.4395 120.478C6.43946 115.578 2.03946 109.578 0.439459 101.878C-0.260541 98.5777 -0.360541 95.2777 1.93946 92.3777C4.23946 89.3777 7.43946 88.2777 10.9395 87.8777C11.1395 87.8777 11.3395 87.8777 11.6395 87.8777C11.5395 87.6777 11.8395 87.6777 12.3395 87.5777Z" fill="white"/>
</mask>
<g mask="url(#mask3_3_1190)">
<path d="M96.5396 127.678C105.1 127.678 112.04 120.738 112.04 112.178C112.04 103.617 105.1 96.6776 96.5396 96.6776C87.9791 96.6776 81.0396 103.617 81.0396 112.178C81.0396 120.738 87.9791 127.678 96.5396 127.678Z" fill="url(#paint6_radial_3_1190)"/>
</g>
<mask id="mask4_3_1190" style="mask-type:luminance" maskUnits="userSpaceOnUse" x="0" y="0" width="135" height="162">
<path d="M12.3395 87.5777C11.5395 84.6777 10.6395 81.9777 10.1395 79.0777C9.53947 75.9777 9.03948 72.8777 8.83948 69.6777C8.73948 67.6777 8.43946 65.6777 8.53946 63.7777C8.93946 54.7777 10.5395 45.9777 14.2395 37.5777C17.1395 31.0777 20.9395 25.2777 25.6395 20.0777C31.6395 13.4777 38.8395 8.57767 46.9395 4.97767C52.1395 2.67767 57.5395 1.17767 63.0395 0.477667C68.1395 -0.222333 73.2395 -0.122327 78.4395 0.577673C84.8395 1.47767 90.9395 3.27767 96.8395 6.07767C101.139 8.07767 105.139 10.5777 108.839 13.5777C115.239 18.7777 120.539 24.8777 124.639 31.9777C128.439 38.5777 131.139 45.6776 132.739 53.1776C133.539 56.9776 133.939 60.8777 134.239 64.7777C134.439 73.8777 132.839 79.9777 132.139 83.2777C131.839 84.5777 131.539 85.8777 131.139 87.1777C125.039 110.378 127.039 115.278 127.039 121.678C127.139 128.378 123.139 135.278 119.039 140.378C114.039 146.578 107.939 151.578 101.139 155.678C93.4395 160.278 85.0395 161.978 76.0395 160.678C69.0395 159.678 62.8395 156.578 56.8395 153.078C50.5395 149.378 44.7395 144.978 39.3395 139.878C35.1395 135.878 31.4395 131.478 28.4395 126.578C27.5395 125.078 26.6395 124.378 24.7395 124.578C20.0395 125.078 15.9395 123.278 12.4395 120.478C6.43946 115.578 2.03946 109.578 0.439459 101.878C-0.260541 98.5777 -0.360541 95.2777 1.93946 92.3777C4.23946 89.3777 7.43946 88.2777 10.9395 87.8777C11.1395 87.8777 11.3395 87.8777 11.6395 87.8777C11.5395 87.6777 11.8395 87.6777 12.3395 87.5777Z" fill="white"/>
</mask>
<g mask="url(#mask4_3_1190)">
<path d="M116.54 144.878C131.175 144.878 143.04 133.013 143.04 118.378C143.04 103.742 131.175 91.8777 116.54 91.8777C101.904 91.8777 90.0396 103.742 90.0396 118.378C90.0396 133.013 101.904 144.878 116.54 144.878Z" fill="url(#paint7_radial_3_1190)"/>
</g>
<mask id="mask5_3_1190" style="mask-type:luminance" maskUnits="userSpaceOnUse" x="0" y="0" width="135" height="162">
<path d="M12.3395 87.5777C11.5395 84.6777 10.6395 81.9777 10.1395 79.0777C9.53947 75.9777 9.03948 72.8777 8.83948 69.6777C8.73948 67.6777 8.43946 65.6777 8.53946 63.7777C8.93946 54.7777 10.5395 45.9777 14.2395 37.5777C17.1395 31.0777 20.9395 25.2777 25.6395 20.0777C31.6395 13.4777 38.8395 8.57767 46.9395 4.97767C52.1395 2.67767 57.5395 1.17767 63.0395 0.477667C68.1395 -0.222333 73.2395 -0.122327 78.4395 0.577673C84.8395 1.47767 90.9395 3.27767 96.8395 6.07767C101.139 8.07767 105.139 10.5777 108.839 13.5777C115.239 18.7777 120.539 24.8777 124.639 31.9777C128.439 38.5777 131.139 45.6776 132.739 53.1776C133.539 56.9776 133.939 60.8777 134.239 64.7777C134.439 73.8777 132.839 79.9777 132.139 83.2777C131.839 84.5777 131.539 85.8777 131.139 87.1777C125.039 110.378 127.039 115.278 127.039 121.678C127.139 128.378 123.139 135.278 119.039 140.378C114.039 146.578 107.939 151.578 101.139 155.678C93.4395 160.278 85.0395 161.978 76.0395 160.678C69.0395 159.678 62.8395 156.578 56.8395 153.078C50.5395 149.378 44.7395 144.978 39.3395 139.878C35.1395 135.878 31.4395 131.478 28.4395 126.578C27.5395 125.078 26.6395 124.378 24.7395 124.578C20.0395 125.078 15.9395 123.278 12.4395 120.478C6.43946 115.578 2.03946 109.578 0.439459 101.878C-0.260541 98.5777 -0.360541 95.2777 1.93946 92.3777C4.23946 89.3777 7.43946 88.2777 10.9395 87.8777C11.1395 87.8777 11.3395 87.8777 11.6395 87.8777C11.5395 87.6777 11.8395 87.6777 12.3395 87.5777Z" fill="white"/>
</mask>
<g mask="url(#mask5_3_1190)">
<path d="M78.2396 115.578C104.584 115.578 125.94 94.2216 125.94 67.8777C125.94 41.5337 104.584 20.1776 78.2396 20.1776C51.8956 20.1776 30.5396 41.5337 30.5396 67.8777C30.5396 94.2216 51.8956 115.578 78.2396 115.578Z" fill="url(#paint8_radial_3_1190)"/>
</g>
<mask id="mask6_3_1190" style="mask-type:luminance" maskUnits="userSpaceOnUse" x="0" y="0" width="135" height="162">
<path d="M12.3395 87.5777C11.5395 84.6777 10.6395 81.9777 10.1395 79.0777C9.53947 75.9777 9.03948 72.8777 8.83948 69.6777C8.73948 67.6777 8.43946 65.6777 8.53946 63.7777C8.93946 54.7777 10.5395 45.9777 14.2395 37.5777C17.1395 31.0777 20.9395 25.2777 25.6395 20.0777C31.6395 13.4777 38.8395 8.57767 46.9395 4.97767C52.1395 2.67767 57.5395 1.17767 63.0395 0.477667C68.1395 -0.222333 73.2395 -0.122327 78.4395 0.577673C84.8395 1.47767 90.9395 3.27767 96.8395 6.07767C101.139 8.07767 105.139 10.5777 108.839 13.5777C115.239 18.7777 120.539 24.8777 124.639 31.9777C128.439 38.5777 131.139 45.6776 132.739 53.1776C133.539 56.9776 133.939 60.8777 134.239 64.7777C134.439 73.8777 132.839 79.9777 132.139 83.2777C131.839 84.5777 131.539 85.8777 131.139 87.1777C125.039 110.378 127.039 115.278 127.039 121.678C127.139 128.378 123.139 135.278 119.039 140.378C114.039 146.578 107.939 151.578 101.139 155.678C93.4395 160.278 85.0395 161.978 76.0395 160.678C69.0395 159.678 62.8395 156.578 56.8395 153.078C50.5395 149.378 44.7395 144.978 39.3395 139.878C35.1395 135.878 31.4395 131.478 28.4395 126.578C27.5395 125.078 26.6395 124.378 24.7395 124.578C20.0395 125.078 15.9395 123.278 12.4395 120.478C6.43946 115.578 2.03946 109.578 0.439459 101.878C-0.260541 98.5777 -0.360541 95.2777 1.93946 92.3777C4.23946 89.3777 7.43946 88.2777 10.9395 87.8777C11.1395 87.8777 11.3395 87.8777 11.6395 87.8777C11.5395 87.6777 11.8395 87.6777 12.3395 87.5777Z" fill="white"/>
</mask>
<g mask="url(#mask6_3_1190)">
<path d="M30.8395 101.778C34.6395 112.878 30.9395 124.078 22.7395 126.878C14.5395 129.678 4.83949 122.978 1.13949 111.878C-2.66051 100.778 1.03949 89.5776 9.23949 86.7776C17.3395 83.9776 27.0395 90.6776 30.8395 101.778Z" fill="url(#paint9_radial_3_1190)"/>
</g>
<mask id="mask7_3_1190" style="mask-type:luminance" maskUnits="userSpaceOnUse" x="0" y="0" width="135" height="162">
<path d="M12.3395 87.5777C11.5395 84.6777 10.6395 81.9777 10.1395 79.0777C9.53947 75.9777 9.03948 72.8777 8.83948 69.6777C8.73948 67.6777 8.43946 65.6777 8.53946 63.7777C8.93946 54.7777 10.5395 45.9777 14.2395 37.5777C17.1395 31.0777 20.9395 25.2777 25.6395 20.0777C31.6395 13.4777 38.8395 8.57767 46.9395 4.97767C52.1395 2.67767 57.5395 1.17767 63.0395 0.477667C68.1395 -0.222333 73.2395 -0.122327 78.4395 0.577673C84.8395 1.47767 90.9395 3.27767 96.8395 6.07767C101.139 8.07767 105.139 10.5777 108.839 13.5777C115.239 18.7777 120.539 24.8777 124.639 31.9777C128.439 38.5777 131.139 45.6776 132.739 53.1776C133.539 56.9776 133.939 60.8777 134.239 64.7777C134.439 73.8777 132.839 79.9777 132.139 83.2777C131.839 84.5777 131.539 85.8777 131.139 87.1777C125.039 110.378 127.039 115.278 127.039 121.678C127.139 128.378 123.139 135.278 119.039 140.378C114.039 146.578 107.939 151.578 101.139 155.678C93.4395 160.278 85.0395 161.978 76.0395 160.678C69.0395 159.678 62.8395 156.578 56.8395 153.078C50.5395 149.378 44.7395 144.978 39.3395 139.878C35.1395 135.878 31.4395 131.478 28.4395 126.578C27.5395 125.078 26.6395 124.378 24.7395 124.578C20.0395 125.078 15.9395 123.278 12.4395 120.478C6.43946 115.578 2.03946 109.578 0.439459 101.878C-0.260541 98.5777 -0.360541 95.2777 1.93946 92.3777C4.23946 89.3777 7.43946 88.2777 10.9395 87.8777C11.1395 87.8777 11.3395 87.8777 11.6395 87.8777C11.5395 87.6777 11.8395 87.6777 12.3395 87.5777Z" fill="white"/>
</mask>
<g mask="url(#mask7_3_1190)">
<path d="M91.5396 121.478C114.736 121.478 133.54 102.674 133.54 79.4777C133.54 56.2817 114.736 37.4777 91.5396 37.4777C68.3436 37.4777 49.5396 56.2817 49.5396 79.4777C49.5396 102.674 68.3436 121.478 91.5396 121.478Z" fill="url(#paint10_radial_3_1190)"/>
</g>
<mask id="mask8_3_1190" style="mask-type:luminance" maskUnits="userSpaceOnUse" x="0" y="0" width="135" height="162">
<path d="M12.3395 87.5777C11.5395 84.6777 10.6395 81.9777 10.1395 79.0777C9.53947 75.9777 9.03948 72.8777 8.83948 69.6777C8.73948 67.6777 8.43946 65.6777 8.53946 63.7777C8.93946 54.7777 10.5395 45.9777 14.2395 37.5777C17.1395 31.0777 20.9395 25.2777 25.6395 20.0777C31.6395 13.4777 38.8395 8.57767 46.9395 4.97767C52.1395 2.67767 57.5395 1.17767 63.0395 0.477667C68.1395 -0.222333 73.2395 -0.122327 78.4395 0.577673C84.8395 1.47767 90.9395 3.27767 96.8395 6.07767C101.139 8.07767 105.139 10.5777 108.839 13.5777C115.239 18.7777 120.539 24.8777 124.639 31.9777C128.439 38.5777 131.139 45.6776 132.739 53.1776C133.539 56.9776 133.939 60.8777 134.239 64.7777C134.439 73.8777 132.839 79.9777 132.139 83.2777C131.839 84.5777 131.539 85.8777 131.139 87.1777C125.039 110.378 127.039 115.278 127.039 121.678C127.139 128.378 123.139 135.278 119.039 140.378C114.039 146.578 107.939 151.578 101.139 155.678C93.4395 160.278 85.0395 161.978 76.0395 160.678C69.0395 159.678 62.8395 156.578 56.8395 153.078C50.5395 149.378 44.7395 144.978 39.3395 139.878C35.1395 135.878 31.4395 131.478 28.4395 126.578C27.5395 125.078 26.6395 124.378 24.7395 124.578C20.0395 125.078 15.9395 123.278 12.4395 120.478C6.43946 115.578 2.03946 109.578 0.439459 101.878C-0.260541 98.5777 -0.360541 95.2777 1.93946 92.3777C4.23946 89.3777 7.43946 88.2777 10.9395 87.8777C11.1395 87.8777 11.3395 87.8777 11.6395 87.8777C11.5395 87.6777 11.8395 87.6777 12.3395 87.5777Z" fill="white"/>
</mask>
<g mask="url(#mask8_3_1190)">
<g opacity="0.5">
<path d="M24.4393 109.078C23.4393 105.078 21.0394 101.478 18.1394 99.7776C15.2394 98.0776 10.7393 96.0777 8.53935 98.5777C4.13935 103.678 9.63937 110.378 13.8394 112.678C15.9394 113.878 18.3394 114.978 19.3394 114.978C17.4394 112.978 15.7394 109.278 18.3394 107.978C18.7394 107.878 21.4393 107.078 24.4393 109.078Z" fill="#945959"/>
</g>
</g>
<mask id="mask9_3_1190" style="mask-type:luminance" maskUnits="userSpaceOnUse" x="0" y="0" width="135" height="162">
<path d="M12.3395 87.5777C11.5395 84.6777 10.6395 81.9777 10.1395 79.0777C9.53947 75.9777 9.03948 72.8777 8.83948 69.6777C8.73948 67.6777 8.43946 65.6777 8.53946 63.7777C8.93946 54.7777 10.5395 45.9777 14.2395 37.5777C17.1395 31.0777 20.9395 25.2777 25.6395 20.0777C31.6395 13.4777 38.8395 8.57767 46.9395 4.97767C52.1395 2.67767 57.5395 1.17767 63.0395 0.477667C68.1395 -0.222333 73.2395 -0.122327 78.4395 0.577673C84.8395 1.47767 90.9395 3.27767 96.8395 6.07767C101.139 8.07767 105.139 10.5777 108.839 13.5777C115.239 18.7777 120.539 24.8777 124.639 31.9777C128.439 38.5777 131.139 45.6776 132.739 53.1776C133.539 56.9776 133.939 60.8777 134.239 64.7777C134.439 73.8777 132.839 79.9777 132.139 83.2777C131.839 84.5777 131.539 85.8777 131.139 87.1777C125.039 110.378 127.039 115.278 127.039 121.678C127.139 128.378 123.139 135.278 119.039 140.378C114.039 146.578 107.939 151.578 101.139 155.678C93.4395 160.278 85.0395 161.978 76.0395 160.678C69.0395 159.678 62.8395 156.578 56.8395 153.078C50.5395 149.378 44.7395 144.978 39.3395 139.878C35.1395 135.878 31.4395 131.478 28.4395 126.578C27.5395 125.078 26.6395 124.378 24.7395 124.578C20.0395 125.078 15.9395 123.278 12.4395 120.478C6.43946 115.578 2.03946 109.578 0.439459 101.878C-0.260541 98.5777 -0.360541 95.2777 1.93946 92.3777C4.23946 89.3777 7.43946 88.2777 10.9395 87.8777C11.1395 87.8777 11.3395 87.8777 11.6395 87.8777C11.5395 87.6777 11.8395 87.6777 12.3395 87.5777Z" fill="white"/>
</mask>
<g mask="url(#mask9_3_1190)">
<path d="M64.3395 137.878C75.4404 137.878 84.4395 130.132 84.4395 120.578C84.4395 111.023 75.4404 103.278 64.3395 103.278C53.2386 103.278 44.2395 111.023 44.2395 120.578C44.2395 130.132 53.2386 137.878 64.3395 137.878Z" fill="url(#paint11_radial_3_1190)"/>
</g>
<mask id="mask10_3_1190" style="mask-type:luminance" maskUnits="userSpaceOnUse" x="0" y="0" width="135" height="162">
<path d="M12.3395 87.5777C11.5395 84.6777 10.6395 81.9777 10.1395 79.0777C9.53947 75.9777 9.03948 72.8777 8.83948 69.6777C8.73948 67.6777 8.43946 65.6777 8.53946 63.7777C8.93946 54.7777 10.5395 45.9777 14.2395 37.5777C17.1395 31.0777 20.9395 25.2777 25.6395 20.0777C31.6395 13.4777 38.8395 8.57767 46.9395 4.97767C52.1395 2.67767 57.5395 1.17767 63.0395 0.477667C68.1395 -0.222333 73.2395 -0.122327 78.4395 0.577673C84.8395 1.47767 90.9395 3.27767 96.8395 6.07767C101.139 8.07767 105.139 10.5777 108.839 13.5777C115.239 18.7777 120.539 24.8777 124.639 31.9777C128.439 38.5777 131.139 45.6776 132.739 53.1776C133.539 56.9776 133.939 60.8777 134.239 64.7777C134.439 73.8777 132.839 79.9777 132.139 83.2777C131.839 84.5777 131.539 85.8777 131.139 87.1777C125.039 110.378 127.039 115.278 127.039 121.678C127.139 128.378 123.139 135.278 119.039 140.378C114.039 146.578 107.939 151.578 101.139 155.678C93.4395 160.278 85.0395 161.978 76.0395 160.678C69.0395 159.678 62.8395 156.578 56.8395 153.078C50.5395 149.378 44.7395 144.978 39.3395 139.878C35.1395 135.878 31.4395 131.478 28.4395 126.578C27.5395 125.078 26.6395 124.378 24.7395 124.578C20.0395 125.078 15.9395 123.278 12.4395 120.478C6.43946 115.578 2.03946 109.578 0.439459 101.878C-0.260541 98.5777 -0.360541 95.2777 1.93946 92.3777C4.23946 89.3777 7.43946 88.2777 10.9395 87.8777C11.1395 87.8777 11.3395 87.8777 11.6395 87.8777C11.5395 87.6777 11.8395 87.6777 12.3395 87.5777Z" fill="white"/>
</mask>
<g mask="url(#mask10_3_1190)">
<path d="M96.2396 119.278C98.8353 119.278 100.94 117.442 100.94 115.178C100.94 112.913 98.8353 111.078 96.2396 111.078C93.6438 111.078 91.5396 112.913 91.5396 115.178C91.5396 117.442 93.6438 119.278 96.2396 119.278Z" fill="url(#paint12_radial_3_1190)"/>
</g>
<mask id="mask11_3_1190" style="mask-type:luminance" maskUnits="userSpaceOnUse" x="0" y="0" width="135" height="162">
<path d="M12.3395 87.5777C11.5395 84.6777 10.6395 81.9777 10.1395 79.0777C9.53947 75.9777 9.03948 72.8777 8.83948 69.6777C8.73948 67.6777 8.43946 65.6777 8.53946 63.7777C8.93946 54.7777 10.5395 45.9777 14.2395 37.5777C17.1395 31.0777 20.9395 25.2777 25.6395 20.0777C31.6395 13.4777 38.8395 8.57767 46.9395 4.97767C52.1395 2.67767 57.5395 1.17767 63.0395 0.477667C68.1395 -0.222333 73.2395 -0.122327 78.4395 0.577673C84.8395 1.47767 90.9395 3.27767 96.8395 6.07767C101.139 8.07767 105.139 10.5777 108.839 13.5777C115.239 18.7777 120.539 24.8777 124.639 31.9777C128.439 38.5777 131.139 45.6776 132.739 53.1776C133.539 56.9776 133.939 60.8777 134.239 64.7777C134.439 73.8777 132.839 79.9777 132.139 83.2777C131.839 84.5777 131.539 85.8777 131.139 87.1777C125.039 110.378 127.039 115.278 127.039 121.678C127.139 128.378 123.139 135.278 119.039 140.378C114.039 146.578 107.939 151.578 101.139 155.678C93.4395 160.278 85.0395 161.978 76.0395 160.678C69.0395 159.678 62.8395 156.578 56.8395 153.078C50.5395 149.378 44.7395 144.978 39.3395 139.878C35.1395 135.878 31.4395 131.478 28.4395 126.578C27.5395 125.078 26.6395 124.378 24.7395 124.578C20.0395 125.078 15.9395 123.278 12.4395 120.478C6.43946 115.578 2.03946 109.578 0.439459 101.878C-0.260541 98.5777 -0.360541 95.2777 1.93946 92.3777C4.23946 89.3777 7.43946 88.2777 10.9395 87.8777C11.1395 87.8777 11.3395 87.8777 11.6395 87.8777C11.5395 87.6777 11.8395 87.6777 12.3395 87.5777Z" fill="white"/>
</mask>
<g mask="url(#mask11_3_1190)">
<g opacity="0.3">
<path d="M80.8394 137.678C85.9394 138.978 90.7394 139.678 95.9394 139.178C96.6394 139.078 97.3394 138.978 97.9394 138.978C99.0394 138.978 99.7394 140.178 99.1394 141.178C98.7394 142.078 98.1394 142.778 97.4394 143.478C96.9394 143.978 96.4394 144.378 95.8394 144.678C93.7394 145.978 90.2394 146.478 87.8394 146.178C85.4394 145.878 80.1394 144.378 78.3394 139.878C77.9394 138.878 78.8394 137.378 79.8394 137.578L80.8394 137.678Z" fill="#833333"/>
</g>
</g>
<mask id="mask12_3_1190" style="mask-type:luminance" maskUnits="userSpaceOnUse" x="0" y="0" width="135" height="162">
<path d="M12.3395 87.5777C11.5395 84.6777 10.6395 81.9777 10.1395 79.0777C9.53947 75.9777 9.03948 72.8777 8.83948 69.6777C8.73948 67.6777 8.43946 65.6777 8.53946 63.7777C8.93946 54.7777 10.5395 45.9777 14.2395 37.5777C17.1395 31.0777 20.9395 25.2777 25.6395 20.0777C31.6395 13.4777 38.8395 8.57767 46.9395 4.97767C52.1395 2.67767 57.5395 1.17767 63.0395 0.477667C68.1395 -0.222333 73.2395 -0.122327 78.4395 0.577673C84.8395 1.47767 90.9395 3.27767 96.8395 6.07767C101.139 8.07767 105.139 10.5777 108.839 13.5777C115.239 18.7777 120.539 24.8777 124.639 31.9777C128.439 38.5777 131.139 45.6776 132.739 53.1776C133.539 56.9776 133.939 60.8777 134.239 64.7777C134.439 73.8777 132.839 79.9777 132.139 83.2777C131.839 84.5777 131.539 85.8777 131.139 87.1777C125.039 110.378 127.039 115.278 127.039 121.678C127.139 128.378 123.139 135.278 119.039 140.378C114.039 146.578 107.939 151.578 101.139 155.678C93.4395 160.278 85.0395 161.978 76.0395 160.678C69.0395 159.678 62.8395 156.578 56.8395 153.078C50.5395 149.378 44.7395 144.978 39.3395 139.878C35.1395 135.878 31.4395 131.478 28.4395 126.578C27.5395 125.078 26.6395 124.378 24.7395 124.578C20.0395 125.078 15.9395 123.278 12.4395 120.478C6.43946 115.578 2.03946 109.578 0.439459 101.878C-0.260541 98.5777 -0.360541 95.2777 1.93946 92.3777C4.23946 89.3777 7.43946 88.2777 10.9395 87.8777C11.1395 87.8777 11.3395 87.8777 11.6395 87.8777C11.5395 87.6777 11.8395 87.6777 12.3395 87.5777Z" fill="white"/>
</mask>
<g mask="url(#mask12_3_1190)">
<g opacity="0.3">
<path d="M88.3396 121.178C92.6396 119.978 96.3396 118.978 99.3396 119.478C102.24 119.878 103.54 120.378 103.14 121.278C102.34 123.478 98.9395 126.278 98.4395 126.578C96.7395 127.778 94.7396 128.378 92.8396 128.178C90.9396 127.878 87.7395 127.178 86.4395 123.178C86.1395 122.278 86.8396 120.978 87.6396 121.078L88.3396 121.178Z" fill="#833333"/>
</g>
</g>
<mask id="mask13_3_1190" style="mask-type:luminance" maskUnits="userSpaceOnUse" x="0" y="0" width="135" height="162">
<path d="M12.3395 87.5777C11.5395 84.6777 10.6395 81.9777 10.1395 79.0777C9.53947 75.9777 9.03948 72.8777 8.83948 69.6777C8.73948 67.6777 8.43946 65.6777 8.53946 63.7777C8.93946 54.7777 10.5395 45.9777 14.2395 37.5777C17.1395 31.0777 20.9395 25.2777 25.6395 20.0777C31.6395 13.4777 38.8395 8.57767 46.9395 4.97767C52.1395 2.67767 57.5395 1.17767 63.0395 0.477667C68.1395 -0.222333 73.2395 -0.122327 78.4395 0.577673C84.8395 1.47767 90.9395 3.27767 96.8395 6.07767C101.139 8.07767 105.139 10.5777 108.839 13.5777C115.239 18.7777 120.539 24.8777 124.639 31.9777C128.439 38.5777 131.139 45.6776 132.739 53.1776C133.539 56.9776 133.939 60.8777 134.239 64.7777C134.439 73.8777 132.839 79.9777 132.139 83.2777C131.839 84.5777 131.539 85.8777 131.139 87.1777C125.039 110.378 127.039 115.278 127.039 121.678C127.139 128.378 123.139 135.278 119.039 140.378C114.039 146.578 107.939 151.578 101.139 155.678C93.4395 160.278 85.0395 161.978 76.0395 160.678C69.0395 159.678 62.8395 156.578 56.8395 153.078C50.5395 149.378 44.7395 144.978 39.3395 139.878C35.1395 135.878 31.4395 131.478 28.4395 126.578C27.5395 125.078 26.6395 124.378 24.7395 124.578C20.0395 125.078 15.9395 123.278 12.4395 120.478C6.43946 115.578 2.03946 109.578 0.439459 101.878C-0.260541 98.5777 -0.360541 95.2777 1.93946 92.3777C4.23946 89.3777 7.43946 88.2777 10.9395 87.8777C11.1395 87.8777 11.3395 87.8777 11.6395 87.8777C11.5395 87.6777 11.8395 87.6777 12.3395 87.5777Z" fill="white"/>
</mask>
<g mask="url(#mask13_3_1190)">
<path d="M82.7395 133.678C87.9395 134.378 92.8394 134.678 98.0394 134.278C98.7394 134.178 99.4394 134.178 100.039 134.078C101.139 134.078 101.839 134.778 101.439 135.378C101.039 135.878 100.539 136.378 99.8395 136.778C99.3395 137.078 98.8395 137.378 98.3395 137.578C96.3395 138.378 92.7395 138.778 90.3395 138.578C87.9395 138.478 82.4395 137.678 80.3395 134.978C79.8395 134.378 80.7395 133.478 81.7395 133.578L82.7395 133.678Z" fill="url(#paint13_radial_3_1190)"/>
</g>
<path d="M51.9395 149.978C53.5395 151.078 54.9395 151.878 56.6395 152.978C62.6395 156.478 68.8395 159.578 75.8395 160.578C84.8395 161.878 93.1395 160.178 100.939 155.578C101.939 154.978 102.839 154.378 103.839 153.778C78.7395 168.078 51.9395 149.978 51.9395 149.978Z" fill="#763636"/>
<path d="M11.9394 96.7776C13.1394 96.8776 14.4394 97.1777 15.6394 97.8777C19.6394 100.178 22.6394 103.378 25.0394 107.378C25.2394 107.778 25.4394 108.178 25.6394 108.578C25.8394 109.078 25.9394 109.578 25.4394 109.978C25.0394 110.278 24.5394 109.978 24.2394 109.778C22.8394 108.978 21.3394 108.578 19.8394 108.778C18.6394 108.878 17.6394 109.278 17.2394 110.478C16.8394 111.778 17.6394 112.578 18.5394 113.278C19.0394 113.678 19.5394 113.878 20.0394 114.278C20.3394 114.478 20.6394 114.778 20.4394 115.178C20.2394 115.578 19.8394 115.578 19.5394 115.578C16.7394 115.278 14.6394 111.478 16.0394 108.978C16.5394 108.078 16.8394 107.478 16.3394 106.478C15.6394 105.078 16.2394 103.878 17.6394 102.978C19.0394 102.178 19.0394 102.078 17.8394 101.078C16.4394 99.9777 15.0394 98.8777 13.2394 98.4777C10.6394 97.8777 8.9394 98.8777 8.2394 101.478C8.1394 101.678 8.2394 101.978 8.1394 102.078C8.0394 102.278 7.8394 102.478 7.7394 102.478C7.4394 102.578 7.2394 102.278 7.1394 101.978C6.9394 101.378 7.0394 100.778 7.1394 100.278C7.4394 98.1776 9.23938 96.7776 11.9394 96.7776ZM23.0394 107.178C22.4394 105.778 21.6394 104.878 20.5394 104.378C19.6394 103.978 18.6394 103.878 17.8394 104.578C17.3394 104.978 17.2394 105.478 17.5394 106.178C17.8394 106.678 18.1394 107.378 18.8394 107.078C20.1394 106.678 21.4394 107.178 23.0394 107.178Z" fill="#763636"/>
<path d="M101.04 131.478C100.94 132.978 95.8396 133.478 93.9396 133.578C90.3396 133.878 85.1396 133.278 81.2396 132.278C80.5396 132.078 79.4396 131.778 79.0396 131.678C78.2396 131.378 76.2396 131.278 76.8396 130.078C77.4396 128.878 78.5396 129.478 79.9396 129.978C86.0396 131.878 92.2396 132.578 98.4396 131.178C99.3396 130.978 101.14 129.978 101.04 131.478Z" fill="#7F3E33"/>
<path d="M123.139 133.578C123.839 131.878 124.439 130.178 125.039 128.678C125.939 126.078 126.639 123.378 126.739 120.678C126.839 118.778 126.739 116.978 126.339 114.878C125.939 112.778 125.939 110.578 126.239 108.478C127.039 103.078 128.139 97.7777 129.139 92.3777C129.239 91.6777 129.739 89.8776 129.939 89.1776C130.139 88.6776 130.139 87.7777 130.939 88.0777C131.639 88.2777 131.239 88.9777 131.139 89.3777C130.439 93.1777 129.339 98.0777 128.539 101.878C128.039 104.578 127.639 107.378 127.139 110.078C127.039 110.878 127.139 111.678 127.239 112.478C127.639 116.378 128.139 120.378 127.039 124.278C126.439 126.878 124.839 131.078 123.139 133.578Z" fill="#7F3E33"/>
<path d="M104.54 116.778C104.54 118.678 103.84 120.378 102.84 121.978C102.44 122.678 101.74 123.078 100.94 122.678C100.24 122.278 100.74 121.678 100.94 121.078C102.94 115.878 102.84 115.378 98.5396 111.778C96.7396 110.278 94.9396 108.678 94.4396 106.278C94.3396 105.678 94.0396 104.878 94.8396 104.478C95.6396 104.078 96.0396 104.878 96.2396 105.478C97.4396 108.078 99.7396 109.678 101.94 111.478C103.64 112.778 104.54 114.678 104.54 116.778Z" fill="#7F3E33"/>
<path d="M92.6395 119.978C91.2395 122.278 89.3395 122.878 87.0395 122.778C84.9395 122.678 83.8395 121.378 82.9395 119.578C82.2395 118.178 82.5395 116.978 83.4395 115.978C84.3395 114.878 85.3395 113.678 87.0395 113.978C87.3395 114.078 87.8395 113.978 87.9395 114.378C88.0395 114.778 87.6395 114.978 87.3395 115.178C87.2395 115.278 87.0395 115.278 86.9395 115.278C85.2395 115.878 84.1395 116.978 84.8395 118.878C85.4395 120.678 87.6395 121.378 89.6395 120.678C90.5395 120.478 91.1395 119.578 92.6395 119.978Z" fill="#7F3E33"/>
<path d="M95.2395 122.978C95.8395 121.278 97.5395 121.078 98.4395 120.078C98.5395 119.978 98.9395 120.078 98.9395 120.178C99.2395 120.578 99.1395 121.078 98.8395 121.378C98.0395 122.278 96.9395 123.078 95.2395 122.978Z" fill="#7F3E33"/>
<defs>
<radialGradient id="paint0_radial_3_1190" cx="0" cy="0" r="1" gradientUnits="userSpaceOnUse" gradientTransform="translate(130.459 98.1174) rotate(90.8551) scale(17.6136 9.47707)">
<stop offset="0.4077" stop-color="#CD8471"/>
<stop offset="0.5421" stop-color="#C77D6C"/>
<stop offset="0.733" stop-color="#B56B5F"/>
<stop offset="0.9566" stop-color="#994C4A"/>
<stop offset="0.991" stop-color="#944746"/>
</radialGradient>
<linearGradient id="paint1_linear_3_1190" x1="136.282" y1="113.497" x2="119.039" y2="96.2541" gradientUnits="userSpaceOnUse">
<stop offset="0.035885" stop-color="#E0836F"/>
<stop offset="0.0959941" stop-color="#D98370" stop-opacity="0.7644"/>
<stop offset="0.1813" stop-color="#C78273" stop-opacity="0.4299"/>
<stop offset="0.2814" stop-color="#A88077" stop-opacity="0.0378988"/>
<stop offset="0.291" stop-color="#A58078" stop-opacity="0"/>
<stop offset="0.4948" stop-color="#A1746D" stop-opacity="0"/>
<stop offset="0.8628" stop-color="#985451" stop-opacity="0"/>
<stop offset="0.9936" stop-color="#944746" stop-opacity="0"/>
</linearGradient>
<radialGradient id="paint2_radial_3_1190" cx="0" cy="0" r="1" gradientUnits="userSpaceOnUse" gradientTransform="translate(94.0376 85.2821) scale(73.5801 73.5801)">
<stop offset="0.4077" stop-color="#CD8471"/>
<stop offset="0.5421" stop-color="#C77D6C"/>
<stop offset="0.733" stop-color="#B56B5F"/>
</radialGradient>
<linearGradient id="paint3_linear_3_1190" x1="7.92606" y1="118.079" x2="132.661" y2="46.0635" gradientUnits="userSpaceOnUse">
<stop offset="0.035885" stop-color="#E0836F"/>
<stop offset="0.0959941" stop-color="#D98370" stop-opacity="0.7644"/>
<stop offset="0.1813" stop-color="#C78273" stop-opacity="0.4299"/>
<stop offset="0.2814" stop-color="#A88077" stop-opacity="0.0378988"/>
<stop offset="0.291" stop-color="#A58078" stop-opacity="0"/>
<stop offset="0.4948" stop-color="#A1746D" stop-opacity="0"/>
<stop offset="0.8628" stop-color="#985451" stop-opacity="0"/>
<stop offset="0.9936" stop-color="#944746" stop-opacity="0"/>
</linearGradient>
<radialGradient id="paint4_radial_3_1190" cx="0" cy="0" r="1" gradientUnits="userSpaceOnUse" gradientTransform="translate(89.906 121.94) scale(47.715)">
<stop offset="0.4141" stop-color="#CD8471"/>
<stop offset="0.6072" stop-color="#C67E6C" stop-opacity="0.6705"/>
<stop offset="0.8967" stop-color="#B16F5D" stop-opacity="0.1764"/>
<stop offset="1" stop-color="#A86857" stop-opacity="0"/>
</radialGradient>
<radialGradient id="paint5_radial_3_1190" cx="0" cy="0" r="1" gradientUnits="userSpaceOnUse" gradientTransform="translate(64.2629 119.348) scale(26.5038)">
<stop stop-color="#E3927D"/>
<stop offset="1" stop-color="#E3927D" stop-opacity="0"/>
</radialGradient>
<radialGradient id="paint6_radial_3_1190" cx="0" cy="0" r="1" gradientUnits="userSpaceOnUse" gradientTransform="translate(96.572 112.209) scale(15.5133)">
<stop stop-color="#E3927D"/>
<stop offset="1" stop-color="#E3927D" stop-opacity="0"/>
</radialGradient>
<radialGradient id="paint7_radial_3_1190" cx="0" cy="0" r="1" gradientUnits="userSpaceOnUse" gradientTransform="translate(116.571 118.365) scale(26.5038)">
<stop stop-color="#FAA28B"/>
<stop offset="1" stop-color="#FAA28B" stop-opacity="0"/>
</radialGradient>
<radialGradient id="paint8_radial_3_1190" cx="0" cy="0" r="1" gradientUnits="userSpaceOnUse" gradientTransform="translate(78.2041 67.859) scale(47.715 47.715)">
<stop offset="0.3705" stop-color="#CD8471"/>
<stop offset="1" stop-color="#A86857" stop-opacity="0"/>
</radialGradient>
<radialGradient id="paint9_radial_3_1190" cx="0" cy="0" r="1" gradientTransform="matrix(14.8509 -5.0384 6.79328 20.0225 15.9322 106.831)" gradientUnits="userSpaceOnUse">
<stop offset="0.3705" stop-color="#A86857"/>
<stop offset="1" stop-color="#A86857" stop-opacity="0"/>
</radialGradient>
<radialGradient id="paint10_radial_3_1190" cx="0" cy="0" r="1" gradientUnits="userSpaceOnUse" gradientTransform="translate(91.5652 79.5122) scale(41.9745)">
<stop stop-color="#E3927D"/>
<stop offset="1" stop-color="#E3927D" stop-opacity="0"/>
</radialGradient>
<radialGradient id="paint11_radial_3_1190" cx="0" cy="0" r="1" gradientUnits="userSpaceOnUse" gradientTransform="translate(64.3889 120.571) scale(17.4254 14.0745)">
<stop stop-color="#FAA28B"/>
<stop offset="1" stop-color="#FAA28B" stop-opacity="0"/>
</radialGradient>
<radialGradient id="paint12_radial_3_1190" cx="0" cy="0" r="1" gradientUnits="userSpaceOnUse" gradientTransform="translate(96.2834 115.222) scale(4.0957 3.30809)">
<stop stop-color="#FAA28B"/>
<stop offset="1" stop-color="#FAA28B" stop-opacity="0"/>
</radialGradient>
<radialGradient id="paint13_radial_3_1190" cx="0" cy="0" r="1" gradientUnits="userSpaceOnUse" gradientTransform="translate(90.9092 136.114) scale(7.73699 7.737)">
<stop stop-color="#E3927D"/>
<stop offset="1" stop-color="#E3927D" stop-opacity="0"/>
</radialGradient>
</defs>
</svg>
